<?xml version="1.0" encoding="UTF-8" standalone="no"?>
<svg
   width="489.95502pt"
   height="492.08408pt"
   version="1.1"
   viewBox="0 0 489.95502 492.08408"
   id="svg3190"
   sodipodi:docname="arrow.svg"
   inkscape:export-filename="arrow.svg"
   inkscape:export-xdpi="96"
   inkscape:export-ydpi="96"
   xmlns:inkscape="http://www.inkscape.org/namespaces/inkscape"
   xmlns:sodipodi="http://sodipodi.sourceforge.net/DTD/sodipodi-0.dtd"
   xmlns:xlink="http://www.w3.org/1999/xlink"
   xmlns="http://www.w3.org/2000/svg"
   xmlns:svg="http://www.w3.org/2000/svg">
  <sodipodi:namedview
     id="namedview3192"
     pagecolor="#ffffff"
     bordercolor="#111111"
     borderopacity="1"
     inkscape:showpageshadow="0"
     inkscape:pageopacity="0"
     inkscape:pagecheckerboard="1"
     inkscape:deskcolor="#d1d1d1"
     inkscape:document-units="pt"
     showgrid="false" />
  <defs
     id="defs3110">
    <symbol
       id="v"
       overflow="visible">
      <path
         d="M 0.28125,-0.015625 C 0.257812,-0.003906 0.238281,0 0.21875,0 H 0.171875 C 0.128906,0 0.09375,-0.0078125 0.062495,-0.03125 0.031245,-0.0625 0.01562,-0.097656 0.01562,-0.14063 c 0,-0.050781 0.015625,-0.09375 0.046875,-0.125 0.03125,-0.03125 0.066406,-0.046875 0.10938,-0.046875 0.019531,0 0.035156,0.007812 0.046875,0.015625 0.019531,0 0.039062,0.007813 0.0625,0.015625 v 0.0625 C 0.257812,-0.226567 0.242188,-0.23438 0.234375,-0.23438 0.222656,-0.242193 0.207031,-0.250005 0.1875,-0.250005 c -0.03125,0 -0.054688,0.011719 -0.0625,0.03125 -0.011719,0.011719 -0.015625,0.039062 -0.015625,0.078125 0,0.023437 0.003906,0.042969 0.015625,0.0625 0.007812,0.023438 0.03125,0.03125 0.0625,0.03125 H 0.234375 C 0.242188,-0.0546925 0.257812,-0.066411 0.28125,-0.07813 Z"
         id="path3044" />
    </symbol>
    <symbol
       id="c"
       overflow="visible">
      <path
         d="M 0.20312,-0.15625 C 0.191401,-0.164062 0.179683,-0.171875 0.17187,-0.171875 c -0.023437,0 -0.039063,0.007813 -0.046875,0.015625 C 0.113276,-0.144531 0.10937,-0.128906 0.10937,-0.109375 V 5e-6 H 0.031245 v -0.21875 H 0.10937 v 0.03125 C 0.117183,-0.207026 0.128901,-0.218745 0.14062,-0.218745 0.148433,-0.226557 0.160151,-0.23437 0.17187,-0.23437 H 0.187495 0.20312 Z"
         id="path3047" />
    </symbol>
    <symbol
       id="a"
       overflow="visible">
      <path
         d="m 0.25,-0.10938 v 0.015625 H 0.09375 c 0,0.023438 0.0039062,0.039062 0.015625,0.046875 H 0.15625 0.1875 C 0.207031,-0.0546925 0.226562,-0.066411 0.25,-0.07813 v 0.0625 C 0.226562,-0.003911 0.207031,-5e-6 0.1875,-5e-6 H 0.140625 c -0.042969,0 -0.074219,-0.0078125 -0.09375,-0.03125 -0.023438,-0.019531 -0.03125,-0.046875 -0.03125,-0.078125 0,-0.039063 0.0078125,-0.070313 0.03125,-0.09375 0.019531,-0.019531 0.050781,-0.03125 0.09375,-0.03125 0.03125,0 0.054687,0.011719 0.078125,0.03125 C 0.238281,-0.179693 0.25,-0.148443 0.25,-0.10938 Z M 0.1875,-0.14063 c 0,-0.007813 -0.007812,-0.015625 -0.015625,-0.015625 -0.011719,-0.007812 -0.023437,-0.015625 -0.03125,-0.015625 -0.011719,0 -0.023437,0.007813 -0.03125,0.015625 -0.011719,0 -0.015625,0.007812 -0.015625,0.015625 z"
         id="path3050" />
    </symbol>
    <symbol
       id="j"
       overflow="visible">
      <path
         d="m 0.14062,-0.10938 c -0.023437,0 -0.039063,0.007813 -0.046875,0.015625 v 0.015625 0.03125 h 0.03125 c 0.007812,0 0.019531,-0.0039062 0.03125,-0.015625 0.007812,-0.0078125 0.015625,-0.019531 0.015625,-0.03125 V -0.10938 Z M 0.25,-0.125005 V -5e-6 H 0.171875 v -0.03125 C 0.160156,-0.019536 0.148438,-0.007817 0.140625,-5e-6 H 0.09375 c -0.023438,0 -0.042969,-0.0039062 -0.0625,-0.015625 -0.011719,-0.0078125 -0.015625,-0.03125 -0.015625,-0.0625 0,-0.019531 0.0078125,-0.035156 0.03125,-0.046875 C 0.066406,-0.132817 0.09375,-0.14063 0.125,-0.14063 h 0.046875 c 0,-0.019531 -0.007813,-0.03125 -0.015625,-0.03125 H 0.109375 0.0625 0.03125 V -0.218755 H 0.078125 C 0.097656,-0.226567 0.113281,-0.23438 0.125,-0.23438 c 0.039062,0 0.070312,0.011719 0.09375,0.03125 C 0.238281,-0.179693 0.25,-0.156255 0.25,-0.125005 Z"
         id="path3053" />
    </symbol>
    <symbol
       id="b"
       overflow="visible">
      <path
         d="m 0.10938,-0.28125 v 0.0625 h 0.078125 v 0.046875 H 0.10938 v 0.09375 0.03125 H 0.14063 0.17188 V 0 H 0.125005 C 0.093755,0 0.066411,-0.0039062 0.04688,-0.015625 0.035161,-0.0234375 0.031255,-0.046875 0.031255,-0.078125 v -0.09375 H 5e-6 V -0.21875 h 0.03125 v -0.0625 z"
         id="path3056" />
    </symbol>
    <symbol
       id="i"
       overflow="visible">
      <path
         d="m 0.1875,-0.1875 v -0.125 H 0.25 V 0 H 0.1875 V -0.03125 C 0.175781,-0.019531 0.164062,-0.007812 0.15625,0 H 0.109375 c -0.023438,0 -0.042969,-0.0078125 -0.0625,-0.03125 -0.023438,-0.019531 -0.03125,-0.046875 -0.03125,-0.078125 0,-0.039063 0.0078125,-0.070313 0.03125,-0.09375 0.019531,-0.019531 0.039062,-0.03125 0.0625,-0.03125 0.019531,0 0.035156,0.007813 0.046875,0.015625 0.007812,0 0.019531,0.011719 0.03125,0.03125 z m -0.046875,0.14062 c 0.007813,0 0.019531,-0.0039062 0.03125,-0.015625 C 0.179688,-0.0703175 0.1875,-0.085943 0.1875,-0.10938 0.1875,-0.128911 0.179688,-0.144536 0.171875,-0.156255 0.160156,-0.164067 0.148438,-0.17188 0.140625,-0.17188 c -0.023437,0 -0.039063,0.007813 -0.046875,0.015625 v 0.046875 0.046875 c 0.007812,0.011719 0.023438,0.015625 0.046875,0.015625 z"
         id="path3059" />
    </symbol>
    <symbol
       id="h"
       overflow="visible">
      <path
         d="m 0.15625,-0.046875 c 0.007812,0 0.019531,-0.0039062 0.03125,-0.015625 0.007812,-0.0078125 0.015625,-0.023438 0.015625,-0.046875 0,-0.019531 -0.007813,-0.035156 -0.015625,-0.046875 -0.011719,-0.007812 -0.023438,-0.015625 -0.03125,-0.015625 -0.023438,0 -0.039062,0.007813 -0.046875,0.015625 v 0.046875 0.046875 c 0.007813,0.011719 0.023437,0.015625 0.046875,0.015625 z m -0.046875,-0.14062 c 0.007813,-0.019531 0.019531,-0.03125 0.03125,-0.03125 0.007813,-0.007812 0.019531,-0.015625 0.03125,-0.015625 0.03125,0 0.054687,0.011719 0.078125,0.03125 0.019531,0.023437 0.03125,0.054687 0.03125,0.09375 0,0.03125 -0.011719,0.058594 -0.03125,0.078125 C 0.226562,-0.007807 0.203125,5e-6 0.171875,5e-6 H 0.140625 C 0.128906,-0.0078075 0.117188,-0.019526 0.109375,-0.031245 V 5e-6 H 0.03125 v -0.3125 h 0.078125 z"
         id="path3062" />
    </symbol>
    <symbol
       id="g"
       overflow="visible">
      <path
         d="m 0,-0.21875 h 0.078125 l 0.0625,0.14062 L 0.1875,-0.21875 H 0.265625 L 0.171875,0.01563 C 0.160156,0.04688 0.144531,0.066411 0.125,0.07813 0.113281,0.0859425 0.097656,0.093755 0.078125,0.093755 H 0.03125 v -0.0625 H 0.0625 0.078125 c 0.0078125,0 0.019531,-0.0078125 0.03125,-0.015625 V 5e-6 Z"
         id="path3065" />
    </symbol>
    <symbol
       id="e"
       overflow="visible">
      <path
         d="M 0.03125,-0.29688 H 0.109375 V 0 H 0.03125 Z"
         id="path3068" />
    </symbol>
    <symbol
       id="u"
       overflow="visible">
      <path
         d="m 0,-0.29688 h 0.078125 l 0.0625,0.10938 0.078125,-0.10938 H 0.296875 L 0.187495,-0.125 V 0 H 0.10937 v -0.125 z"
         id="path3071" />
    </symbol>
    <symbol
       id="t"
       overflow="visible">
      <path
         d="m 0.03125,-0.29688 h 0.078125 v 0.10938 l 0.10938,-0.10938 h 0.09375 l -0.14062,0.14062 0.15625,0.15625 h -0.09375 l -0.125,-0.10938 V -1e-5 H 0.03126 Z"
         id="path3074" />
    </symbol>
    <symbol
       id="s"
       overflow="visible">
      <path
         d="m 0.17188,-0.25 c -0.023437,0 -0.039063,0.011719 -0.046875,0.03125 -0.011719,0.011719 -0.015625,0.039062 -0.015625,0.078125 0,0.023437 0.003906,0.042969 0.015625,0.0625 0.007812,0.023438 0.023438,0.03125 0.046875,0.03125 0.03125,0 0.050781,-0.0078125 0.0625,-0.03125 0.007813,-0.019531 0.015625,-0.039063 0.015625,-0.0625 0,-0.039063 -0.007812,-0.066406 -0.015625,-0.078125 C 0.222661,-0.238281 0.20313,-0.25 0.17188,-0.25 Z m 0,-0.0625 c 0.050781,0 0.085937,0.015625 0.10938,0.046875 0.03125,0.03125 0.046875,0.074219 0.046875,0.125 0,0.042969 -0.015625,0.078125 -0.046875,0.10938 C 0.257822,-0.007807 0.222666,5e-6 0.17188,5e-6 0.128911,5e-6 0.093755,-0.0078075 0.0625,-0.031245 0.03125,-0.062495 0.015625,-0.097651 0.015625,-0.140625 c 0,-0.050781 0.015625,-0.09375 0.046875,-0.125 C 0.09375,-0.296875 0.128906,-0.3125 0.17188,-0.3125 Z"
         id="path3077" />
    </symbol>
    <symbol
       id="f"
       overflow="visible">
      <path
         d="M 0.03125,-0.29688 H 0.125 l 0.10938,0.20312 V -0.29688 H 0.312505 V 0 H 0.218755 L 0.109375,-0.20312 V 0 H 0.03125 Z"
         id="path3080" />
    </symbol>
    <symbol
       id="r"
       overflow="visible">
      <path
         d="m 0.17188,-0.3125 v 0.046875 H 0.14063 c -0.011719,0 -0.023437,0.007813 -0.03125,0.015625 v 0.015625 0.015625 h 0.0625 v 0.046875 H 0.10938 V 5e-6 h -0.0625 v -0.17188 H 5e-6 V -0.21875 H 0.04688 v -0.015625 c 0,-0.03125 0.0039062,-0.050781 0.015625,-0.0625 0.0078125,-0.007813 0.03125,-0.015625 0.0625,-0.015625 z"
         id="path3083" />
    </symbol>
    <symbol
       id="d"
       overflow="visible">
      <path
         d="m 0.14062,-0.17188 c -0.023437,0 -0.039063,0.007813 -0.046875,0.015625 v 0.046875 0.046875 c 0.007812,0.011719 0.023438,0.015625 0.046875,0.015625 0.019531,0 0.03125,-0.0039062 0.03125,-0.015625 0.007813,-0.0078125 0.015625,-0.023438 0.015625,-0.046875 0,-0.019531 -0.007812,-0.035156 -0.015625,-0.046875 0,-0.007812 -0.011719,-0.015625 -0.03125,-0.015625 z m 0,-0.0625 c 0.039063,0 0.070313,0.011719 0.09375,0.03125 0.019531,0.023437 0.03125,0.054687 0.03125,0.09375 0,0.03125 -0.011719,0.058594 -0.03125,0.078125 C 0.210933,-0.007817 0.179683,-5e-6 0.14062,-5e-6 0.097651,-5e-6 0.066401,-0.0078175 0.04687,-0.031255 0.023432,-0.050786 0.01562,-0.07813 0.01562,-0.10938 c 0,-0.039063 0.0078125,-0.070313 0.03125,-0.09375 0.019531,-0.019531 0.050781,-0.03125 0.09375,-0.03125 z"
         id="path3086" />
    </symbol>
    <symbol
       id="q"
       overflow="visible">
      <path
         d="m 0.25,-0.1875 c 0,-0.007812 0.003906,-0.019531 0.015625,-0.03125 0.019531,-0.007812 0.035156,-0.015625 0.046875,-0.015625 0.03125,0 0.050781,0.011719 0.0625,0.03125 0.007812,0.023437 0.015625,0.042969 0.015625,0.0625 V -5e-6 h -0.0625 v -0.10938 -0.015625 c 0,-0.019531 -0.007813,-0.03125 -0.015625,-0.03125 0,-0.007812 -0.007812,-0.015625 -0.015625,-0.015625 -0.011719,0 -0.023437,0.007813 -0.03125,0.015625 C 0.253906,-0.144541 0.25,-0.128916 0.25,-0.109385 V -5e-6 H 0.171875 v -0.10938 -0.046875 c 0,-0.007812 -0.011719,-0.015625 -0.03125,-0.015625 -0.011719,0 -0.023437,0.007813 -0.03125,0.015625 V -0.109385 -5e-6 H 0.03125 v -0.21875 h 0.078125 v 0.03125 c 0.007813,-0.019531 0.019531,-0.03125 0.03125,-0.03125 0.007813,-0.007812 0.019531,-0.015625 0.03125,-0.015625 0.019531,0 0.035156,0.007813 0.046875,0.015625 0.007812,0.011719 0.019531,0.023438 0.03125,0.03125 z"
         id="path3089" />
    </symbol>
    <symbol
       id="p"
       overflow="visible">
      <path
         d="M 0.26562,-0.14062 V 0 H 0.187495 v -0.10938 -0.03125 c 0,-0.007813 -0.007812,-0.015625 -0.015625,-0.015625 V -0.17188 H 0.156245 c -0.011719,0 -0.023438,0.007813 -0.03125,0.015625 C 0.113276,-0.144536 0.10937,-0.128911 0.10937,-0.10938 V 0 H 0.031245 V -0.3125 H 0.10937 v 0.125 c 0.007813,-0.019531 0.019531,-0.03125 0.03125,-0.03125 0.007813,-0.007812 0.019531,-0.015625 0.03125,-0.015625 0.03125,0 0.050781,0.011719 0.0625,0.03125 0.019531,0.023437 0.03125,0.042969 0.03125,0.0625 z"
         id="path3092" />
    </symbol>
    <symbol
       id="o"
       overflow="visible">
      <path
         d="m 0.03125,-0.09375 v -0.125 h 0.078125 v 0.015625 0.046875 0.03125 0.046875 0.015625 0.015625 h 0.03125 c 0.007813,0 0.019531,-0.0039062 0.03125,-0.015625 C 0.179688,-0.0703125 0.1875,-0.085938 0.1875,-0.109375 v -0.10938 H 0.25 V -5e-6 H 0.1875 v -0.03125 C 0.175781,-0.019536 0.164062,-0.007817 0.15625,-5e-6 H 0.109375 C 0.085937,-5e-6 0.066406,-0.0039112 0.046875,-0.01563 0.035156,-0.035161 0.03125,-0.062505 0.03125,-0.093755 Z"
         id="path3095" />
    </symbol>
    <symbol
       id="n"
       overflow="visible">
      <path
         d="M 0.26562,-0.14062 V 0 H 0.187495 v -0.10938 -0.03125 c 0,-0.007813 -0.007812,-0.015625 -0.015625,-0.015625 V -0.17188 H 0.156245 c -0.011719,0 -0.023438,0.007813 -0.03125,0.015625 C 0.113276,-0.144536 0.10937,-0.128911 0.10937,-0.10938 V 0 H 0.031245 V -0.21875 H 0.10937 v 0.03125 c 0.007813,-0.019531 0.019531,-0.03125 0.03125,-0.03125 0.007813,-0.007812 0.019531,-0.015625 0.03125,-0.015625 0.03125,0 0.050781,0.011719 0.0625,0.03125 0.019531,0.023437 0.03125,0.042969 0.03125,0.0625 z"
         id="path3098" />
    </symbol>
    <symbol
       id="m"
       overflow="visible">
      <path
         d="m 0.03125,-0.29688 h 0.14062 c 0.03125,0 0.054687,0.011719 0.078125,0.03125 0.019531,0.011719 0.03125,0.03125 0.03125,0.0625 0,0.03125 -0.011719,0.058594 -0.03125,0.078125 C 0.226557,-0.113286 0.20312,-0.10938 0.17187,-0.10938 H 0.10937 V 0 H 0.031245 Z m 0.078125,0.046875 v 0.09375 H 0.15625 0.1875 C 0.195312,-0.164067 0.203125,-0.179693 0.203125,-0.20313 0.203125,-0.210943 0.195312,-0.222661 0.1875,-0.23438 0.175781,-0.242193 0.164062,-0.250005 0.15625,-0.250005 Z"
         id="path3101" />
    </symbol>
    <symbol
       id="l"
       overflow="visible">
      <path
         d="M 0.03125,-0.21875 H 0.109375 V 0 c 0,0.019531 -0.011719,0.039062 -0.03125,0.0625 -0.011719,0.019531 -0.03125,0.03125 -0.0625,0.03125 h -0.03125 V 0.03125 H 0 0.015625 C 0.0234375,0.03125 0.03125,0.019531 0.03125,0 Z m 0,-0.09375 H 0.109375 V -0.25 H 0.03125 Z"
         id="path3104" />
    </symbol>
    <symbol
       id="k"
       overflow="visible">
      <path
         d="m 0.21875,-0.21875 v 0.0625 C 0.207031,-0.164062 0.195312,-0.171875 0.1875,-0.171875 H 0.15625 c -0.023438,0 -0.039062,0.007813 -0.046875,0.015625 -0.011719,0.011719 -0.015625,0.027344 -0.015625,0.046875 0,0.023438 0.0039062,0.039062 0.015625,0.046875 0.007813,0.011719 0.023437,0.015625 0.046875,0.015625 H 0.1875 C 0.195312,-0.0546875 0.207031,-0.0625 0.21875,-0.0625 V 0 H 0.1875 0.140625 C 0.097656,0 0.066406,-0.0078125 0.046875,-0.03125 0.023437,-0.050781 0.015625,-0.078125 0.015625,-0.109375 c 0,-0.039063 0.0078125,-0.070313 0.03125,-0.09375 0.019531,-0.019531 0.050781,-0.03125 0.09375,-0.03125 0.019531,0 0.035156,0.007813 0.046875,0.015625 z"
         id="path3107" />
    </symbol>
  </defs>
  <g
     id="g3188"
     transform="translate(-70.000005,-69.65027)"
     style="fill:#14121f;fill-opacity:1">
    <path
       d="M 523.2,120.17 302.79,340.58 v -0.73828 c 0,-7.0547 -5.7422,-12.879 -12.797,-12.879 h -0.73828 l 11.32,-11.402 209,-209 z"
       fill-rule="evenodd"
       id="path3112"
       style="fill:#14121f;fill-opacity:1" />
    <path
       d="m 266.05,322.04 34.699,-0.082 h 0.57422 c 3.5273,0 6.3984,2.8711 6.3984,6.3984 l -0.082,34.699 c 0.16406,1.8047 -0.49219,3.6914 -1.8867,5.0859 l -54.301,54.301 c -0.82031,0.90234 -1.9688,1.4766 -3.1992,1.8047 -3.4453,0.73828 -6.8906,-1.3945 -7.7109,-4.8398 l -5.5781,-24.855 -24.363,-5.4961 c -1.3125,-0.16406 -2.625,-0.82031 -3.6094,-1.8047 -2.543,-2.543 -2.543,-6.5625 0,-9.1055 l 54.383,-54.383 c 1.1484,-1.1484 2.7891,-1.8867 4.5938,-1.8867 z"
       id="path3114"
       style="fill:#14121f;fill-opacity:1" />
    <path
       d="m 491.38,86.129 60.207,-16.16 c 1.1484,-0.41016 2.3789,-0.41016 3.6094,-0.08203 3.4453,0.90234 5.4961,4.4297 4.5117,7.875 l -16.16,60.207 c -0.24609,1.1484 -0.82031,2.2969 -1.7227,3.1992 -2.543,2.543 -6.5625,2.543 -9.1055,0 l -44.211,-44.211 c -0.82031,-0.82031 -1.4766,-1.8047 -1.8047,-2.9531 -0.90234,-3.4453 1.1484,-6.9727 4.5117,-7.875 z"
       id="path3116"
       style="fill:#14121f;fill-opacity:1" />
    <path
       d="m 213.79,131.98 283.9,283.9 -13.617,13.617 -283.9,-283.9 z"
       fill-rule="evenodd"
       id="path3118"
       style="fill:#14121f;fill-opacity:1" />
    <path
       d="m 479.89,398.16 1.4766,-3.4453 c 0.32812,-0.65625 0.65625,-1.3125 1.0664,-1.9688 20.016,-33.633 26.742,-71.691 19.359,-110.16 -7.2188,-37.734 -27.316,-72.676 -54.383,-99.746 -27.07,-27.07 -62.012,-47.164 -99.746,-54.383 -38.473,-7.3828 -76.531,-0.65625 -110.16,19.359 -0.65625,0.41016 -1.3125,0.73828 -1.9688,1.0664 l -3.3633,1.4766 c -10.008,4.2656 -20.344,8.0391 -30.844,10.582 -16.98,4.0195 -38.309,5.4961 -51.43,-8.2852 -5.5781,-5.8242 -8.5312,-13.371 -9.4336,-21.246 -0.41016,-3.6094 -0.49219,-7.6289 0.082,-11.238 1.2305,-8.7773 9.3516,-14.848 18.129,-13.699 8.6133,1.2305 14.602,9.1055 13.781,17.719 -0.082,0.82031 0.24609,2.2148 0.41016,2.9531 0.41016,1.7227 1.2305,3.3633 2.707,4.4297 5.4961,3.9375 18.047,0.32813 23.871,-1.6406 7.793,-2.625 15.34,-6.2344 22.559,-10.09 h 0.082 c 27.48,-14.684 57.172,-24.035 88.344,-25.43 28.547,-1.3125 56.68,3.9375 83.012,14.93 28.629,11.895 53.316,30.926 75.137,52.66 21.738,21.738 40.766,46.508 52.66,75.137 10.992,26.332 16.16,54.547 14.93,83.012 -1.3945,31.172 -10.828,60.863 -25.43,88.344 v 0.082 c -3.8555,7.2188 -7.4648,14.848 -10.09,22.559 -1.9688,5.7422 -5.5781,18.293 -1.6406,23.871 1.0664,1.4766 2.707,2.2969 4.4297,2.707 0.73828,0.16406 2.2148,0.49219 2.9531,0.41016 8.6133,-0.82031 16.57,5.0859 17.719,13.781 1.2305,8.7773 -4.9219,16.816 -13.699,18.129 -3.6094,0.49219 -7.6289,0.49219 -11.238,0.082 -7.957,-0.90234 -15.422,-3.9375 -21.246,-9.4336 -2.2148,-2.1328 -4.1016,-4.5117 -5.6602,-7.1367 -12.305,-21 -1.2305,-53.809 7.875,-75.137 z"
       fill-rule="evenodd"
       id="path3120"
       style="fill:#14121f;fill-opacity:1" />
    <use
       x="70"
       y="561.23047"
       xlink:href="#v"
       id="use3122"
       style="fill:#14121f;fill-opacity:1" />
    <use
       x="70.300781"
       y="561.23047"
       xlink:href="#c"
       id="use3124"
       style="fill:#14121f;fill-opacity:1" />
    <use
       x="70.503906"
       y="561.23047"
       xlink:href="#a"
       id="use3126"
       style="fill:#14121f;fill-opacity:1" />
    <use
       x="70.78125"
       y="561.23047"
       xlink:href="#j"
       id="use3128"
       style="fill:#14121f;fill-opacity:1" />
    <use
       x="71.058594"
       y="561.23047"
       xlink:href="#b"
       id="use3130"
       style="fill:#14121f;fill-opacity:1" />
    <use
       x="71.253906"
       y="561.23047"
       xlink:href="#a"
       id="use3132"
       style="fill:#14121f;fill-opacity:1" />
    <use
       x="71.53125"
       y="561.23047"
       xlink:href="#i"
       id="use3134"
       style="fill:#14121f;fill-opacity:1" />
    <use
       x="71.96875"
       y="561.23047"
       xlink:href="#h"
       id="use3136"
       style="fill:#14121f;fill-opacity:1" />
    <use
       x="72.261719"
       y="561.23047"
       xlink:href="#g"
       id="use3138"
       style="fill:#14121f;fill-opacity:1" />
    <use
       x="72.671875"
       y="561.23047"
       xlink:href="#e"
       id="use3140"
       style="fill:#14121f;fill-opacity:1" />
    <use
       x="72.824219"
       y="561.23047"
       xlink:href="#u"
       id="use3142"
       style="fill:#14121f;fill-opacity:1" />
    <use
       x="73.121094"
       y="561.23047"
       xlink:href="#e"
       id="use3144"
       style="fill:#14121f;fill-opacity:1" />
    <use
       x="73.273438"
       y="561.23047"
       xlink:href="#t"
       id="use3146"
       style="fill:#14121f;fill-opacity:1" />
    <use
       x="73.59375"
       y="561.23047"
       xlink:href="#s"
       id="use3148"
       style="fill:#14121f;fill-opacity:1" />
    <use
       x="73.941406"
       y="561.23047"
       xlink:href="#f"
       id="use3150"
       style="fill:#14121f;fill-opacity:1" />
    <use
       x="70"
       y="561.64062"
       xlink:href="#r"
       id="use3152"
       style="fill:#14121f;fill-opacity:1" />
    <use
       x="70.179688"
       y="561.64062"
       xlink:href="#c"
       id="use3154"
       style="fill:#14121f;fill-opacity:1" />
    <use
       x="70.378906"
       y="561.64062"
       xlink:href="#d"
       id="use3156"
       style="fill:#14121f;fill-opacity:1" />
    <use
       x="70.664062"
       y="561.64062"
       xlink:href="#q"
       id="use3158"
       style="fill:#14121f;fill-opacity:1" />
    <use
       x="71.234375"
       y="561.64062"
       xlink:href="#b"
       id="use3160"
       style="fill:#14121f;fill-opacity:1" />
    <use
       x="71.429688"
       y="561.64062"
       xlink:href="#p"
       id="use3162"
       style="fill:#14121f;fill-opacity:1" />
    <use
       x="71.71875"
       y="561.64062"
       xlink:href="#a"
       id="use3164"
       style="fill:#14121f;fill-opacity:1" />
    <use
       x="72.140625"
       y="561.64062"
       xlink:href="#f"
       id="use3166"
       style="fill:#14121f;fill-opacity:1" />
    <use
       x="72.484375"
       y="561.64062"
       xlink:href="#d"
       id="use3168"
       style="fill:#14121f;fill-opacity:1" />
    <use
       x="72.765625"
       y="561.64062"
       xlink:href="#o"
       id="use3170"
       style="fill:#14121f;fill-opacity:1" />
    <use
       x="73.058594"
       y="561.64062"
       xlink:href="#n"
       id="use3172"
       style="fill:#14121f;fill-opacity:1" />
    <use
       x="73.492188"
       y="561.64062"
       xlink:href="#m"
       id="use3174"
       style="fill:#14121f;fill-opacity:1" />
    <use
       x="73.792969"
       y="561.64062"
       xlink:href="#c"
       id="use3176"
       style="fill:#14121f;fill-opacity:1" />
    <use
       x="73.996094"
       y="561.64062"
       xlink:href="#d"
       id="use3178"
       style="fill:#14121f;fill-opacity:1" />
    <use
       x="74.277344"
       y="561.64062"
       xlink:href="#l"
       id="use3180"
       style="fill:#14121f;fill-opacity:1" />
    <use
       x="74.417969"
       y="561.64062"
       xlink:href="#a"
       id="use3182"
       style="fill:#14121f;fill-opacity:1" />
    <use
       x="74.695312"
       y="561.64062"
       xlink:href="#k"
       id="use3184"
       style="fill:#14121f;fill-opacity:1" />
    <use
       x="74.941406"
       y="561.64062"
       xlink:href="#b"
       id="use3186"
       style="fill:#14121f;fill-opacity:1" />
  </g>
</svg>
