<?xml version="1.0" encoding="UTF-8" standalone="no"?>
<svg
   width="547.75pt"
   height="490.94473pt"
   version="1.1"
   viewBox="0 0 547.75 490.94474"
   id="svg5501"
   sodipodi:docname="noun-dragon-3925502.svg"
   xmlns:inkscape="http://www.inkscape.org/namespaces/inkscape"
   xmlns:sodipodi="http://sodipodi.sourceforge.net/DTD/sodipodi-0.dtd"
   xmlns="http://www.w3.org/2000/svg"
   xmlns:svg="http://www.w3.org/2000/svg">
  <sodipodi:namedview
     id="namedview5503"
     pagecolor="#ffffff"
     bordercolor="#111111"
     borderopacity="1"
     inkscape:showpageshadow="0"
     inkscape:pageopacity="0"
     inkscape:pagecheckerboard="1"
     inkscape:deskcolor="#d1d1d1"
     inkscape:document-units="pt"
     showgrid="false" />
  <defs
     id="defs5449" />
  <g
     id="g5499"
     transform="translate(-88.601129,-69.99739)">
    <path
       d="m 107.09,371.04 c 0.49609,-2.8125 1.168,-5.5859 2.0234,-8.3125 3.8008,-12.211 11.918,-22.625 22.836,-29.293 10.918,-6.6641 23.887,-9.1289 36.488,-6.9297 l 31.5,5.5469 c -2.6797,4.7227 -6.7539,8.5 -11.664,10.816 -4.9102,2.3125 -10.418,3.0547 -15.766,2.1133 l -7.5703,-1.3398 v 0.004 c -6.2188,-1.1797 -12.656,-0.14453 -18.191,2.9258 -5.5391,3.0664 -9.8281,7.9766 -12.129,13.875 -2.5938,7.2773 -1.8555,15.332 2.0195,22.02 3.8789,6.6875 10.5,11.332 18.105,12.699 l 34.465,6.0742 0.004,-0.004 c 25.137,4.4336 51.004,-1.3047 71.91,-15.945 20.91,-14.637 35.148,-36.984 39.582,-62.121 0.50781,-2.793 1.1758,-5.5586 1.9961,-8.2773 5.8984,5.625 13.723,8.793 21.875,8.8555 5.1289,-0.0195 10.188,-1.2422 14.758,-3.5703 6.1523,-3.0195 11.176,-7.9297 14.332,-14.008 3.1602,-6.082 4.2852,-13.016 3.2148,-19.785 l -3.7891,-25.551 c 34.121,-18.27 61.379,-47.137 77.664,-82.25 1.9766,-4.4102 0,-9.5898 -4.4102,-11.566 -4.4102,-1.9766 -9.5898,0 -11.566,4.4102 -8.3359,18.336 -20.23,34.832 -35,48.527 l -5.7227,-38.613 c -4.4805,-29.859 -19.164,-57.242 -41.555,-77.5 -3.582,-3.2422 -9.1172,-2.9648 -12.359,0.61719 -3.2422,3.5859 -2.9648,9.1172 0.61719,12.359 19.371,17.539 32.074,41.238 35.953,67.078 l 7.3047,49.305 c -4.375,3.2031 -8.9609,6.2031 -13.703,9.0742 l -2.5469,-17.195 0.004,0.004 c -4.7383,-30.875 -20.336,-59.047 -43.984,-79.457 -23.648,-20.406 -53.801,-31.711 -85.035,-31.879 -17.559,0.0156 -34.867,4.125 -50.559,12.004 18.176,-24.102 46.621,-38.270003 76.809,-38.254003 16.918,-0.03906 33.625,3.7617 48.859,11.121 4.3047,1.835903 9.2891,-0.03516 11.316,-4.25 2.0312,-4.2148 0.38672,-9.2812 -3.7305,-11.5 -17.598,-8.5039 -36.898,-12.906 -56.445,-12.871 -23.848,-0.01953 -47.098,7.4648 -66.453,21.391 -19.359,13.930003 -33.84,33.594003 -41.398,56.215003 -0.0586,0.31641 -0.10156,0.63672 -0.125,0.96094 -18.762,19.383 -29.988,44.824 -31.656,71.75 -0.15625,2.4141 -0.36719,4.7695 -0.36719,7.1836 0,2.3203 0.92188,4.5469 2.5625,6.1875 1.64062,1.6406 3.8672,2.5625 6.1875,2.5625 11.055,0.0351 22.098,0.75 33.066,2.1445 2.332,0.34766 4.7031,-0.26172 6.582,-1.6836 1.875,-1.4258 3.0977,-3.5469 3.3906,-5.8867 0.29297,-2.3359 -0.37109,-4.6953 -1.8398,-6.5391 -1.46871,-1.8438 -3.6172,-3.0156 -5.9648,-3.25 -8.6992,-1.0938 -17.266,-1.75 -25.586,-2.0898 l 0.004,-0.004 c 2.7539,-16.879 13.578,-31.352 28.988,-38.766 15.414,-7.4141 33.473,-6.8398 48.383,1.5391 14.91,8.3828 24.789,23.516 26.465,40.535 0.25781,2.6055 1.668,4.9609 3.8438,6.418 2.1797,1.4531 4.8945,1.8555 7.3984,1.0977 11.906,-3.7266 24.758,-3.0625 36.215,1.875 11.457,4.9414 20.766,13.824 26.234,25.039 5.4648,11.215 6.7305,24.02 3.5625,36.086 -34.117,-31.109 -75.309,-53.422 -120.01,-64.996 -4.6797,-1.207 -9.4531,1.6094 -10.66,6.2891 -1.2109,4.6797 1.6055,9.4531 6.2852,10.66 40.18,10.363 77.383,29.969 108.64,57.262 -2.3633,5.8594 -4.1367,11.938 -5.293,18.148 -3.6289,20.562 -15.277,38.848 -32.383,50.824 -17.105,11.98 -38.27,16.672 -58.836,13.051 l -34.477,-6.125 c -2.5508,-0.44922 -4.7695,-2.0039 -6.0625,-4.2461 -1.293,-2.2422 -1.5273,-4.9453 -0.64062,-7.375 1.875,-4.1211 6.3672,-6.3789 10.789,-5.4258 l 7.5586,1.3281 0.004,0.004 c 11.42599,2.0156 23.18799,-0.58984 32.695,-7.2461 9.50389,-6.6562 15.977,-16.816 17.99199,-28.246 0.83594,-4.7578 -2.3398,-9.293 -7.0977,-10.133 l -41.5,-7.2695 c -16.78899,-2.9375 -34.07,0.33594 -48.621,9.207 -14.551,8.875 -25.370995,22.742 -30.444995,39.012 -1.082,3.4414 -1.9336,6.9492 -2.543,10.5 -2.9609,16.828 -0.78125,34.152 6.2539,49.719 1.9805,4.4102 7.160195,6.3789 11.565995,4.4023 4.41021,-1.9805 6.3828,-7.1602 4.4023,-11.566 -5.6016,-12.363 -7.3516,-26.129 -5.0234,-39.5 z m 161,-159.58 c -8.2461,-1.7109 -16.734,-1.9297 -25.059,-0.63672 -4.9102,-20.043 -18.414,-36.895 -36.902,-46.059 -18.488,-9.1602 -40.074,-9.6992 -58.996,-1.4727 18.223,-20.391 44.27,-32.047 71.617,-32.043 27.051,0.13672 53.164,9.9219 73.648,27.59 20.48,17.672 33.988,42.07 38.09,68.809 l 9.082,61.25 c 0.51953,3.1289 0.008,6.3359 -1.4531,9.1523 -1.4609,2.8125 -3.793,5.0742 -6.6484,6.4492 -3.9219,2.0039 -8.5312,2.1797 -12.594,0.47266 7.5273,-19.113 6.2109,-40.574 -3.5938,-58.625 -9.8047,-18.047 -27.09,-30.836 -47.215,-34.93 z"
       id="path5451"
       style="fill:#14121f;fill-opacity:1" />
    <path
       d="m 609.11,152.94 c -2.5703,-4.5117 -7.0195,-7.6445 -12.137,-8.5391 l -17.648,-3.1133 v -0.004 c -4.7578,-0.83984 -9.3008,2.3359 -10.141,7.0977 -0.83984,4.7578 2.3359,9.3008 7.0977,10.141 l 17.648,3.1133 -3.1133,8.3281 -13.887,-2.4414 -0.004,0.004 c -2.3086,-0.46094 -4.7031,0.0273 -6.6484,1.3555 -1.9414,1.3281 -3.2695,3.3828 -3.6797,5.7031 -0.41016,2.3164 0.13281,4.7031 1.5039,6.6172 1.3711,1.9141 3.4531,3.1953 5.7812,3.5547 l 10.703,1.8906 -4.375,11.621 -0.004,-0.004 c -1.4609,5.0703 -4.1289,9.707 -7.7773,13.52 l -20.938,-15.531 c -4.3711,-3.2461 -9.6484,-5.0312 -15.09,-5.1055 -5.4414,-0.0742 -10.766,1.5703 -15.223,4.6953 -3.957,2.7695 -4.9219,8.2266 -2.1523,12.188 2.7734,3.9609 8.2305,4.9258 12.191,2.1523 2.9688,-2.082 6.9375,-2.0312 9.8516,0.13281 l 15.391,11.375 c -5.7734,1.8281 -11.898,2.2461 -17.867,1.2227 l -49.875,-8.793 -8.6094,-1.5234 c -4.5703,-0.80469 -8.6328,-3.3906 -11.297,-7.1914 -2.6641,-3.8008 -3.707,-8.5039 -2.9062,-13.074 0.46094,-2.3086 -0.0274,-4.7031 -1.3555,-6.6484 -1.3281,-1.9414 -3.3828,-3.2695 -5.7031,-3.6797 -2.3164,-0.41016 -4.7031,0.13281 -6.6172,1.5039 -1.9141,1.3711 -3.1914,3.4531 -3.5508,5.7812 -1.6133,9.1406 0.47266,18.547 5.793,26.152 5.3242,7.6055 13.449,12.781 22.59,14.395 l -4.5664,26.086 c -14.488,3.1484 -28.215,9.125 -40.391,17.586 -1.5234,1.0664 -3.0469,2.25 -4.5859,3.5 -4.6133,-3.7109 -10.352,-5.7422 -16.273,-5.7578 -4.832,0 -8.75,3.918 -8.75,8.75 0,4.832 3.918,8.75 8.75,8.75 2.3203,0 4.5469,0.92188 6.1875,2.5625 1.6406,1.64062 2.5625,3.8672 2.5625,6.1875 0,4.4375 3.3242,8.1719 7.7344,8.6875 l 52.77,6.125 h 0.004 c 6.6406,0.68359 12.512,4.6172 15.668,10.5 0.11719,0.32422 0.25,0.64062 0.40234,0.94531 h -85.328 c -4.6406,0 -9.0938,-1.8438 -12.375,-5.125 -3.2812,-3.2812 -5.125,-7.7344 -5.125,-12.375 0,-4.832 -3.918,-8.75 -8.75,-8.75 -4.832,0 -8.75,3.918 -8.75,8.75 0.0352,10.344 4.6758,20.137 12.66,26.715 -1.4844,4.5859 -2.6719,9.2617 -3.5508,14 l -7,39.945 c -7.8633,-6.8516 -17.93,-10.641 -28.359,-10.668 -4.832,0 -8.75,3.918 -8.75,8.75 0,4.832 3.918,8.75 8.75,8.75 6.9609,0 13.641,2.7656 18.562,7.6875 4.921,4.9219 7.6875,11.602 7.6875,18.562 v 78.75 c 0,2.3203 0.92188,4.5469 2.5625,6.1875 1.64062,1.6406 3.8672,2.5625 6.1875,2.5625 h 8.75 c 5.4258,0.008 10.719,1.6914 15.152,4.8242 4.4297,3.1328 7.7852,7.5625 9.6016,12.676 h -51.004 c -6.9609,0 -13.641,-2.7656 -18.562,-7.6875 -4.921,-4.9219 -7.6875,-11.602 -7.6875,-18.562 v -52.5 c 0,-2.3203 -0.92188,-4.5469 -2.5625,-6.1875 -1.64062,-1.6406 -3.8672,-2.5625 -6.1875,-2.5625 -6.9609,0 -13.641,-2.7656 -18.562,-7.6875 -4.921,-4.9219 -7.6875,-11.602 -7.6875,-18.562 0,-4.832 -3.918,-8.75 -8.75,-8.75 -4.832,0 -8.75,3.918 -8.75,8.75 0.0391,6.0078 1.3242,11.938 3.7812,17.422 -44.684,-6.3555 -90.242,0.99219 -130.66,21.078 -0.875,-0.15625 -1.75,-0.30469 -2.7656,-0.55859 -10.359,-2.3125 -20.023,-7.0547 -28.191,-13.836 -3.7422,-2.918 -9.1289,-2.3203 -12.141,1.3477 -3.0117,3.668 -2.5508,9.0664 1.0352,12.172 10.219,8.4922 22.305,14.438 35.266,17.352 1.3906,0.35156 2.9141,0.64063 4.3047,0.875 l 129.37,22.777 v 8.8711 c 0.0156,11.598 4.6289,22.719 12.828,30.922 8.2031,8.1992 19.324,12.812 30.922,12.828 h 96.25 c 2.3203,0 4.5469,-0.92188 6.1875,-2.5625 1.6406,-1.64062 2.5625,-3.8672 2.5625,-6.1875 -0.0156,-11.598 -4.6289,-22.719 -12.828,-30.922 -8.2031,-8.1992 -19.324,-12.812 -30.922,-12.828 v -70 c -0.0586,-4.0352 -0.68359,-8.0391 -1.8555,-11.898 0.64844,-2.0938 1.1758,-4.2266 1.5742,-6.3789 l 9.1289,-51.723 c 0.57031,-3.1758 1.3047,-6.3164 2.2031,-9.4141 2.125,0.42187 4.2852,0.64453 6.4492,0.66406 h 46.191 l -3.1484,17.887 c -0.50781,2.8867 -1.207,5.7148 -1.8984,8.5469 l -25.473,-4.4883 c -4.7617,-0.83984 -9.3008,2.3359 -10.141,7.0977 -0.84375,4.7578 2.3359,9.2969 7.0938,10.141 l 23.309,4.1055 0.004,-0.004 c -3.1719,8.2578 -7.1133,16.191 -11.777,23.703 l -10.5,-8.6992 v 0.004 c -1.7734,-1.5703 -4.1094,-2.3516 -6.4688,-2.168 -2.3594,0.17969 -4.5469,1.3125 -6.0586,3.1328 -1.5117,1.8242 -2.2227,4.1797 -1.9688,6.5312 0.25391,2.3555 1.4531,4.5039 3.3203,5.9609 l 11.516,9.625 c -5.4805,6.8203 -11.59,13.113 -18.254,18.785 -3.6875,3.125 -4.1406,8.6484 -1.0195,12.336 3.125,3.6836 8.6484,4.1406 12.336,1.0195 27.961,-23.711 46.766,-56.441 53.164,-92.543 l 3.7266,-20.973 h 29.574 c 1.9609,1.2617 3.4492,3.1367 4.2383,5.3281 0.91016,2.7188 0.69531,5.6914 -0.59766,8.25 -1.0391,2.0781 -1.207,4.4844 -0.47266,6.6836 0.73438,2.2031 2.3164,4.0234 4.3945,5.0625 1.2109,0.60938 2.5508,0.92578 3.9102,0.92578 3.332,0.0195 6.3828,-1.8516 7.875,-4.8281 2.9336,-5.8789 3.7344,-12.59 2.2695,-18.992 -1.4688,-6.3984 -5.1133,-12.094 -10.312,-16.105 l 0.30469,-0.0625 h 0.004 c 3.6055,-0.73438 7.3555,-0.26172 10.668,1.3477 3.3086,1.6094 6,4.2617 7.6523,7.5508 2.1602,4.3281 7.418,6.082 11.742,3.9219 4.3281,-2.1602 6.082,-7.418 3.9219,-11.742 -3.3867,-6.7344 -8.8945,-12.168 -15.676,-15.461 -6.7812,-3.293 -14.457,-4.2617 -21.844,-2.7578 l -3.332,0.69141 c -0.55859,-0.8125 -1.1445,-1.5938 -1.75,-2.3555 h -0.004 c 3.0352,-4.2383 8.6875,-5.6641 13.371,-3.375 4.3242,2.1602 9.582,0.40625 11.742,-3.9219 2.1602,-4.3242 0.40625,-9.582 -3.918,-11.742 -5.9297,-2.9453 -12.703,-3.7266 -19.145,-2.1992 -6.4414,1.5273 -12.145,5.2617 -16.117,10.555 -3.2812,-1.4531 -6.7539,-2.4258 -10.309,-2.8867 l 10.973,-62.211 41.273,7.2695 c 12.914,2.457 26.281,0.0977 37.574,-6.6328 11.293,-6.7266 19.73,-17.359 23.719,-29.891 l 13.441,-35.875 c 1.8164,-4.8906 1.3516,-10.34 -1.2617,-14.855 z m -311.68,294.04 14,2.4688 c 3.8398,2.1797 7.9922,3.7539 12.312,4.6719 v 20.371 c -7.6836,0.4375 -15.387,0.24609 -23.039,-0.57812 0.32422,-4.5312 -2.8711,-8.5547 -7.3594,-9.2656 -4.4844,-0.71094 -8.7656,2.1289 -9.8594,6.5352 l -25.855,-4.5586 c 0.83594,-4.7617 -2.3477,-9.2969 -7.1055,-10.133 -4.7617,-0.83594 -9.2969,2.3438 -10.133,7.1055 l -46.645,-8.2266 h -0.004 c 33.273,-11.645 68.98,-14.535 103.69,-8.3906 z m 8.8125,51.766 v -6.8945 c 3.2539,0.20312 6.5,0.42188 9.7734,0.42188 2.5742,0 5.1523,-0.24609 7.7266,-0.36719 v 6.8398 c 0.0312,9.4961 3.1875,18.723 8.9766,26.25 h -0.22656 c -6.9609,0 -13.641,-2.7656 -18.562,-7.6875 -4.921,-4.9219 -7.6875,-11.602 -7.6875,-18.562 z m 162.92,-224 -3.2109,18.254 -26.574,-3.0977 c 0.875,-0.70703 1.8477,-1.4531 2.7461,-2.0898 v -0.004 c 8.2695,-5.7461 17.395,-10.152 27.039,-13.062 z"
       id="path5453"
       style="fill:#14121f;fill-opacity:1" />
    <path
       d="m 499.37,153.84 c -0.61719,3.4844 0.92969,6.9961 3.9141,8.8984 2.9844,1.9023 6.8242,1.8203 9.7227,-0.21094 2.8984,-2.0312 4.2891,-5.6094 3.5234,-9.0625 -0.76953,-3.457 -3.543,-6.1094 -7.0273,-6.7227 -4.7578,-0.83594 -9.293,2.3398 -10.133,7.0977 z"
       id="path5455"
       style="fill:#14121f;fill-opacity:1" />
    <path
       d="m 378.73,132.57 25.375,4.4805 c 14.602,2.5312 27.582,10.797 36.051,22.961 4.6016,6.6523 12.156,10.652 20.246,10.719 h 0.35937 c 7.9648,0.0391 15.469,-3.7383 20.188,-10.16 3.9336,-5.3203 5.6172,-11.977 4.6758,-18.527 -0.9375,-6.5508 -4.418,-12.469 -9.6914,-16.473 12.77,-1.9609 25.785,1.4531 35.945,9.4336 l 7.6484,5.75 c 8.4883,6.5664 18.441,10.984 29.004,12.879 0.50781,0.0859 1.0195,0.12891 1.5312,0.13281 4.5391,0 8.3281,-3.4688 8.7227,-7.9922 0.39453,-4.5234 -2.7344,-8.5938 -7.207,-9.3789 -7.8516,-1.4219 -15.238,-4.7266 -21.535,-9.625 l -7.6641,-5.7578 c -9.207,-7.1055 -20.156,-11.609 -31.699,-13.039 -11.543,-1.4336 -23.262,0.26172 -33.926,4.9023 -16.633,-8.3281 -35.805,-10.051 -53.656,-4.8203 l -25.297,7.5234 c -3.8867,1.1602 -6.4648,4.8359 -6.2344,8.8867 0.23047,4.0469 3.2148,7.4062 7.207,8.1133 z m 78.516,0.91797 8.043,5.9688 h -0.004 c 3.3867,2.5156 4.0938,7.2969 1.582,10.684 -1.4414,1.9961 -3.7734,3.1523 -6.2383,3.0898 -2.4453,-0.0312 -4.7305,-1.2422 -6.125,-3.2539 -8.7812,-12.629 -21.34,-22.152 -35.875,-27.195 13.75,-1.293 27.496,2.5195 38.613,10.707 z"
       id="path5457"
       style="fill:#14121f;fill-opacity:1" />
  </g>
</svg>
