<?xml version="1.0" encoding="UTF-8" standalone="no"?>
<svg
   width="532.64728pt"
   height="433.46222pt"
   version="1.1"
   viewBox="0 0 532.64728 433.46222"
   id="svg4691"
   sodipodi:docname="noun-horse-1029772.svg"
   xmlns:inkscape="http://www.inkscape.org/namespaces/inkscape"
   xmlns:sodipodi="http://sodipodi.sourceforge.net/DTD/sodipodi-0.dtd"
   xmlns="http://www.w3.org/2000/svg"
   xmlns:svg="http://www.w3.org/2000/svg">
  <sodipodi:namedview
     id="namedview4693"
     pagecolor="#ffffff"
     bordercolor="#111111"
     borderopacity="1"
     inkscape:showpageshadow="0"
     inkscape:pageopacity="0"
     inkscape:pagecheckerboard="1"
     inkscape:deskcolor="#d1d1d1"
     inkscape:document-units="pt"
     showgrid="false" />
  <defs
     id="defs4619" />
  <g
     id="g4689"
     transform="translate(-90.342504,-74.40403)">
    <path
       d="m 591.47,373.97 c -4.8164,-3.6953 -5.0391,-14.449 -5.6016,-28 0.39062,-19.277 -2.4297,-38.488 -8.3438,-56.84 -16.07,-45.586 -63.336,-45.305 -89.938,-37.969 -17.805,-32.762 -71.398,-34.047 -142.07,-31.473 -12.734,0.58984 -25.477,-0.98438 -37.688,-4.6484 24.863,-6.1055 29.512,-29.902 32.535,-45.473 0.60937,-3.6875 1.4492,-7.3359 2.5195,-10.918 l 4.9297,-14.113 -12.992,7.3906 c -12.824,7.4492 -19.488,7.3398 -67.816,-45.527 -42.672,-46.648 -102.43,-27.664 -119.79,-20.719 -5.6016,-7.4492 -17.191,-15.062 -37.406,-9.1836 l -8.0625,2.3516 5.2656,6.5508 c 12.543,15.566 10.246,24.305 6.8867,37.52 l -0.004,0.004 c -2.1836,7.375 -3.4453,14.992 -3.75,22.68 -1.1953,20.992 -4.0781,41.852 -8.625,62.383 -2.023396,4.7266 -1.816396,10.113 0.5625,14.672 4.3672,7.2812 14.336,8.8477 26.207,10.754 v -0.004 c 7.1445,1.3984 14.547,-0.33594 20.328,-4.7578 7.875,-7.293 12.344,-17.547 12.32,-28.281 0.55078,-4.4492 2.4609,-8.6172 5.4688,-11.945 3.0039,-3.3242 6.9609,-5.6445 11.328,-6.6445 2.1836,0 2.3516,0.44922 2.4648,0.67188 2.8203,14.668 2.8203,29.738 0,44.406 -2.8555,17.117 -3.0469,34.57 -0.55859,51.746 -16.801,1.8477 -64.23,8.625 -85.733996,28 l -1.5664,1.3984 0.05078,3.3047 c -10.359,93.07 20.555006,122.81 48.328006,131.38 l 3.8633,1.1758 2.3516,-3.3047 h 0.004 c 6.9219,-9.7148 11.277,-21.02 12.656,-32.871 l 0.39063,-6.3281 -6.3281,0.33594 c -2.8242,0.21875 -5.6367,-0.55469 -7.9531,-2.1836 0,-0.33594 -1.1211,-1.2305 -0.67188,-4.0898 l 1.0625,-6.7773 -6.832,0.33594 c -1.1211,0 -2.8008,-1.2305 -4.3672,-3.5273 v 0.004 c -6.8438,-12.805 -9.3594,-27.48 -7.168,-41.832 3.6953,0 8.8477,0.67187 14.559,1.1758 18.535,1.6797 43.23,3.9219 61.207,0.55859 36.23,78.398 41.215,113.46 38.414,122.75 -18.137,7.8945 -20.715,29.957 -20.715,30.965 l -0.61719,6.1602 h 41.215 l -0.44922,-5.9922 c 0,-3.6953 9.0156,-12.266 17.527,-17.473 l 3.2461,-1.9609 -0.55469,-3.8047 c -5.9922,-36.344 -13.441,-90.945 -13.441,-115.64 h 0.004 c 16.457,4.9141 33.508,7.5508 50.68,7.8398 12.34,0.25391 24.602,-1.9727 36.062,-6.5508 2.125,18.07 7.3125,35.645 15.344,51.969 -19.711,18.59 -39.816,79.184 -42.223,86.742 l -2.3516,7.3359 h 60.254 l -3.5859,-35.391 39.199,-44.801 0.004,-1.9023 c 0.72656,-14.516 4.7695,-28.672 11.816,-41.387 42.449,15.344 49.281,68.488 50.398,82.824 -12.824,7.6172 -17.473,31.305 -18.031,34.215 l -1.1758,6.6094 h 47.488 l 1.2891,-3.7539 c 3.0234,-8.5664 8.625,-18.594 12.266,-19.938 l 7.168,-2.6875 -4.7031,-5.9922 c -11.199,-14.391 -12.207,-43.566 -12.938,-64.848 0,-7.7266 -0.44922,-14.449 -1.1211,-19.488 l -0.28125,-2.3516 -1.9023,-1.3984 c -17.863,-13.273 -19.32,-56.336 -18.312,-73.246 1.7852,-11.559 2.2383,-23.281 1.3438,-34.945 24.137,11.199 24.191,32.703 24.191,59.414 0,16.801 0,36.176 6.8867,54.152 v 0.004 c 2.8477,8.4961 8.332,15.863 15.652,21.031 7.3242,5.1641 16.102,7.8633 25.062,7.6953 2.4727,0 4.9414,-0.16797 7.3906,-0.50391 24.414,-3.3594 46.535,-22.398 48.273,-40.992 l 0.72656,-7.8398 -7.6172,1.8477 c -12.32,2.8008 -20.215,2.8008 -23.91,-0.0547 z M 258.72,113.9 c 39.594,43.344 54.938,56 70.895,52.305 v 1.2305 c -3.8086,19.711 -8.1758,41.945 -44.016,37.184 -26.207,-16.801 -40.32,-45.414 -52.586,-70.113 -2.8008,-5.6016 -5.6016,-10.922 -8.0625,-15.734 l 0.004,0.004 c -9.1172,-16.309 -25.145,-27.598004 -43.57,-30.688004 23.016,-3.1953 53.258,-0.5625 77.336,25.812004 z M 143.25,333.59 c -6.6328,-0.80859 -13.309,-1.2188 -19.988,-1.2344 h -3.4141 l -1.3438,3.1367 c -5.9375,13.664 -2.2383,42.504 7.168,56 h -0.004 c 2.0078,3.1367 4.8594,5.6406 8.2305,7.2227 0.18359,3.0625 1.3438,5.9883 3.3047,8.3438 2.707,2.7656 6.2148,4.6055 10.023,5.2656 -1.4688,6.4609 -3.9648,12.641 -7.3906,18.312 -30.633,-12.375 -43.343997,-52.586 -36.23,-117.04 20.105,-16.801 64.23,-22.398 78.848,-24.137 3.8281,15.637 9.3086,30.824 16.352,45.305 -18.508,1.5391 -37.125,1.1445 -55.555,-1.1758 z m 267.01,89.602 -39.594,45.473 2.8008,28 -32.309,-0.004 c 9.8555,-28.617 27.273,-69.496 39.199,-76.609 l 5.6016,-3.1914 -3.7539,-4.9844 c -7,-9.293 -24.582,-59.078 -12.656,-77.613 l -9.4062,-6.1055 c -3.7461,6.5234 -5.6758,13.926 -5.6016,21.449 -28,14.84 -71.23,3.6953 -85.176,-0.55859 v -0.004 c 3.25,-10.879 5.5,-22.031 6.7188,-33.32 l -11.199,-0.89453 c -1.1992,10.758 -3.375,21.387 -6.4961,31.754 -5.6016,18.703 8.1758,106.4 11.648,127.62 -5.9375,3.9766 -15.566,11.199 -18.648,19.77 l -17.582,-0.004 c 1.8594,-7.3359 7.0352,-13.387 14,-16.352 l 1.9023,-0.67188 1.0625,-1.6797 c 13.551,-22.398 -24.754,-108.64 -41.832,-144.7 -23.801,-50.398 -20.441,-76.719 -17.191,-102.26 2.9883,-16.102 2.8164,-32.629 -0.50391,-48.664 -1.7461,-6.2969 -8.0195,-10.215 -14.445,-9.0156 -7.0312,1.2266 -13.469,4.7109 -18.336,9.9258 -4.8711,5.2148 -7.9102,11.875 -8.6562,18.969 0.13281,7.582 -2.7695,14.902 -8.0664,20.328 -3.4336,2.5039 -7.7891,3.3867 -11.926,2.4102 -7.7266,-1.2305 -16.406,-2.6328 -18.09,-5.6016 -0.78516,-1.3438 0,-4.0898 0.50391,-5.6016 v -0.61719 0.004 c 4.8125,-21.332 7.8672,-43.02 9.1289,-64.848 0.27344,-6.8359 1.4023,-13.609 3.3594,-20.16 3.1367,-12.266 6.1602,-23.969 -3.7539,-39.984003 14.113,-1.1758 18.145,7.8945 18.594,9.0156 l 1.625,4.4805 4.6484,-0.83984 c 0.50391,0 50.398,-8.793 69.047,25.816003 2.5742,4.7617 5.1523,9.9688 7.8398,15.398 19.77,39.762 46.984,94.191 123.2,91.391 90.551,-3.3047 134.4,2.5195 137.14,44.465 3.5273,49.953 -8.0625,64.68 -37.07,80.641 -30.969,17.246 -35.168,57.512 -35.727,67.312 z m 92.566,-28.504 c 0.39063,4.3125 0.61719,9.8555 0.78516,16.184 0.67188,20.832 1.625,48.664 11.984,66.527 l 0.004,-0.004 c -5.0781,5.5859 -9.0508,12.086 -11.707,19.152 h -25.871 c 2.6328,-9.1289 7.3359,-19.266 12.602,-20.609 l 4.1992,-1.0625 v -4.4805 c 0,-0.78516 -0.67188,-73.754 -54.602,-95.816 v 0.004 c 3.2461,-3.5078 7.0273,-6.4727 11.199,-8.793 12.16,-6.0039 22.789,-14.699 31.082,-25.426 1.625,18.93 6.5508,42.336 20.328,54.266 z m 69.328,15.121 0.004,-0.004 c -7.5625,1.5156 -15.418,0.20703 -22.078,-3.6875 -6.6562,-3.8906 -11.652,-10.09 -14.043,-17.426 -6.1602,-16.016 -6.1602,-33.602 -6.1055,-50.398 0,-29.062 0,-59.078 -36.68,-72.016 -0.29688,-1.6445 -0.67188,-3.2305 -1.1211,-4.7617 15.734,-3.9219 60.312,-11.199 75.152,31.137 h 0.004 c 5.4766,17.246 8.0664,35.277 7.6719,53.367 0.33594,16.801 0.61719,29.625 9.7422,36.625 5.6016,4.1445 12.879,5.6016 23.742,3.7539 l 0.004,-0.004 c -7.9961,12.848 -21.34,21.418 -36.344,23.355 z"
       id="path4621"
       style="fill:#ffffff" />
  </g>
</svg>
