<?xml version="1.0" encoding="UTF-8" standalone="no"?>
<svg
   width="547.75pt"
   height="490.94473pt"
   version="1.1"
   viewBox="0 0 547.75 490.94473"
   id="svg5110"
   sodipodi:docname="noun-kingdom-4377829.svg"
   xmlns:inkscape="http://www.inkscape.org/namespaces/inkscape"
   xmlns:sodipodi="http://sodipodi.sourceforge.net/DTD/sodipodi-0.dtd"
   xmlns="http://www.w3.org/2000/svg"
   xmlns:svg="http://www.w3.org/2000/svg">
  <sodipodi:namedview
     id="namedview5112"
     pagecolor="#ffffff"
     bordercolor="#111111"
     borderopacity="1"
     inkscape:showpageshadow="0"
     inkscape:pageopacity="0"
     inkscape:pagecheckerboard="1"
     inkscape:deskcolor="#d1d1d1"
     inkscape:document-units="pt"
     showgrid="false" />
  <defs
     id="defs5060" />
  <g
     id="g5108"
     transform="translate(-76.2131,-35.988894)">
    <path
       d="m 615.21,509.43 h -12.688 v -342.3 l 15.227,-45.586 c 0.30078,-1.2969 0.30078,-2.6445 0,-3.9375 v -20.738 c 0.58984,-2.5977 -0.0312,-5.3203 -1.6914,-7.4023 -1.6602,-2.082 -4.1758,-3.293 -6.8398,-3.293 -2.664,0 -5.1797,1.2109 -6.8398,3.293 -1.6602,2.082 -2.2812,4.8047 -1.6914,7.4023 v 13.477 l -15.312,-0.004 V 96.868594 c 0.58984,-2.5977 -0.0312,-5.3203 -1.6914,-7.4023 -1.6602,-2.082 -4.1758,-3.293 -6.8398,-3.293 -2.664,0 -5.1797,1.2109 -6.8398,3.293 -1.6602,2.082 -2.2812,4.8047 -1.6914,7.4023 v 13.476996 l -17.062,-0.004 V 96.868688 c 0.58984,-2.5977 -0.0312,-5.3203 -1.6914,-7.4023 -1.6602,-2.082 -4.1758,-3.293 -6.8398,-3.293 -2.664,0 -5.1797,1.2109 -6.8398,3.293 -1.6602,2.082 -2.2812,4.8047 -1.6914,7.4023 v 13.477002 h -17.5 V 96.868688 c 0,-4.832 -3.918,-8.75 -8.75,-8.75 -4.832,0 -8.75,3.918 -8.75,8.75 v 20.301002 c -0.30078,1.293 -0.30078,2.6406 0,3.9375 l 15.227,45.586 v 117.69 h -47.25 v -25.199 c 0,-2.3203 -0.92187,-4.5469 -2.5625,-6.1875 -1.6445,-1.6406 -3.8672,-2.5625 -6.1875,-2.5625 h -26.25 l 15.223,-66.676 c 0.0859,-1.0781 0.0859,-2.1602 0,-3.2383 v -18.988 c 0.59375,-2.5938 -0.0312,-5.3164 -1.6914,-7.3984 -1.6602,-2.082 -4.1758,-3.293 -6.8398,-3.293 -2.6602,0 -5.1797,1.2109 -6.8398,3.293 -1.6601,2.0821 -2.2812,4.8047 -1.6914,7.3984 v 11.898 l -27.824,0.004 v -10.676 c 0,-4.832 -3.918,-8.75 -8.75,-8.75 -4.832,0 -8.75,3.918 -8.75,8.75 v 10.676 h -27.125 V 97.484794 h 53.375 c 2.3203,0 4.5469,-0.92187 6.1875,-2.5625 1.6406,-1.6445 2.5625,-3.8672 2.5625,-6.1875 -0.0312,-2.3516 -1.0117,-4.5938 -2.7109,-6.2148 -14.352,-19.254 -35.684,-32.105 -59.414,-35.785 v -4.7266 c -1.1797,-3.5898 -4.5312,-6.0195 -8.3125,-6.0195 -3.7813,0 -7.1328,2.4297 -8.3125,6.0195 V 173.25839 h -26.25 v -10.5 c -0.90625,-3.9805 -4.4492,-6.8047 -8.5312,-6.8047 -4.082,0 -7.625,2.8242 -8.5312,6.8047 v 10.676 h -28.438 v -10.676 c -0.90625,-3.9805 -4.4492,-6.8047 -8.5312,-6.8047 -4.082,0 -7.625,2.8242 -8.5312,6.8047 v 18.727 c 0.15625,2.9609 0.65625,5.8984 1.4883,8.75 1.0508,5.25 2.1875,10.586 3.2383,15.836 l 7.6133,36.574 c 0.52344,2.8008 1.1367,5.6016 1.6641,8.75 h -26.254 c -4.832,0 -8.75,3.918 -8.75,8.75 v 24.238 h -50.75 v -117.25 l 15.227,-45.586 c 0.48047,-3.0742 0.48047,-6.2031 0,-9.2773 V 96.872094 c 0.58984,-2.5977 -0.0312,-5.3203 -1.6914,-7.4023 -1.6602,-2.082 -4.1797,-3.293 -6.8398,-3.293 -2.6641,0 -5.1797,1.2109 -6.8398,3.293 -1.6641,2.082 -2.2852,4.8047 -1.6914,7.4023 v 13.476996 h -15.75 V 96.872094 c 0.58984,-2.5977 -0.0312,-5.3203 -1.6914,-7.4023 -1.6602,-2.082 -4.1797,-3.293 -6.8398,-3.293 -2.6641,0 -5.1797,1.2109 -6.8398,3.293 -1.6641,2.082 -2.2852,4.8047 -1.6914,7.4023 v 13.476996 h -17.5 V 96.872094 c 0.58984,-2.5977 -0.0312,-5.3203 -1.6914,-7.4023 -1.6602,-2.082 -4.1797,-3.293 -6.8398,-3.293 -2.6641,0 -5.1797,1.2109 -6.8398,3.293 -1.6641,2.082 -2.2852,4.8047 -1.6914,7.4023 v 13.476996 h -17.5 V 96.872094 c 0.58984,-2.5977 -0.03125,-5.3203 -1.6914,-7.4023 -1.6602,-2.082 -4.1797,-3.293 -6.8398,-3.293 -2.6641,0 -5.1797,1.2109 -6.8398,3.293 -1.6641,2.082 -2.2852,4.8047 -1.6914,7.4023 v 20.300996 c -0.30078,1.293 -0.30078,2.6406 0,3.9375 l 16.797,46.023 v 342.3 h -8.75 c -4.832,0 -8.75,3.918 -8.75,8.75 0,4.832 3.918,8.75 8.75,8.75 h 530.25 c 4.8359,0 8.75,-3.918 8.75,-8.75 0,-4.832 -3.9141,-8.75 -8.75,-8.75 z M 515.46,346.5 v 28 h -47.25 v -28 z m 0,73.062 h -16.711 v -28 h 17.062 z m -34.211,-28 V 420 H 468.21 v -28 z m 34.039,45.062 v 28 h -47.25 v -28 z m -34.039,45.062 v 27.738 H 468.21 v -27.738 z m 16.977,0 h 17.062 v 27.738 h -16.539 z m 34.125,27.738 v -335.12 h 52.5 v 335.12 z m 65.273,-382.02 -9.8008,30.098 h -57.66 l -9.9766,-29.836 z m -82.164,202.04 h -16.711 v -28 h 17.062 z m -34.211,-28 v 28 H 468.21 v -28 z M 391.999,80.424 H 357.874 V 63.971 c 12.59,2.4922 24.336,8.1562 34.125,16.453 z m -120.75,110.07 h 157.5 l -12.602,60.113 h -31.148 v -10.414 c 0,-12.504 -6.6719,-24.059 -17.5,-30.312 -10.828,-6.25 -24.172,-6.25 -35,0 -10.828,6.2539 -17.5,17.809 -17.5,30.312 v 10.414 h -31.148 z m 60.637,60.113 v -10.414 c 0,-6.4727 3.4531,-12.449 9.0586,-15.688 5.6016,-3.2344 12.508,-3.2344 18.109,0 5.6055,3.2383 9.0586,9.2148 9.0586,15.688 v 10.414 z m -55.211,17.062 h 174.47 v 241.76 H 411.247 V 412.39 c 1.8555,-17.281 -3.7188,-34.539 -15.336,-47.473 -11.617,-12.93 -28.18,-20.316 -45.562,-20.316 -17.383,0 -33.949,7.3867 -45.566,20.316 -11.617,12.934 -17.191,30.191 -15.336,47.473 v 97.039 h -40.25 v -241.76 z m -44.887,78.75 v 28 h -51.102 v -27.914 z m 0,118.12 h -51.102 v -27.914 h 51.102 z m -51.102,-73.062 h 17.062 V 420 H 180.686 Z M 231.788,420 h -16.977 v -28 h 16.977 z m -51.102,62.125 h 17.062 v 27.738 h -17.062 z m 34.125,0 h 16.977 v 27.738 h -16.977 z m 178.94,-69.738 v 97.039 h -35 v -141.93 c 10.23,2.0781 19.379,7.7422 25.797,15.973 6.418,8.2344 9.6836,18.488 9.2031,28.914 z m -52.5,97.039 h -35 v -97.039 c -0.48047,-10.426 2.7852,-20.68 9.2031,-28.914 6.418,-8.2305 15.566,-13.895 25.797,-15.973 z m -109.46,-179.99 h -16.977 v -28 h 16.977 z m -34.039,-28 v 28 H 180.69 v -28 z m -21.789,-174.04 -9.7109,30.102 h -57.926 l -9.9727,-30.102 z m -65.273,46.902 h 52.5 v 335.12 h -52.5 z"
       id="path5062"
       style="fill:#ffffff" />
    <path
       d="m 342.65,309.57 h 13.301 c 4.832,0 8.75,-3.918 8.75,-8.75 0,-4.832 -3.918,-8.75 -8.75,-8.75 H 342.65 c -4.832,0 -8.75,3.918 -8.75,8.75 0,4.832 3.918,8.75 8.75,8.75 z"
       id="path5064"
       style="fill:#ffffff" />
    <path
       d="m 278.6,309.57 h 13.387 c 4.832,0 8.75,-3.918 8.75,-8.75 0,-4.832 -3.918,-8.75 -8.75,-8.75 H 278.6 c -4.8359,0 -8.75,3.918 -8.75,8.75 0,4.832 3.9141,8.75 8.75,8.75 z"
       id="path5066"
       style="fill:#ffffff" />
    <path
       d="m 408.01,309.57 h 13.387 c 4.8359,0 8.75,-3.918 8.75,-8.75 0,-4.832 -3.9141,-8.75 -8.75,-8.75 H 408.01 c -4.832,0 -8.75,3.918 -8.75,8.75 0,4.832 3.918,8.75 8.75,8.75 z"
       id="path5068"
       style="fill:#ffffff" />
  </g>
</svg>
