<?xml version="1.0" encoding="UTF-8" standalone="no"?>
<svg
   width="547.74994pt"
   height="490.94473pt"
   version="1.1"
   viewBox="0 0 547.74994 490.94473"
   id="svg5012"
   sodipodi:docname="noun-royal-5128968.svg"
   xmlns:inkscape="http://www.inkscape.org/namespaces/inkscape"
   xmlns:sodipodi="http://sodipodi.sourceforge.net/DTD/sodipodi-0.dtd"
   xmlns="http://www.w3.org/2000/svg"
   xmlns:svg="http://www.w3.org/2000/svg">
  <sodipodi:namedview
     id="namedview5014"
     pagecolor="#ffffff"
     bordercolor="#111111"
     borderopacity="1"
     inkscape:showpageshadow="0"
     inkscape:pageopacity="0"
     inkscape:pagecheckerboard="1"
     inkscape:deskcolor="#d1d1d1"
     inkscape:document-units="pt"
     showgrid="false" />
  <defs
     id="defs4968" />
  <g
     id="g5010"
     transform="translate(-139.9974,-69.998)">
    <path
       d="m 560,218.79 c 0,-27.844 -22.688,-50.488 -50.582,-50.488 -27.894,0 -50.582,22.645 -50.582,50.488 0,5.0312 0.73437,9.8867 2.1172,14.473 l -29.375,19.109 -47.871,-94.648 c 10.113,-9.2383 16.469,-22.516 16.469,-37.238 0,-27.832 -22.688,-50.488 -50.582,-50.488 -27.894,0 -50.582,22.645 -50.582,50.488 0,14.797 6.4062,28.121 16.598,37.371 l -47.246,94.488 -29.32,-19.082 c 1.375,-4.5859 2.1172,-9.4492 2.1172,-14.473 0,-27.844 -22.688,-50.488 -50.582,-50.488 -27.894,0 -50.582,22.645 -50.582,50.488 0,24.953 18.227,45.734 42.098,49.77 l 8.3906,113.98 h -25.418 v 24.605 h 27.238 l 4.2891,58.238 h -23.309 l -0.008,24.625 h 353.43 v -24.605 h -23.309 l 4.2891,-58.238 h 27.238 V 382.56 h -25.418 l 8.3906,-113.98 c 23.867,-4.043 42.102,-24.836 42.102,-49.789 z M 349.59,94.62 c 14.297,0 25.926,11.609 25.926,25.875 0,14.27 -11.629,25.883 -25.926,25.883 -14.297,0 -25.926,-11.621 -25.926,-25.883 0,-14.273 11.629,-25.875 25.926,-25.875 z M 190.58,244.67 c -14.289,0 -25.926,-11.602 -25.926,-25.875 0,-14.262 11.637,-25.875 25.926,-25.875 14.297,0 25.926,11.609 25.926,25.875 0.004,14.27 -11.637,25.875 -25.926,25.875 z M 478.69,465.4 H 221.31 l -4.2891,-58.238 h 265.94 z m 6.0977,-82.852 h -269.57 l -8.5312,-115.89 c 7.5078,-2.5195 14.234,-6.7539 19.703,-12.242 l 51.688,33.625 59.273,-118.56 c 3.9219,0.98047 8.0234,1.4961 12.234,1.4961 4.2773,0 8.4453,-0.53516 12.418,-1.5391 l 59.973,118.57 51.625,-33.59 c 5.4766,5.4844 12.199,9.7227 19.715,12.242 z m 24.633,-137.88 c -14.297,0 -25.926,-11.602 -25.926,-25.875 0,-14.262 11.637,-25.875 25.926,-25.875 14.289,0 25.926,11.609 25.926,25.875 0,14.27 -11.629,25.875 -25.926,25.875 z"
       id="path4970"
       style="fill:#14121f;fill-opacity:1" />
  </g>
</svg>
