<?xml version="1.0" encoding="UTF-8" standalone="no"?>
<svg
   width="306.03699pt"
   height="405.44101pt"
   version="1.1"
   viewBox="0 0 306.03699 405.44101"
   id="svg2640"
   sodipodi:docname="noun-sparkle-4730820.svg"
   xmlns:inkscape="http://www.inkscape.org/namespaces/inkscape"
   xmlns:sodipodi="http://sodipodi.sourceforge.net/DTD/sodipodi-0.dtd"
   xmlns="http://www.w3.org/2000/svg"
   xmlns:svg="http://www.w3.org/2000/svg">
  <sodipodi:namedview
     id="namedview2642"
     pagecolor="#ffffff"
     bordercolor="#111111"
     borderopacity="1"
     inkscape:showpageshadow="0"
     inkscape:pageopacity="0"
     inkscape:pagecheckerboard="1"
     inkscape:deskcolor="#d1d1d1"
     inkscape:document-units="pt"
     showgrid="false" />
  <defs
     id="defs2564" />
  <g
     id="g2638"
     transform="translate(-197.007,-77.284)">
    <path
       d="m 251.44,188.78 c 24.527,-2.3516 41.887,-14.953 56.281,-32.199 18.816,-22.512 28.785,-48.887 32.258,-77.84 0,-0.44922 0.22266,-0.89453 0.33594,-1.457 2.4648,29.176 12.711,55.273 30.91,77.953 14.449,17.977 32.258,31.023 57.457,33.543 -6.3828,1.5117 -11.703,2.3516 -16.688,4.0898 -20.383,7.1133 -35.281,21.168 -47.152,38.695 -14.113,20.945 -22.512,44.016 -24.641,69.328 -2.1289,-21.391 -8.5117,-41.441 -19.152,-60.031 -12.266,-21.391 -28.336,-38.863 -52.023,-47.711 -5.2656,-1.9609 -10.922,-2.8008 -17.586,-4.4258 z"
       id="path2566" />
    <path
       d="m 337.46,369.6 c 38.414,-8.9023 55.16,-37.016 64.512,-71.793 0.61719,-2.2969 0.83984,-4.7031 1.2891,-7.0547 0.39063,-2.3516 0.78516,-4.7031 0.89453,-6.7773 7.2812,40.375 22.734,74.258 66.023,85.566 -20.16,2.6875 -35.113,15.23 -46.703,32.426 -10.863,16.07 -17.414,33.77 -18.93,53.48 -5.4883,-49.504 -37.129,-83.719 -66.977,-85.848 z"
       id="path2568" />
    <path
       d="m 294.28,339.25 c -30.801,9.7422 -42.449,34.105 -48.328,62.945 -5.7695,-29.008 -17.586,-53.031 -48.945,-63.168 14.953,-3.0781 25.48,-11.762 33.711,-23.465 8.1758,-11.703 13.328,-24.586 15.062,-38.977 6.2148,28.672 17.586,53.199 48.551,62.664 z"
       id="path2570" />
    <path
       d="m 502.99,242.54 c -20.832,6.6094 -28.727,23.07 -32.703,42.559 -3.9219,-19.656 -11.871,-35.84 -33.098,-42.727 10.137,-2.0703 17.246,-7.9531 22.793,-15.902 5.543,-7.8945 9.0156,-16.633 10.191,-26.32 4.1992,19.375 11.871,36.008 32.871,42.391 z"
       id="path2572" />
    <path
       d="m 337.34,447.78 c -17.078,5.4336 -23.574,18.93 -26.824,34.945 -3.1914,-16.129 -9.7422,-29.398 -27.16,-35.055 8.2891,-1.7344 14.168,-6.5508 18.703,-13.047 4.535,-6.4962 7.3906,-13.664 8.3438,-21.617 3.4141,15.902 9.7422,29.566 26.938,34.777 z"
       id="path2574" />
    <path
       style="fill:#000080;fill-opacity:1;stroke-width:1.23784"
       d="m 190.75467,290.46853 c -0.0698,-0.57386 -1.23991,-6.50497 -2.60024,-13.18025 -6.37062,-31.26118 -22.4636,-64.55788 -42.7181,-88.38468 -14.9236,-17.55567 -39.0266,-32.90609 -59.012069,-37.58289 l -9.508542,-2.22508 10.731907,-2.77431 c 21.301154,-5.50656 35.090184,-14.03677 53.038024,-32.81054 25.96129,-27.155989 41.53966,-59.656705 49.36513,-102.989118 0.82882,-4.5894255 1.05761,-4.0012652 3.12986,8.045977 6.04135,35.122142 23.40427,69.864636 47.52131,95.088191 17.49234,18.29491 32.7262,27.61469 53.53523,32.75183 l 10.83068,2.67377 -4.9212,1.06894 c -25.31515,5.4987 -46.95381,18.69677 -64.13494,39.11782 -23.02486,27.36675 -37.65607,58.60502 -43.54009,92.95993 -0.87453,5.1061 -1.64716,8.81429 -1.71696,8.24041 z"
       id="path2782"
       transform="matrix(0.75,0,0,0.75,197.007,77.284)" />
    <path
       style="fill:#000080;fill-opacity:1;stroke-width:1.23784"
       d="m 274.94692,490.71659 c -3.22475,-19.19156 -12.64121,-42.46229 -23.88787,-59.03363 -14.34319,-21.13393 -36.66214,-37.57894 -55.89972,-41.18793 l -4.54843,-0.85329 9.80841,-3.39634 c 28.6496,-9.92044 49.2781,-30.47649 63.35826,-63.1357 4.60819,-10.68878 9.90321,-27.76093 11.71984,-37.78698 0.88554,-4.88734 0.93185,-4.80731 3.58148,6.18922 7.60475,31.56141 17.82506,52.36748 33.96841,69.15149 12.17199,12.65504 26.00117,21.44631 41.26678,26.23344 l 7.09924,2.22625 -8.3671,2.65281 c -12.67553,4.01881 -23.11503,10.13549 -32.89251,19.27231 -20.94508,19.57266 -37.59308,51.10785 -42.04217,79.63765 l -1.52577,9.78403 z"
       id="path2784"
       transform="matrix(0.75,0,0,0.75,197.007,77.284)" />
    <path
       style="fill:#000080;fill-opacity:1;stroke-width:1.23784"
       d="m 362.30079,266.77096 c -5.25107,-19.73252 -16.70775,-35.10451 -31.86619,-42.75647 l -7.89444,-3.9851 6.39323,-2.38488 c 8.11617,-3.0276 17.10405,-11.08968 23.7709,-21.32235 5.04768,-7.74749 11.05007,-22.30014 11.28352,-27.35664 0.0628,-1.36163 1.07298,0.87073 2.24472,4.9608 4.04451,14.11783 9.52023,23.83598 18.41745,32.68679 5.19026,5.16318 10.59483,9.22896 14.24016,10.71268 3.23132,1.3152 5.8772,2.67305 5.87976,3.01744 0.003,0.34439 -2.68234,1.85884 -5.96642,3.36544 -8.0676,3.70109 -17.01131,11.80545 -22.64182,20.51693 -4.06863,6.29496 -10.08374,21.62062 -11.22911,28.61018 -0.21334,1.30194 -1.39764,-1.42723 -2.63176,-6.06482 z"
       id="path2786"
       transform="matrix(0.75,0,0,0.75,197.007,77.284)" />
    <path
       style="fill:#000080;fill-opacity:1;stroke-width:1.23784"
       d="M 64.451593,428.12256 C 64.24458,423.112 57.574475,403.31335 52.947908,393.97655 43.673121,375.25925 27.830369,359.84977 10.459177,352.64982 c -3.7101073,-1.53776 -6.7456491,-3.12884 -6.7456491,-3.53574 0,-0.40691 2.587661,-1.50387 5.750358,-2.4377 9.3982931,-2.77499 22.9941611,-12.74854 31.0792461,-22.79889 11.919923,-14.81732 23.621466,-40.65651 23.895206,-52.76508 0.03879,-1.71571 1.73169,2.45081 3.762005,9.25894 5.189183,17.40058 14.486014,35.68919 22.828495,44.90793 6.632149,7.32876 20.158082,17.37503 26.958772,20.02338 1.82653,0.7113 4.83941,1.88437 6.69528,2.60682 3.35653,1.30663 3.33858,1.32814 -3.40407,4.08115 -24.0302,9.81147 -40.89465,29.57244 -50.13449,58.74523 -5.554913,17.53844 -6.576788,20.19311 -6.692737,17.3867 z"
       id="path2788"
       transform="matrix(0.75,0,0,0.75,197.007,77.284)" />
    <path
       style="fill:#14121f;fill-opacity:1;stroke-width:1.23784"
       d="m 148.69343,528.78061 c -3.68839,-12.1432 -10.98264,-22.5022 -20.16026,-28.63078 -4.12869,-2.75703 -8.00026,-5.01278 -8.60349,-5.01278 -2.71927,0 -0.67563,-2.13065 3.48762,-3.6361 9.80541,-3.54568 22.44124,-20.20306 26.37425,-34.76826 l 1.49571,-5.53906 2.13246,6.80814 c 4.69606,14.99276 12.96298,25.94367 24.50058,32.45509 l 6.48151,3.65793 -5.86138,3.08763 c -11.54894,6.08368 -18.97368,15.48975 -23.96161,30.35586 l -3.28387,9.7873 z"
       id="path2790"
       transform="matrix(0.75,0,0,0.75,197.007,77.284)" />
    <path
       style="fill:#14121f;fill-opacity:1;stroke-width:1.23784"
       d="m 190.18233,287.17949 c -5.37984,-23.36796 -7.59223,-31.38414 -11.34815,-41.11794 -18.98934,-49.21244 -51.38093,-82.78543 -90.872317,-94.18664 l -10.259733,-2.962 8.496415,-2.13005 c 20.625545,-5.17084 34.825845,-13.7147 52.439825,-31.55138 24.49709,-24.806803 41.66846,-57.471769 48.86226,-92.950313 1.17339,-5.786914 2.42535,-11.357206 2.78215,-12.3784261 0.35679,-1.0212201 1.96104,4.2705571 3.56501,11.7595051 1.60396,7.488948 4.34906,18.072502 6.10023,23.51901 5.05658,15.727024 16.99406,38.435565 27.7015,52.696243 20.48657,27.284981 41.59998,42.428431 68.15269,48.882091 l 9.11052,2.21431 -10.80275,2.86771 c -20.52248,5.44793 -37.24312,15.77124 -53.69442,33.1509 -23.22072,24.53109 -39.4654,56.40368 -46.71958,91.66531 -1.96872,9.5697 -3.01293,12.69659 -3.51365,10.52167 z"
       id="path2999"
       transform="matrix(0.75,0,0,0.75,197.007,77.284)" />
    <path
       style="fill:#14121f;fill-opacity:1;stroke-width:1.23784"
       d="m 361.3988,263.96994 c -6.17844,-18.91825 -16.51567,-32.15654 -31.23633,-40.00258 l -7.58474,-4.04262 4.56645,-1.58094 c 14.76374,-5.11134 28.39771,-21.83581 35.02861,-42.96877 l 2.26127,-7.20676 3.22054,9.68244 c 1.7713,5.32535 4.83472,12.46759 6.8076,15.87166 4.90142,8.45708 16.36649,19.49554 23.94339,23.05247 3.44711,1.61822 6.2903,3.26478 6.31821,3.65901 0.0279,0.39424 -2.85337,2.06532 -6.40282,3.71353 -13.48178,6.26033 -25.89002,22.57478 -31.28543,41.13433 -1.12621,3.87402 -2.24122,7.04367 -2.47781,7.04367 -0.23659,0 -1.65811,-3.75995 -3.15894,-8.35544 z"
       id="path3001"
       transform="matrix(0.75,0,0,0.75,197.007,77.284)" />
    <path
       style="fill:#14121f;fill-opacity:1;stroke-width:1.23784"
       d="M 274.95689,490.56354 C 272.6504,477.90716 265.50358,457.59207 259.05475,445.36115 244.66716,418.0735 220.65542,396.85052 197.6338,391.07373 l -5.99131,-1.50339 10.59966,-4.0979 c 25.47958,-9.85058 43.59334,-26.71074 57.05032,-53.10203 5.60505,-10.99238 13.23233,-32.47704 14.94465,-42.09632 1.6068,-9.02651 2.53397,-8.2452 5.87567,4.95133 11.97118,47.27469 35.69113,77.42033 71.24684,90.5475 l 9.06593,3.34713 -9.27526,3.27386 c -13.23447,4.67132 -22.26671,10.41679 -33.08492,21.04552 -19.5512,19.20876 -33.52059,45.77252 -39.43582,74.98996 l -2.13752,10.55799 z"
       id="path3003"
       transform="matrix(0.75,0,0,0.75,197.007,77.284)" />
    <path
       style="fill:#14121f;fill-opacity:1;stroke-width:1.23784"
       d="M 61.298198,416.22458 C 52.19696,385.75038 36.420344,365.40139 13.041578,353.98224 l -9.8585098,-4.81531 4.9071397,-1.92662 C 18.126597,343.29987 24.015918,339.58487 32.256633,331.99607 45.870793,319.4589 56.32981,301.73351 62.25283,281.16008 l 2.980263,-10.35186 3.904667,12.06241 c 4.533625,14.0054 11.862598,29.1925 18.357364,38.04014 7.463468,10.16728 30.770946,26.92301 37.450326,26.92301 3.42301,0 0.4147,2.27658 -8.90932,6.74225 -14.80462,7.09057 -29.224968,21.66013 -37.177132,37.56183 -3.163367,6.32568 -7.463394,17.0485 -9.555614,23.82847 -2.092221,6.77997 -3.938296,12.32722 -4.10239,12.32722 -0.164094,0 -1.920352,-5.43104 -3.902796,-12.06897 z"
       id="path3005"
       transform="matrix(0.75,0,0,0.75,197.007,77.284)" />
  </g>
</svg>
