<?xml version="1.0" encoding="UTF-8" standalone="no"?>
<svg
   width="402.51083pt"
   height="403.00217pt"
   version="1.1"
   viewBox="0 0 402.51083 403.00217"
   id="svg5213"
   sodipodi:docname="sword.svg"
   inkscape:export-filename="swordblue.svg"
   inkscape:export-xdpi="96"
   inkscape:export-ydpi="96"
   xmlns:inkscape="http://www.inkscape.org/namespaces/inkscape"
   xmlns:sodipodi="http://sodipodi.sourceforge.net/DTD/sodipodi-0.dtd"
   xmlns="http://www.w3.org/2000/svg"
   xmlns:svg="http://www.w3.org/2000/svg">
  <defs
     id="defs5217" />
  <sodipodi:namedview
     id="namedview5215"
     pagecolor="#ffffff"
     bordercolor="#111111"
     borderopacity="1"
     inkscape:showpageshadow="0"
     inkscape:pageopacity="0"
     inkscape:pagecheckerboard="1"
     inkscape:deskcolor="#d1d1d1"
     inkscape:document-units="pt"
     showgrid="false" />
  <path
     d="m 127.799,213.34015 -24.746,-24.762 c -3.4141,-3.4141 -8.9609,-3.4141 -12.371,0 l -24.762,24.762 c -3.4141,3.4141 -3.4141,8.9609 0,12.371 l 37.137,37.117 -12.301,12.285 -24.746,24.762 -33.215,33.215 c -8.207,0.50781 -16.273,3.9023 -22.559,10.168 -13.648,13.668 -13.648,35.84 0,49.508 13.668,13.648 35.84,13.648 49.508,0 6.2656,-6.2812 9.6602,-14.352 10.168,-22.559 l 20.684,-20.668 24.746,-24.762 24.832,-24.832 37.117,37.137 c 3.4297,3.4141 8.9609,3.4141 12.391,0 l 24.746,-24.746 c 3.4141,-3.4297 3.4141,-8.9609 0,-12.391 l -24.746,-24.746 198.14,-198.139998 c 1.2266,-1.2266 2.0664,-2.8008 2.3984,-4.5156 l 12.129,-62.109 c 0.55859,-2.8867 -0.35156,-5.8438 -2.4336,-7.8906 -2.082,-2.06639995 -5.0586,-2.95699995 -7.9102,-2.36329995 L 330.3686,12.797652 c -1.6797,0.35156 -3.2188,1.1719 -4.4258,2.3984 z m -80.43,142.29 c 6.8242,6.8438 6.8242,17.922 0,24.762 -6.8242,6.8242 -17.922,6.8242 -24.746,0 -6.8438,-6.8438 -6.8438,-17.922 0,-24.762 6.8242,-6.8242 17.922,-6.8242 24.746,0 z m 17.781,-5.4062 9.3281,-9.3281 -6.1758,-18.551 -15.523,15.504 c 2.4844,1.4688 4.8281,3.2734 6.9648,5.4062 2.1367,2.1367 3.9375,4.4805 5.4062,6.9648 z m 16.977,-41.719 6.1953,18.566 10.902,-10.922 -6.1758,-18.566 z m 113.73,-2.3633 -12.371,12.371 -98.996,-98.996 12.371,-12.371 z m -88.988,-22.383 6.1953,18.551 14.734,-14.734 -12.371,-12.371 -8.5586,8.5586 z m 70.422,-20.93 196.26,-196.249998 9.1016,-46.621 c 0,0 -46.199,9.4688 -46.199,9.4688 l -196.28,196.279998 12.371,12.371 86.625,-86.625 c 3.4141,-3.4141 8.9609,-3.4141 12.371,0 3.4141,3.4141 3.4141,8.9609 0,12.371 l -86.625,86.625 12.371,12.371 z"
     fill-rule="evenodd"
     id="path5211"
     style="fill:#12141f;fill-opacity:1" />
</svg>
