<?xml version="1.0" encoding="UTF-8" standalone="no"?>
<svg
   width="437.50003pt"
   height="533.7533pt"
   version="1.1"
   viewBox="0 0 437.50003 533.7533"
   id="svg2481"
   sodipodi:docname="noun-knight-1755674.svg"
   xmlns:inkscape="http://www.inkscape.org/namespaces/inkscape"
   xmlns:sodipodi="http://sodipodi.sourceforge.net/DTD/sodipodi-0.dtd"
   xmlns="http://www.w3.org/2000/svg"
   xmlns:svg="http://www.w3.org/2000/svg">
  <sodipodi:namedview
     id="namedview2483"
     pagecolor="#ffffff"
     bordercolor="#111111"
     borderopacity="1"
     inkscape:showpageshadow="0"
     inkscape:pageopacity="0"
     inkscape:pagecheckerboard="1"
     inkscape:deskcolor="#d1d1d1"
     inkscape:document-units="pt"
     showgrid="false" />
  <defs
     id="defs2373" />
  <g
     id="g2479"
     transform="translate(-131.25,-26.25)">
    <path
       d="m 140,490.03 c -4.8398,0 -8.75,-3.9102 -8.75,-8.75 0,-43.434 35.332,-78.766 78.766,-78.766 4.8398,0 8.75,3.9102 8.75,8.75 0,4.8398 -3.9102,8.75 -8.75,8.75 -33.781,-0.004 -61.266,27.48 -61.266,61.266 0,4.8359 -3.9102,8.75 -8.75,8.75 z"
       id="path2375"
       style="fill:#ffffff" />
    <path
       d="m 560,490.02 c -4.8398,0 -8.75,-3.9102 -8.75,-8.75 0,-33.766 -27.484,-61.25 -61.25,-61.25 -4.8398,0 -8.75,-3.9102 -8.75,-8.75 0,-4.8398 3.9102,-8.75 8.75,-8.75 43.426,0 78.75,35.324 78.75,78.75 0,4.8398 -3.9102,8.75 -8.75,8.75 z"
       id="path2377"
       style="fill:#ffffff" />
    <path
       d="m 280,420.02 -69.984,-0.008 c -4.8398,0 -8.75,-3.9219 -8.75,-8.75 0,-4.8398 3.9219,-8.75 8.75,-8.75 L 280,402.52 c 4.8398,0 8.75,3.9219 8.75,8.75 0,4.8398 -3.9219,8.75 -8.75,8.75 z"
       id="path2379"
       style="fill:#ffffff" />
    <path
       d="m 490,420.02 -70,-0.008 c -4.8398,0 -8.75,-3.9219 -8.75,-8.75 0,-4.8398 3.9219,-8.75 8.75,-8.75 l 70,0.008 c 4.8398,0 8.75,3.9219 8.75,8.75 0,4.8398 -3.9219,8.75 -8.75,8.75 z"
       id="path2381"
       style="fill:#ffffff" />
    <path
       d="m 140.01,551.25 c -4.8281,0 -8.75,-3.9102 -8.75,-8.75 l -0.008,-61.223 c 0,-4.8281 3.9102,-8.75 8.75,-8.75 4.8281,0 8.75,3.9102 8.75,8.75 l 0.008,61.223 c 0,4.8281 -3.9102,8.75 -8.75,8.75 z"
       id="path2383"
       style="fill:#ffffff" />
    <path
       d="m 148.76,560 c -9.6523,0 -17.5,-7.8477 -17.5,-17.5 0,-4.8398 3.9102,-8.75 8.75,-8.75 4.8398,0 8.75,3.9102 8.75,8.75 v 0.0156 c 4.8398,0 8.75,3.9023 8.75,8.74221 0,4.832 -3.9102,8.7422 -8.75,8.7422 z"
       id="path2385"
       style="fill:#ffffff" />
    <path
       d="m 551.25,560 c -4.8398,0 -8.75,-3.9102 -8.75,-8.75 0,-4.8398 3.9102,-8.75 8.75,-8.75 h 0.0156 c 0,-4.8398 3.9023,-8.75 8.74221,-8.75 4.832,0 8.7422,3.9102 8.7422,8.75 0,9.6523 -7.8477,17.5 -17.5,17.5 z"
       id="path2387"
       style="fill:#ffffff" />
    <path
       d="m 560,551.25 c -4.8398,0 -8.75,-3.9102 -8.75,-8.75 v -61.234 c 0,-4.8398 3.9102,-8.75 8.75,-8.75 4.8398,0 8.75,3.9102 8.75,8.75 V 542.5 c 0,4.8398 -3.9102,8.75 -8.75,8.75 z"
       id="path2389"
       style="fill:#ffffff" />
    <path
       d="M 551.25,560 H 148.76 c -4.8398,0 -8.75,-3.9102 -8.75,-8.75 0,-4.8398 3.9102,-8.75 8.75,-8.75 h 402.49 c 4.8398,0 8.75,3.9102 8.75,8.75 0,4.8398 -3.9102,8.75 -8.75,8.75 z"
       id="path2391"
       style="fill:#ffffff" />
    <path
       d="m 280,420.02 c -4.8398,0 -8.75,-3.9102 -8.75,-8.75 v -48.141 c 0,-4.8398 3.9102,-8.75 8.75,-8.75 4.8398,0 8.75,3.9102 8.75,8.75 v 48.141 c 0,4.8398 -3.9102,8.75 -8.75,8.75 z"
       id="path2393"
       style="fill:#ffffff" />
    <path
       d="m 420,420.01 c -4.8398,0 -8.75,-3.9102 -8.75,-8.75 v -48.133 c 0,-4.8398 3.9102,-8.75 8.75,-8.75 4.8398,0 8.75,3.9102 8.75,8.75 v 48.133 c 0,4.8398 -3.9102,8.75 -8.75,8.75 z"
       id="path2395"
       style="fill:#ffffff" />
    <path
       d="m 349.99,455.02 c -1.3125,0 -2.6523,-0.29688 -3.9023,-0.91797 l -70,-35 c -4.3242,-2.1602 -6.0742,-7.4219 -3.9102,-11.742 2.1719,-4.332 7.4297,-6.0547 11.742,-3.9102 l 70,35 c 4.3242,2.1602 6.0742,7.4219 3.9102,11.742 -1.5391,3.0625 -4.6289,4.8281 -7.8398,4.8281 z"
       id="path2397"
       style="fill:#ffffff" />
    <path
       d="m 350.01,455.02 c -3.2109,0 -6.3008,-1.7656 -7.8398,-4.8398 -2.1602,-4.3242 -0.41016,-9.582 3.9102,-11.742 l 70,-35.008 c 4.3125,-2.1367 9.5742,-0.41016 11.742,3.9102 2.1602,4.3242 0.41016,9.582 -3.9102,11.742 l -70,35.008 c -1.25,0.63281 -2.5898,0.92969 -3.9023,0.92969 z"
       id="path2399"
       style="fill:#ffffff" />
    <path
       d="m 209.99,253.75 c -4.1289,0 -7.8047,-2.9297 -8.582,-7.1328 -0.90234,-4.75 2.2305,-9.3203 6.9844,-10.211 l 140,-26.25 c 4.8203,-0.90234 9.3203,2.2383 10.211,6.9844 0.90234,4.75 -2.2305,9.3203 -6.9844,10.211 l -140,26.25 c -0.55469,0.0977 -1.0977,0.14844 -1.6289,0.14844 z"
       id="path2401"
       style="fill:#ffffff" />
    <path
       d="m 490.01,253.75 c -0.53516,0 -1.0781,-0.0508 -1.6289,-0.15625 l -140,-26.25 c -4.75,-0.89062 -7.875,-5.4609 -6.9844,-10.211 0.89062,-4.7422 5.418,-7.8672 10.211,-6.9844 l 140,26.25 c 4.75,0.89062 7.875,5.4609 6.9844,10.211 -0.77734,4.2109 -4.4492,7.1406 -8.582,7.1406 z"
       id="path2403"
       style="fill:#ffffff" />
    <path
       d="m 481.25,175 c -4.8398,0 -8.75,-3.9102 -8.75,-8.75 0,-67.551 -54.949,-122.5 -122.5,-122.5 -67.551,0 -122.5,54.949 -122.5,122.5 0,4.8398 -3.9102,8.75 -8.75,8.75 -4.8398,0 -8.75,-3.9102 -8.75,-8.75 0,-77.191 62.809,-140 140,-140 77.191,0 140,62.809 140,140 0,4.8398 -3.9102,8.75 -8.75,8.75 z"
       id="path2405"
       style="fill:#ffffff" />
    <path
       d="m 218.75,252.11 c -4.8398,0 -8.75,-3.9102 -8.75,-8.75 v -77.113 c 0,-4.8398 3.9102,-8.75 8.75,-8.75 4.8398,0 8.75,3.9102 8.75,8.75 v 77.113 c 0,4.832 -3.9102,8.75 -8.75,8.75 z"
       id="path2407"
       style="fill:#ffffff" />
    <path
       d="m 481.25,252.11 c -4.8398,0 -8.75,-3.9102 -8.75,-8.75 v -77.113 c 0,-4.8398 3.9102,-8.75 8.75,-8.75 4.8398,0 8.75,3.9102 8.75,8.75 v 77.113 c 0,4.832 -3.9102,8.75 -8.75,8.75 z"
       id="path2409"
       style="fill:#ffffff" />
    <path
       d="m 350,192.5 c -4.8398,0 -8.75,-3.9102 -8.75,-8.75 V 70 c 0,-4.8398 3.9102,-8.75 8.75,-8.75 4.8398,0 8.75,3.9102 8.75,8.75 v 113.75 c 0,4.8398 -3.9102,8.75 -8.75,8.75 z"
       id="path2411"
       style="fill:#ffffff" />
    <path
       d="m 350,367.5 c -4.8398,0 -8.75,-3.9102 -8.75,-8.75 V 262.5 c 0,-4.8398 3.9102,-8.75 8.75,-8.75 4.8398,0 8.75,3.9102 8.75,8.75 v 96.25 c 0,4.8398 -3.9102,8.75 -8.75,8.75 z"
       id="path2413"
       style="fill:#ffffff" />
    <path
       d="m 393.75,342.89 c -4.8398,0 -8.75,-3.9102 -8.75,-8.75 v -62.895 c 0,-4.8398 3.9102,-8.75 8.75,-8.75 4.8398,0 8.75,3.9102 8.75,8.75 v 62.895 c 0,4.832 -3.9102,8.75 -8.75,8.75 z"
       id="path2415"
       style="fill:#ffffff" />
    <path
       d="m 437.5,318.28 c -4.8398,0 -8.75,-3.9102 -8.75,-8.75 v -30.625 c 0,-4.8398 3.9102,-8.75 8.75,-8.75 4.8398,0 8.75,3.9102 8.75,8.75 v 30.625 c 0,4.8398 -3.9102,8.75 -8.75,8.75 z"
       id="path2417"
       style="fill:#ffffff" />
    <path
       d="m 306.25,342.89 c -4.8398,0 -8.75,-3.9102 -8.75,-8.75 v -62.895 c 0,-4.8398 3.9102,-8.75 8.75,-8.75 4.8398,0 8.75,3.9102 8.75,8.75 v 62.895 c 0,4.832 -3.9102,8.75 -8.75,8.75 z"
       id="path2419"
       style="fill:#ffffff" />
    <path
       d="m 262.5,318.28 c -4.8398,0 -8.75,-3.9102 -8.75,-8.75 v -30.625 c 0,-4.8398 3.9102,-8.75 8.75,-8.75 4.8398,0 8.75,3.9102 8.75,8.75 v 30.625 c 0,4.8398 -3.9102,8.75 -8.75,8.75 z"
       id="path2421"
       style="fill:#ffffff" />
    <path
       d="m 210,332.5 c -4.8398,0 -8.75,-3.9102 -8.75,-8.75 V 245 c 0,-4.8398 3.9102,-8.75 8.75,-8.75 4.8398,0 8.75,3.9102 8.75,8.75 v 78.75 c 0,4.8398 -3.9102,8.75 -8.75,8.75 z"
       id="path2423"
       style="fill:#ffffff" />
    <path
       d="m 349.99,411.25 c -1.4531,0 -2.9219,-0.35938 -4.2773,-1.1289 l -140,-78.75 c -4.207,-2.3711 -5.7031,-7.6992 -3.332,-11.91 2.3633,-4.207 7.6914,-5.7227 11.91,-3.332 l 140,78.75 c 4.207,2.3711 5.7031,7.6992 3.332,11.91 -1.6055,2.8516 -4.5703,4.4609 -7.6328,4.4609 z"
       id="path2425"
       style="fill:#ffffff" />
    <path
       d="m 490,332.5 c -4.8398,0 -8.75,-3.9102 -8.75,-8.75 V 245 c 0,-4.8398 3.9102,-8.75 8.75,-8.75 4.8398,0 8.75,3.9102 8.75,8.75 v 78.75 c 0,4.8398 -3.9102,8.75 -8.75,8.75 z"
       id="path2427"
       style="fill:#ffffff" />
    <path
       d="m 350.01,411.25 c -3.0625,0 -6.0195,-1.6094 -7.6289,-4.4609 -2.3711,-4.207 -0.88281,-9.5469 3.332,-11.91 l 140,-78.75 c 4.2188,-2.3789 9.5391,-0.88281 11.91,3.332 2.3711,4.2188 0.88281,9.5469 -3.332,11.91 l -140,78.75 c -1.3594,0.76953 -2.8281,1.1289 -4.2812,1.1289 z"
       id="path2429"
       style="fill:#ffffff" />
    <path
       d="m 315,192.5 h -61.25 c -4.8398,0 -8.75,-3.9102 -8.75,-8.75 V 157.5 c 0,-4.8398 3.9102,-8.75 8.75,-8.75 H 315 c 4.8398,0 8.75,3.9102 8.75,8.75 v 26.25 c 0,4.8398 -3.9102,8.75 -8.75,8.75 z M 262.5,175 h 43.75 v -8.75 H 262.5 Z"
       id="path2431"
       style="fill:#ffffff" />
    <path
       d="M 446.25,192.5 H 385 c -4.8398,0 -8.75,-3.9102 -8.75,-8.75 V 157.5 c 0,-4.8398 3.9102,-8.75 8.75,-8.75 h 61.25 c 4.8398,0 8.75,3.9102 8.75,8.75 v 26.25 c 0,4.8398 -3.9102,8.75 -8.75,8.75 z M 393.75,175 h 43.75 v -8.75 h -43.75 z"
       id="path2433"
       style="fill:#ffffff" />
    <path
       d="m 516.25,560 c -2.0117,0 -4.043,-0.69141 -5.6875,-2.1094 -63.578,-54.496 -64.312,-142.89 -64.312,-146.62 0,-4.8281 3.9102,-8.7422 8.7422,-8.7422 l 0.008,0.004 c 4.8281,0 8.7422,3.9023 8.75,8.7344 0,0.83984 0.83984,84.184 58.188,133.35 3.6758,3.1406 4.1055,8.6641 0.94531,12.328 -1.7148,2.0273 -4.1758,3.0586 -6.6328,3.0586 z"
       id="path2435"
       style="fill:#ffffff" />
    <path
       d="m 183.75,560 c -2.457,0 -4.918,-1.0312 -6.6406,-3.0625 -3.1484,-3.668 -2.7305,-9.1875 0.94531,-12.328 57.531,-49.316 58.195,-132.5 58.195,-133.34 0,-4.8398 3.9102,-8.75 8.75,-8.75 4.8398,0 8.75,3.9102 8.75,8.75 0,3.7344 -0.73438,92.129 -64.312,146.62 -1.6445,1.418 -3.6758,2.1094 -5.6875,2.1094 z"
       id="path2437"
       style="fill:#ffffff" />
    <path
       d="m 350,481.25 c -4.8398,0 -8.75,-3.9102 -8.75,-8.75 v -26.234 c 0,-4.8398 3.9102,-8.75 8.75,-8.75 4.8398,0 8.75,3.9102 8.75,8.75 V 472.5 c 0,4.8398 -3.9102,8.75 -8.75,8.75 z"
       id="path2439"
       style="fill:#ffffff" />
    <path
       d="m 393.75,560 c -4.8398,0 -8.75,-3.9102 -8.75,-8.75 0,-19.301 -15.699,-35 -35,-35 -19.301,0 -35,15.699 -35,35 0,4.8398 -3.9102,8.75 -8.75,8.75 -4.8398,0 -8.75,-3.9102 -8.75,-8.75 0,-28.953 23.547,-52.5 52.5,-52.5 28.953,0 52.5,23.547 52.5,52.5 0,4.8398 -3.9102,8.75 -8.75,8.75 z"
       id="path2441"
       style="fill:#ffffff" />
  </g>
</svg>
