<?xml version="1.0" encoding="UTF-8"?>
<svg width="700pt" height="700pt" version="1.1" viewBox="0 0 700 700" xmlns="http://www.w3.org/2000/svg">
 <g>
  <path d="m339.81 31.363c-2.582 0.28906-4.9023 1.707-6.332 3.875l-23.254 35.137-33.715-15.633v0.003906c-3.2422-1.5352-7.0938-0.93359-9.7148 1.5195-2.6211 2.4492-3.4805 6.25-2.168 9.5898l25.836 67.176c1.2383 3.1797 4.2148 5.3477 7.6211 5.5547l94.562 5.5547c3.7031 0.18359 7.1211-1.9883 8.5234-5.4219l26.613-65.625c1.2461-3.0703 0.65234-6.582-1.5352-9.0703-2.1875-2.4883-5.5938-3.5273-8.8008-2.6836l-34.234 8.9141-36.301-36.301h0.003907c-1.8555-1.8945-4.4688-2.8477-7.1055-2.5859zm2.3203 22.477 32.297 32.297c2.2109 2.1641 5.4062 3 8.3945 2.1953l22.219-5.6797-17.699 43.664-82.676-4.7812-16.02-41.855 21.059 9.6875v-0.003907c3.9258 1.8242 8.5898 0.50781 10.98-3.1016z"/>
  <path d="m282.45 89.883c-1.6367 0.125-3.2031 0.70703-4.5234 1.6797 0 0-11.785 8.3789-25.062 19.895-13.277 11.516-28.234 25.645-35.523 40.305-14.789 29.738-11.594 63.469-12.66 92.625-1.707 46.73 7.8789 136.42 7.8789 136.42 0.53516 4.8164 4.875 8.2852 9.6875 7.75 4.8164-0.53516 8.2891-4.875 7.7539-9.6875 0 0-9.3359-90.395-7.75-133.83 1.125-30.672-1.1523-61.652 10.723-85.52 4.7617-9.5703 18.785-23.945 31.391-34.879 12.609-10.934 23.641-18.859 23.641-18.859l-0.003906-0.003906c3.1992-2.2539 4.5117-6.3516 3.2227-10.043-1.2891-3.6914-4.875-6.0781-8.7773-5.8477z"/>
  <path d="m412.67 87.559c-3.6914 0.26953-6.8125 2.8281-7.8008 6.3945-0.98438 3.5664 0.37891 7.3672 3.4062 9.4922 0 0 9.0781 6.4414 19.379 15.242s21.832 20.414 25.707 27.773c14.508 27.543 13.121 63.145 16.148 98.18 3.8047 43.93 0.66016 135.51 0.66016 135.51v0.003906c-0.27344 2.4219 0.47266 4.8438 2.0586 6.6914 1.5859 1.8477 3.8711 2.9492 6.3047 3.043 2.4336 0.089844 4.7969-0.83594 6.5195-2.5547 1.7227-1.7227 2.6484-4.0859 2.5586-6.5195 0 0 3.3984-90.812-0.66016-137.58-2.8828-33.359-0.72656-71.699-18.215-104.89-6.4219-12.188-18.766-23.59-29.711-32.941-10.949-9.3555-20.539-16.148-20.539-16.148l-0.003906 0.003906c-1.6758-1.2344-3.7383-1.832-5.8164-1.6836z"/>
  <path d="m312.16 179.41c-3.5859-0.078125-6.8555 2.0391-8.25 5.3438-1.3945 3.3047-0.63281 7.125 1.9219 9.6406 0 0 2.5 2.3672 2.8438 2.7109-1.543 1.5938-1.8906 2.0156-4.3906 4.3906-4.8867 4.6484-11.242 9.9062-14.469 11.625-3.2422 1.7266-11.223 4.207-17.828 5.6797-6.6016 1.4805-12.016 2.3281-12.016 2.3281l0.003907 0.007812c-2.3008 0.37109-4.3555 1.6406-5.7109 3.5352-1.3594 1.8906-1.9062 4.2422-1.5273 6.5391 0 0 1.832 10.414 5.4219 22.605 3.5898 12.195 8.2188 26.195 17.312 35.523 19.156 19.656 47.621 30.906 74.797 30.875 27.91-0.035157 57.582-11.133 76.992-32.039 8.4844-9.1367 12.211-22.484 14.984-33.977 2.7695-11.492 3.875-21.188 3.875-21.188l0.003906 0.007813c0.35547-2.6953-0.5625-5.4062-2.4883-7.3281-1.9219-1.9258-4.6328-2.8438-7.3281-2.4883 0 0-11.754 1.5156-26.223 2.0625-14.469 0.52734-31.883-0.19922-40.434-3.2266-8.2734-2.918-21.914-12.961-32.555-22.219-10.641-9.2578-18.73-17.57-18.73-17.57h-0.003906c-1.5977-1.7461-3.832-2.7734-6.1992-2.8438zm9.3008 29.582c2.0898 1.918 1.7383 1.9258 4.1328 4 11.281 9.8164 24.844 20.855 38.238 25.578 13.676 4.8203 31.574 4.8398 46.895 4.2656 8.793-0.33203 10.926-0.78516 16.02-1.2891-0.59375 3.3867-0.46484 4.0156-1.5469 8.6562-2.5078 10.406-7.2031 22.305-10.723 26.094-15.297 16.473-41.234 26.324-64.332 26.352-22.191 0.027344-46.84-9.75-62.137-25.449-4.2461-4.3594-9.7578-17.121-13.047-28.289-1.9531-6.6289-2.1641-8.4453-2.9688-12.273 1.7539-0.33203 1.6719-0.33203 3.7422-0.77344 7.207-1.6133 15.531-3.6641 22.219-7.2344 6.6758-3.5664 13.008-9.3945 18.344-14.469 2.9219-2.7773 3.4727-3.4062 5.1641-5.1641z"/>
  <path d="m316.82 306c-2.3164 0.25391-4.4336 1.418-5.8906 3.2344-1.4531 1.8203-2.125 4.1445-1.8594 6.457 0 0 0.46484 5.0586-0.13281 11.754-0.59375 6.6953-2.4727 14.559-5.6797 18.988-9.0977 12.555-25.07 18.535-43.922 24.027-18.852 5.4961-40.055 10.168-56.84 23.898-8.8945 7.2734-15.875 17.203-19.246 28.422-14.449 48.039 0.77344 94.691 0.77344 94.691l-0.003906 0.003907c0.70312 2.2266 2.2695 4.082 4.3477 5.1484 2.0781 1.0703 4.4961 1.2617 6.7188 0.53906 2.2227-0.72266 4.0625-2.3008 5.1133-4.3906 1.0508-2.0859 1.2266-4.5078 0.48438-6.7227 0 0-13.191-42.508-0.66016-84.227 2.2422-7.4531 7.3672-14.824 13.562-19.895 12.48-10.211 31.199-15.004 50.641-20.668 19.441-5.6602 40.137-12.555 53.223-30.617 6.4414-8.8906 8.1953-19.316 8.9141-27.645 0.72266-8.3281 0.13281-14.984 0.13281-14.984l-0.003907-0.003906c-0.18359-2.3594-1.3203-4.5469-3.1445-6.0547-1.8281-1.5078-4.1875-2.2148-6.543-1.9531z"/>
  <path d="m242.15 455.47c-2.332 0.058594-4.5469 1.0469-6.1484 2.7422-1.6016 1.6992-2.457 3.9648-2.3789 6.3008 0.39844 25.395 2.3828 35.562 0.77344 53.352-0.21484 2.3164 0.50391 4.625 1.9922 6.4141 1.4922 1.7891 3.6328 2.9102 5.9531 3.1172 2.3203 0.20703 4.625-0.51953 6.4062-2.0195 1.7812-1.4961 2.8945-3.6445 3.0898-5.9648 1.7773-19.66-0.39844-30.656-0.77344-55.16 0.007812-2.3555-0.92969-4.6172-2.6094-6.2695-1.6758-1.6523-3.9492-2.5586-6.3047-2.5156z"/>
  <path d="m390.25 296.53c-4.1211 0.52734-7.3008 3.8711-7.6211 8.0078 0 0-1.1758 16.133-0.46484 24.461 0.72266 8.3281 2.4727 18.754 8.9141 27.645 13.09 18.062 33.652 24.953 53.094 30.617 19.441 5.668 38.289 10.461 50.77 20.668 1.1523 0.9375 4.2461 5.9258 6.1992 11.754s3.3008 12.434 3.7422 16.535c2.6914 24.906-4.9062 80.48-4.9062 80.48-2.2617 12 16.148 14.609 17.312 2.4531 0 0 8.2188-54.133 4.9062-84.742-0.59375-5.5898-2.0781-13-4.5234-20.281-2.4414-7.2852-5.2305-14.535-11.625-19.766-16.785-13.73-38.117-18.406-56.969-23.898-18.852-5.4961-34.695-11.473-43.793-24.027-3.207-4.4297-5.2383-12.293-5.8125-18.988-0.59375-6.6953 0.59375-21.23 0.59375-21.23 0.66016-5.6562-4.1719-10.422-9.8164-9.6875z"/>
  <path d="m452.2 458.18c-4.4531 0.44531-7.8516 4.1797-7.8789 8.6562-0.39844 24.398-2.9414 33.113-1.1641 52.836-0.074219 2.5 0.92578 4.9102 2.75 6.625 1.8203 1.7148 4.2852 2.5664 6.7773 2.3438 2.4883-0.22266 4.7656-1.5 6.2539-3.5117 1.4883-2.0078 2.043-4.5586 1.5312-7.0039-1.6016-17.73 0.88672-25.527 1.2891-51.027 0.054688-2.4961-0.95703-4.8984-2.7812-6.6016-1.8281-1.7031-4.293-2.5469-6.7812-2.3125z"/>
  <path d="m412.15 363.11s-8.582 13.215-20.41 26.484c-11.828 13.266-27.531 25.383-36.301 25.965-9.9375 0.66016-28.633-10.277-43.277-22.863-14.641-12.586-25.707-25.449-25.707-25.449l-13.305 11.367s11.691 13.785 27.516 27.387c15.824 13.602 35.305 28.367 55.938 27 19.469-1.2891 35.32-17.348 48.188-31.777 12.867-14.43 22.09-28.551 22.09-28.551z"/>
  <path d="m275.22 506.24c-1.8594 0.15234-3.418 1.4648-3.8828 3.2695-0.46875 1.8086 0.26562 3.7109 1.8203 4.7422l11.367 7.75c0.95703 0.71484 2.1641 1.0039 3.3438 0.80859 1.1758-0.19922 2.2227-0.87109 2.8945-1.8594 0.66797-0.98828 0.90625-2.207 0.65625-3.375s-0.96875-2.1836-1.9883-2.8086l-11.367-7.75c-0.82812-0.58203-1.8359-0.85547-2.8438-0.77344z"/>
  <path d="m273.93 491.38c-1.8164 0.24219-3.2891 1.5898-3.6914 3.375-0.40234 1.7891 0.34766 3.6367 1.8867 4.6367l25.707 16.664c0.97656 0.63281 2.1641 0.85547 3.3047 0.61328 1.1406-0.24219 2.1367-0.92969 2.7695-1.9062 0.63281-0.97656 0.85547-2.1641 0.61328-3.3008-0.24219-1.1406-0.92969-2.1367-1.9062-2.7695l-25.707-16.664c-0.87891-0.57031-1.9336-0.80469-2.9688-0.66406z"/>
  <path d="m276 475.36c-1.8398 0.19531-3.3555 1.5273-3.793 3.3242-0.43359 1.7969 0.30859 3.6719 1.8516 4.6875l40.82 27.129h0.003906c0.97656 0.66797 2.1797 0.91797 3.3398 0.69141 1.1641-0.22266 2.1875-0.90234 2.8438-1.8867 0.65625-0.98828 0.89062-2.1914 0.64844-3.3516-0.23828-1.1602-0.93359-2.1758-1.9258-2.8164l-40.949-27c-0.83203-0.57812-1.8359-0.85156-2.8438-0.77344z"/>
 </g>
</svg>
