<?xml version="1.0" encoding="UTF-8"?>
<svg width="700pt" height="700pt" version="1.1" viewBox="0 0 700 700" xmlns="http://www.w3.org/2000/svg" xmlns:xlink="http://www.w3.org/1999/xlink">
 <defs>
  <symbol id="t" overflow="visible">
   <path d="m18.766-1.125c-0.96875 0.5-1.9805 0.875-3.0312 1.125-1.043 0.25781-2.1367 0.39062-3.2812 0.39062-3.3984 0-6.0898-0.94531-8.0781-2.8438-1.9922-1.9062-2.9844-4.4844-2.9844-7.7344 0-3.2578 0.99219-5.8359 2.9844-7.7344 1.9883-1.9062 4.6797-2.8594 8.0781-2.8594 1.1445 0 2.2383 0.13281 3.2812 0.39062 1.0508 0.25 2.0625 0.625 3.0312 1.125v4.2188c-0.98047-0.65625-1.9453-1.1406-2.8906-1.4531-0.94922-0.3125-1.9492-0.46875-3-0.46875-1.875 0-3.3516 0.60547-4.4219 1.8125-1.0742 1.1992-1.6094 2.8555-1.6094 4.9688 0 2.1055 0.53516 3.7617 1.6094 4.9688 1.0703 1.1992 2.5469 1.7969 4.4219 1.7969 1.0508 0 2.0508-0.14844 3-0.45312 0.94531-0.3125 1.9102-0.80078 2.8906-1.4688z"/>
  </symbol>
  <symbol id="d" overflow="visible">
   <path d="m13.734-11.141c-0.4375-0.19531-0.87109-0.34375-1.2969-0.4375-0.41797-0.10156-0.83984-0.15625-1.2656-0.15625-1.2617 0-2.2305 0.40625-2.9062 1.2188-0.67969 0.80469-1.0156 1.9531-1.0156 3.4531v7.0625h-4.8906v-15.312h4.8906v2.5156c0.625-1 1.3438-1.7266 2.1562-2.1875 0.82031-0.46875 1.8008-0.70312 2.9375-0.70312 0.16406 0 0.34375 0.011719 0.53125 0.03125 0.19531 0.011719 0.47656 0.039062 0.84375 0.078125z"/>
  </symbol>
  <symbol id="a" overflow="visible">
   <path d="m17.641-7.7031v1.4062h-11.453c0.125 1.1484 0.53906 2.0078 1.25 2.5781 0.70703 0.57422 1.7031 0.85938 2.9844 0.85938 1.0312 0 2.082-0.14844 3.1562-0.45312 1.082-0.3125 2.1914-0.77344 3.3281-1.3906v3.7656c-1.1562 0.4375-2.3125 0.76562-3.4688 0.98438-1.1562 0.22656-2.3125 0.34375-3.4688 0.34375-2.7734 0-4.9297-0.70312-6.4688-2.1094-1.5312-1.4062-2.2969-3.3789-2.2969-5.9219 0-2.5 0.75391-4.4609 2.2656-5.8906 1.5078-1.4375 3.582-2.1562 6.2188-2.1562 2.4062 0 4.332 0.73047 5.7812 2.1875 1.4453 1.4492 2.1719 3.3828 2.1719 5.7969zm-5.0312-1.625c0-0.92578-0.27344-1.6719-0.8125-2.2344-0.54297-0.57031-1.25-0.85938-2.125-0.85938-0.94922 0-1.7188 0.26562-2.3125 0.79688s-0.96484 1.2969-1.1094 2.2969z"/>
  </symbol>
  <symbol id="k" overflow="visible">
   <path d="m9.2188-6.8906c-1.0234 0-1.793 0.17188-2.3125 0.51562-0.51172 0.34375-0.76562 0.85547-0.76562 1.5312 0 0.625 0.20703 1.1172 0.625 1.4688 0.41406 0.34375 0.98828 0.51562 1.7188 0.51562 0.92578 0 1.7031-0.32812 2.3281-0.98438 0.63281-0.66406 0.95312-1.4922 0.95312-2.4844v-0.5625zm7.4688-1.8438v8.7344h-4.9219v-2.2656c-0.65625 0.92969-1.3984 1.6055-2.2188 2.0312-0.82422 0.41406-1.8242 0.625-3 0.625-1.5859 0-2.8711-0.45703-3.8594-1.375-0.99219-0.92578-1.4844-2.1289-1.4844-3.6094 0-1.7891 0.61328-3.1016 1.8438-3.9375 1.2383-0.84375 3.1797-1.2656 5.8281-1.2656h2.8906v-0.39062c0-0.76953-0.30859-1.332-0.92188-1.6875-0.61719-0.36328-1.5703-0.54688-2.8594-0.54688-1.0547 0-2.0312 0.10547-2.9375 0.3125-0.89844 0.21094-1.7305 0.52344-2.5 0.9375v-3.7344c1.0391-0.25 2.0859-0.44141 3.1406-0.57812 1.0625-0.13281 2.125-0.20312 3.1875-0.20312 2.7578 0 4.75 0.54688 5.9688 1.6406 1.2266 1.0859 1.8438 2.8555 1.8438 5.3125z"/>
  </symbol>
  <symbol id="c" overflow="visible">
   <path d="m7.7031-19.656v4.3438h5.0469v3.5h-5.0469v6.5c0 0.71094 0.14062 1.1875 0.42188 1.4375s0.83594 0.375 1.6719 0.375h2.5156v3.5h-4.1875c-1.9375 0-3.3125-0.39844-4.125-1.2031-0.80469-0.8125-1.2031-2.1797-1.2031-4.1094v-6.5h-2.4219v-3.5h2.4219v-4.3438z"/>
  </symbol>
  <symbol id="j" overflow="visible">
   <path d="m12.766-13.078v-8.2031h4.9219v21.281h-4.9219v-2.2188c-0.66797 0.90625-1.4062 1.5703-2.2188 1.9844s-1.7578 0.625-2.8281 0.625c-1.8867 0-3.4336-0.75-4.6406-2.25-1.2109-1.5-1.8125-3.4258-1.8125-5.7812 0-2.3633 0.60156-4.2969 1.8125-5.7969 1.207-1.5 2.7539-2.25 4.6406-2.25 1.0625 0 2 0.21484 2.8125 0.64062 0.82031 0.42969 1.5664 1.0859 2.2344 1.9688zm-3.2188 9.9219c1.0391 0 1.8359-0.37891 2.3906-1.1406 0.55078-0.76953 0.82812-1.8828 0.82812-3.3438 0-1.457-0.27734-2.5664-0.82812-3.3281-0.55469-0.76953-1.3516-1.1562-2.3906-1.1562-1.043 0-1.8398 0.38672-2.3906 1.1562-0.55469 0.76172-0.82812 1.8711-0.82812 3.3281 0 1.4609 0.27344 2.5742 0.82812 3.3438 0.55078 0.76172 1.3477 1.1406 2.3906 1.1406z"/>
  </symbol>
  <symbol id="i" overflow="visible">
   <path d="m10.5-3.1562c1.0508 0 1.8516-0.37891 2.4062-1.1406 0.55078-0.76953 0.82812-1.8828 0.82812-3.3438 0-1.457-0.27734-2.5664-0.82812-3.3281-0.55469-0.76953-1.3555-1.1562-2.4062-1.1562-1.0547 0-1.8594 0.38672-2.4219 1.1562-0.55469 0.77344-0.82812 1.8828-0.82812 3.3281 0 1.4492 0.27344 2.5586 0.82812 3.3281 0.5625 0.77344 1.3672 1.1562 2.4219 1.1562zm-3.25-9.9219c0.67578-0.88281 1.4219-1.5391 2.2344-1.9688 0.82031-0.42578 1.7656-0.64062 2.8281-0.64062 1.8945 0 3.4453 0.75 4.6562 2.25 1.207 1.5 1.8125 3.4336 1.8125 5.7969 0 2.3555-0.60547 4.2812-1.8125 5.7812-1.2109 1.5-2.7617 2.25-4.6562 2.25-1.0625 0-2.0078-0.21094-2.8281-0.625-0.8125-0.42578-1.5586-1.0859-2.2344-1.9844v2.2188h-4.8906v-21.281h4.8906z"/>
  </symbol>
  <symbol id="h" overflow="visible">
   <path d="m0.34375-15.312h4.8906l4.125 10.391 3.5-10.391h4.8906l-6.4375 16.766c-0.64844 1.6953-1.4023 2.8828-2.2656 3.5625-0.86719 0.6875-2 1.0312-3.4062 1.0312h-2.8438v-3.2188h1.5312c0.83203 0 1.4375-0.13672 1.8125-0.40625 0.38281-0.26172 0.67969-0.73047 0.89062-1.4062l0.14062-0.42188z"/>
  </symbol>
  <symbol id="g" overflow="visible">
   <path d="m2.5781-20.406h5.25v20.406h-5.25z"/>
  </symbol>
  <symbol id="e" overflow="visible">
   <path d="m14.719-14.828v3.9844c-0.65625-0.45703-1.3242-0.79688-2-1.0156-0.66797-0.21875-1.3594-0.32812-2.0781-0.32812-1.3672 0-2.4336 0.40234-3.2031 1.2031-0.76172 0.79297-1.1406 1.9062-1.1406 3.3438 0 1.4297 0.37891 2.543 1.1406 3.3438 0.76953 0.79297 1.8359 1.1875 3.2031 1.1875 0.75781 0 1.4844-0.10938 2.1719-0.32812 0.6875-0.22656 1.3203-0.56641 1.9062-1.0156v4c-0.76172 0.28125-1.5391 0.48828-2.3281 0.625-0.78125 0.14453-1.5742 0.21875-2.375 0.21875-2.7617 0-4.9219-0.70703-6.4844-2.125-1.5547-1.4141-2.3281-3.3828-2.3281-5.9062 0-2.5312 0.77344-4.5039 2.3281-5.9219 1.5625-1.4141 3.7227-2.125 6.4844-2.125 0.80078 0 1.5938 0.074219 2.375 0.21875 0.78125 0.13672 1.5547 0.35156 2.3281 0.64062z"/>
  </symbol>
  <symbol id="b" overflow="visible">
   <path d="m9.6406-12.188c-1.0859 0-1.9141 0.39062-2.4844 1.1719-0.57422 0.78125-0.85938 1.9062-0.85938 3.375s0.28516 2.5938 0.85938 3.375c0.57031 0.77344 1.3984 1.1562 2.4844 1.1562 1.0625 0 1.875-0.38281 2.4375-1.1562 0.57031-0.78125 0.85938-1.9062 0.85938-3.375s-0.28906-2.5938-0.85938-3.375c-0.5625-0.78125-1.375-1.1719-2.4375-1.1719zm0-3.5c2.6328 0 4.6914 0.71484 6.1719 2.1406 1.4766 1.418 2.2188 3.3867 2.2188 5.9062 0 2.5117-0.74219 4.4805-2.2188 5.9062-1.4805 1.418-3.5391 2.125-6.1719 2.125-2.6484 0-4.7148-0.70703-6.2031-2.125-1.4922-1.4258-2.2344-3.3945-2.2344-5.9062 0-2.5195 0.74219-4.4883 2.2344-5.9062 1.4883-1.4258 3.5547-2.1406 6.2031-2.1406z"/>
  </symbol>
  <symbol id="f" overflow="visible">
   <path d="m17.75-9.3281v9.3281h-4.9219v-7.1406c0-1.3203-0.03125-2.2344-0.09375-2.7344s-0.16797-0.86719-0.3125-1.1094c-0.1875-0.3125-0.44922-0.55469-0.78125-0.73438-0.32422-0.17578-0.69531-0.26562-1.1094-0.26562-1.0234 0-1.8242 0.39844-2.4062 1.1875-0.58594 0.78125-0.875 1.8711-0.875 3.2656v7.5312h-4.8906v-15.312h4.8906v2.2344c0.73828-0.88281 1.5195-1.5391 2.3438-1.9688 0.83203-0.42578 1.75-0.64062 2.75-0.64062 1.7695 0 3.1133 0.54688 4.0312 1.6406 0.91406 1.0859 1.375 2.6562 1.375 4.7188z"/>
  </symbol>
  <symbol id="s" overflow="visible">
   <path d="m2.3594-15.312h4.8906v15.312h-4.8906zm0-5.9688h4.8906v4h-4.8906z"/>
  </symbol>
  <symbol id="r" overflow="visible">
   <path d="m12.422-21.281v3.2188h-2.7031c-0.6875 0-1.1719 0.125-1.4531 0.375-0.27344 0.25-0.40625 0.6875-0.40625 1.3125v1.0625h4.1875v3.5h-4.1875v11.812h-4.8906v-11.812h-2.4375v-3.5h2.4375v-1.0625c0-1.6641 0.46094-2.8984 1.3906-3.7031 0.92578-0.80078 2.3672-1.2031 4.3281-1.2031z"/>
  </symbol>
  <symbol id="q" overflow="visible">
   <path d="m16.547-12.766c0.61328-0.94531 1.3477-1.6719 2.2031-2.1719 0.85156-0.5 1.7891-0.75 2.8125-0.75 1.7578 0 3.0977 0.54688 4.0156 1.6406 0.92578 1.0859 1.3906 2.6562 1.3906 4.7188v9.3281h-4.9219v-7.9844-0.35938c0.007813-0.13281 0.015625-0.32031 0.015625-0.5625 0-1.082-0.16406-1.8633-0.48438-2.3438-0.3125-0.48828-0.82422-0.73438-1.5312-0.73438-0.92969 0-1.6484 0.38672-2.1562 1.1562-0.51172 0.76172-0.77344 1.8672-0.78125 3.3125v7.5156h-4.9219v-7.9844c0-1.6953-0.14844-2.7852-0.4375-3.2656-0.29297-0.48828-0.8125-0.73438-1.5625-0.73438-0.9375 0-1.6641 0.38672-2.1719 1.1562-0.51172 0.76172-0.76562 1.8594-0.76562 3.2969v7.5312h-4.9219v-15.312h4.9219v2.2344c0.60156-0.86328 1.2891-1.5156 2.0625-1.9531 0.78125-0.4375 1.6406-0.65625 2.5781-0.65625 1.0625 0 2 0.25781 2.8125 0.76562 0.8125 0.51172 1.4258 1.2305 1.8438 2.1562z"/>
  </symbol>
  <symbol id="p" overflow="visible">
   <path d="m17.75-9.3281v9.3281h-4.9219v-7.1094c0-1.3438-0.03125-2.2656-0.09375-2.7656s-0.16797-0.86719-0.3125-1.1094c-0.1875-0.3125-0.44922-0.55469-0.78125-0.73438-0.32422-0.17578-0.69531-0.26562-1.1094-0.26562-1.0234 0-1.8242 0.39844-2.4062 1.1875-0.58594 0.78125-0.875 1.8711-0.875 3.2656v7.5312h-4.8906v-21.281h4.8906v8.2031c0.73828-0.88281 1.5195-1.5391 2.3438-1.9688 0.83203-0.42578 1.75-0.64062 2.75-0.64062 1.7695 0 3.1133 0.54688 4.0312 1.6406 0.91406 1.0859 1.375 2.6562 1.375 4.7188z"/>
  </symbol>
  <symbol id="o" overflow="visible">
   <path d="m2.5781-20.406h5.875l7.4219 14v-14h4.9844v20.406h-5.875l-7.4219-14v14h-4.9844z"/>
  </symbol>
  <symbol id="n" overflow="visible">
   <path d="m2.1875-5.9688v-9.3438h4.9219v1.5312c0 0.83594-0.007813 1.875-0.015625 3.125-0.011719 1.25-0.015625 2.0859-0.015625 2.5 0 1.2422 0.03125 2.1328 0.09375 2.6719 0.070313 0.54297 0.17969 0.93359 0.32812 1.1719 0.20703 0.32422 0.47266 0.57422 0.79688 0.75 0.32031 0.16797 0.69141 0.25 1.1094 0.25 1.0195 0 1.8203-0.39062 2.4062-1.1719 0.58203-0.78125 0.875-1.8672 0.875-3.2656v-7.5625h4.8906v15.312h-4.8906v-2.2188c-0.74219 0.89844-1.5234 1.5586-2.3438 1.9844-0.82422 0.41406-1.7344 0.625-2.7344 0.625-1.7617 0-3.1055-0.53906-4.0312-1.625-0.92969-1.082-1.3906-2.6602-1.3906-4.7344z"/>
  </symbol>
  <symbol id="m" overflow="visible">
   <path d="m2.5781-20.406h8.7344c2.5938 0 4.582 0.57812 5.9688 1.7344 1.3945 1.1484 2.0938 2.7891 2.0938 4.9219 0 2.1367-0.69922 3.7812-2.0938 4.9375-1.3867 1.1562-3.375 1.7344-5.9688 1.7344h-3.4844v7.0781h-5.25zm5.25 3.8125v5.7031h2.9219c1.0195 0 1.8047-0.25 2.3594-0.75 0.5625-0.5 0.84375-1.2031 0.84375-2.1094 0-0.91406-0.28125-1.6172-0.84375-2.1094-0.55469-0.48828-1.3398-0.73438-2.3594-0.73438z"/>
  </symbol>
  <symbol id="l" overflow="visible">
   <path d="m2.3594-15.312h4.8906v15.031c0 2.0508-0.49609 3.6172-1.4844 4.7031-0.98047 1.082-2.4062 1.625-4.2812 1.625h-2.4219v-3.2188h0.85938c0.92578 0 1.5625-0.21094 1.9062-0.625 0.35156-0.41797 0.53125-1.2461 0.53125-2.4844zm0-5.9688h4.8906v4h-4.8906z"/>
  </symbol>
 </defs>
 <g>
  <path d="m591.47 373.97c-4.8164-3.6953-5.0391-14.449-5.6016-28 0.39062-19.277-2.4297-38.488-8.3438-56.84-16.07-45.586-63.336-45.305-89.938-37.969-17.805-32.762-71.398-34.047-142.07-31.473-12.734 0.58984-25.477-0.98438-37.688-4.6484 24.863-6.1055 29.512-29.902 32.535-45.473 0.60937-3.6875 1.4492-7.3359 2.5195-10.918l4.9297-14.113-12.992 7.3906c-12.824 7.4492-19.488 7.3398-67.816-45.527-42.672-46.648-102.43-27.664-119.79-20.719-5.6016-7.4492-17.191-15.062-37.406-9.1836l-8.0625 2.3516 5.2656 6.5508c12.543 15.566 10.246 24.305 6.8867 37.52l-0.003906 0.003906c-2.1836 7.375-3.4453 14.992-3.75 22.68-1.1953 20.992-4.0781 41.852-8.625 62.383-2.0234 4.7266-1.8164 10.113 0.5625 14.672 4.3672 7.2812 14.336 8.8477 26.207 10.754v-0.003906c7.1445 1.3984 14.547-0.33594 20.328-4.7578 7.875-7.293 12.344-17.547 12.32-28.281 0.55078-4.4492 2.4609-8.6172 5.4688-11.945 3.0039-3.3242 6.9609-5.6445 11.328-6.6445 2.1836 0 2.3516 0.44922 2.4648 0.67188 2.8203 14.668 2.8203 29.738 0 44.406-2.8555 17.117-3.0469 34.57-0.55859 51.746-16.801 1.8477-64.23 8.625-85.734 28l-1.5664 1.3984 0.050782 3.3047c-10.359 93.07 20.555 122.81 48.328 131.38l3.8633 1.1758 2.3516-3.3047h0.003906c6.9219-9.7148 11.277-21.02 12.656-32.871l0.39063-6.3281-6.3281 0.33594c-2.8242 0.21875-5.6367-0.55469-7.9531-2.1836 0-0.33594-1.1211-1.2305-0.67188-4.0898l1.0625-6.7773-6.832 0.33594c-1.1211 0-2.8008-1.2305-4.3672-3.5273v0.003907c-6.8438-12.805-9.3594-27.48-7.168-41.832 3.6953 0 8.8477 0.67187 14.559 1.1758 18.535 1.6797 43.23 3.9219 61.207 0.55859 36.23 78.398 41.215 113.46 38.414 122.75-18.137 7.8945-20.715 29.957-20.715 30.965l-0.61719 6.1602h41.215l-0.44922-5.9922c0-3.6953 9.0156-12.266 17.527-17.473l3.2461-1.9609-0.55469-3.8047c-5.9922-36.344-13.441-90.945-13.441-115.64h0.003906c16.457 4.9141 33.508 7.5508 50.68 7.8398 12.34 0.25391 24.602-1.9727 36.062-6.5508 2.125 18.07 7.3125 35.645 15.344 51.969-19.711 18.59-39.816 79.184-42.223 86.742l-2.3516 7.3359h60.254l-3.5859-35.391 39.199-44.801 0.003907-1.9023c0.72656-14.516 4.7695-28.672 11.816-41.387 42.449 15.344 49.281 68.488 50.398 82.824-12.824 7.6172-17.473 31.305-18.031 34.215l-1.1758 6.6094h47.488l1.2891-3.7539c3.0234-8.5664 8.625-18.594 12.266-19.938l7.168-2.6875-4.7031-5.9922c-11.199-14.391-12.207-43.566-12.938-64.848 0-7.7266-0.44922-14.449-1.1211-19.488l-0.28125-2.3516-1.9023-1.3984c-17.863-13.273-19.32-56.336-18.312-73.246 1.7852-11.559 2.2383-23.281 1.3438-34.945 24.137 11.199 24.191 32.703 24.191 59.414 0 16.801 0 36.176 6.8867 54.152v0.003906c2.8477 8.4961 8.332 15.863 15.652 21.031 7.3242 5.1641 16.102 7.8633 25.062 7.6953 2.4727 0 4.9414-0.16797 7.3906-0.50391 24.414-3.3594 46.535-22.398 48.273-40.992l0.72656-7.8398-7.6172 1.8477c-12.32 2.8008-20.215 2.8008-23.91-0.054688zm-332.75-260.07c39.594 43.344 54.938 56 70.895 52.305v1.2305c-3.8086 19.711-8.1758 41.945-44.016 37.184-26.207-16.801-40.32-45.414-52.586-70.113-2.8008-5.6016-5.6016-10.922-8.0625-15.734l0.003906 0.003906c-9.1172-16.309-25.145-27.598-43.57-30.688 23.016-3.1953 53.258-0.5625 77.336 25.812zm-115.47 219.69c-6.6328-0.80859-13.309-1.2188-19.988-1.2344h-3.4141l-1.3438 3.1367c-5.9375 13.664-2.2383 42.504 7.168 56h-0.003907c2.0078 3.1367 4.8594 5.6406 8.2305 7.2227 0.18359 3.0625 1.3438 5.9883 3.3047 8.3438 2.707 2.7656 6.2148 4.6055 10.023 5.2656-1.4688 6.4609-3.9648 12.641-7.3906 18.312-30.633-12.375-43.344-52.586-36.23-117.04 20.105-16.801 64.23-22.398 78.848-24.137 3.8281 15.637 9.3086 30.824 16.352 45.305-18.508 1.5391-37.125 1.1445-55.555-1.1758zm267.01 89.602-39.594 45.473 2.8008 28-32.309-0.003907c9.8555-28.617 27.273-69.496 39.199-76.609l5.6016-3.1914-3.7539-4.9844c-7-9.293-24.582-59.078-12.656-77.613l-9.4062-6.1055c-3.7461 6.5234-5.6758 13.926-5.6016 21.449-28 14.84-71.23 3.6953-85.176-0.55859v-0.003906c3.25-10.879 5.5-22.031 6.7188-33.32l-11.199-0.89453c-1.1992 10.758-3.375 21.387-6.4961 31.754-5.6016 18.703 8.1758 106.4 11.648 127.62-5.9375 3.9766-15.566 11.199-18.648 19.77l-17.582-0.003907c1.8594-7.3359 7.0352-13.387 14-16.352l1.9023-0.67188 1.0625-1.6797c13.551-22.398-24.754-108.64-41.832-144.7-23.801-50.398-20.441-76.719-17.191-102.26 2.9883-16.102 2.8164-32.629-0.50391-48.664-1.7461-6.2969-8.0195-10.215-14.445-9.0156-7.0312 1.2266-13.469 4.7109-18.336 9.9258-4.8711 5.2148-7.9102 11.875-8.6562 18.969 0.13281 7.582-2.7695 14.902-8.0664 20.328-3.4336 2.5039-7.7891 3.3867-11.926 2.4102-7.7266-1.2305-16.406-2.6328-18.09-5.6016-0.78516-1.3438 0-4.0898 0.50391-5.6016v-0.61719 0.003907c4.8125-21.332 7.8672-43.02 9.1289-64.848 0.27344-6.8359 1.4023-13.609 3.3594-20.16 3.1367-12.266 6.1602-23.969-3.7539-39.984 14.113-1.1758 18.145 7.8945 18.594 9.0156l1.625 4.4805 4.6484-0.83984c0.50391 0 50.398-8.793 69.047 25.816 2.5742 4.7617 5.1523 9.9688 7.8398 15.398 19.77 39.762 46.984 94.191 123.2 91.391 90.551-3.3047 134.4 2.5195 137.14 44.465 3.5273 49.953-8.0625 64.68-37.07 80.641-30.969 17.246-35.168 57.512-35.727 67.312zm92.566-28.504c0.39063 4.3125 0.61719 9.8555 0.78516 16.184 0.67188 20.832 1.625 48.664 11.984 66.527l0.003906-0.003906c-5.0781 5.5859-9.0508 12.086-11.707 19.152h-25.871c2.6328-9.1289 7.3359-19.266 12.602-20.609l4.1992-1.0625v-4.4805c0-0.78516-0.67188-73.754-54.602-95.816v0.003907c3.2461-3.5078 7.0273-6.4727 11.199-8.793 12.16-6.0039 22.789-14.699 31.082-25.426 1.625 18.93 6.5508 42.336 20.328 54.266zm69.328 15.121 0.003906-0.003906c-7.5625 1.5156-15.418 0.20703-22.078-3.6875-6.6562-3.8906-11.652-10.09-14.043-17.426-6.1602-16.016-6.1602-33.602-6.1055-50.398 0-29.062 0-59.078-36.68-72.016-0.29688-1.6445-0.67188-3.2305-1.1211-4.7617 15.734-3.9219 60.312-11.199 75.152 31.137h0.003906c5.4766 17.246 8.0664 35.277 7.6719 53.367 0.33594 16.801 0.61719 29.625 9.7422 36.625 5.6016 4.1445 12.879 5.6016 23.742 3.7539l0.003906-0.003906c-7.9961 12.848-21.34 21.418-36.344 23.355z"/>
  <use x="70" y="644" xlink:href="#t"/>
  <use x="90.550781" y="644" xlink:href="#d"/>
  <use x="104.359375" y="644" xlink:href="#a"/>
  <use x="123.347656" y="644" xlink:href="#k"/>
  <use x="142.242188" y="644" xlink:href="#c"/>
  <use x="155.628906" y="644" xlink:href="#a"/>
  <use x="174.617188" y="644" xlink:href="#j"/>
  <use x="204.410156" y="644" xlink:href="#i"/>
  <use x="224.453125" y="644" xlink:href="#h"/>
  <use x="252.453125" y="644" xlink:href="#g"/>
  <use x="262.867188" y="644" xlink:href="#e"/>
  <use x="279.46875" y="644" xlink:href="#b"/>
  <use x="298.703125" y="644" xlink:href="#f"/>
  <use x="318.636719" y="644" xlink:href="#s"/>
  <use x="328.234375" y="644" xlink:href="#e"/>
  <use x="70" y="672" xlink:href="#r"/>
  <use x="82.183594" y="672" xlink:href="#d"/>
  <use x="95.992188" y="672" xlink:href="#b"/>
  <use x="115.226562" y="672" xlink:href="#q"/>
  <use x="154.152344" y="672" xlink:href="#c"/>
  <use x="167.535156" y="672" xlink:href="#p"/>
  <use x="187.46875" y="672" xlink:href="#a"/>
  <use x="216.207031" y="672" xlink:href="#o"/>
  <use x="239.640625" y="672" xlink:href="#b"/>
  <use x="258.878906" y="672" xlink:href="#n"/>
  <use x="278.8125" y="672" xlink:href="#f"/>
  <use x="308.492188" y="672" xlink:href="#m"/>
  <use x="329.015625" y="672" xlink:href="#d"/>
  <use x="342.820312" y="672" xlink:href="#b"/>
  <use x="362.058594" y="672" xlink:href="#l"/>
  <use x="371.65625" y="672" xlink:href="#a"/>
  <use x="390.648438" y="672" xlink:href="#e"/>
  <use x="407.242188" y="672" xlink:href="#c"/>
 </g>
</svg>
