<?xml version="1.0" encoding="UTF-8"?>
<svg width="700pt" height="700pt" version="1.1" viewBox="0 0 700 700" xmlns="http://www.w3.org/2000/svg" xmlns:xlink="http://www.w3.org/1999/xlink">
 <defs>
  <symbol id="o" overflow="visible">
   <path d="m29.312-1.75c-1.5117 0.78125-3.0898 1.3711-4.7344 1.7656-1.6367 0.40625-3.3398 0.60938-5.1094 0.60938-5.3125 0-9.5273-1.4844-12.641-4.4531-3.1055-2.9688-4.6562-7-4.6562-12.094s1.5508-9.125 4.6562-12.094c3.1133-2.9688 7.3281-4.4531 12.641-4.4531 1.7695 0 3.4727 0.19922 5.1094 0.59375 1.6445 0.39844 3.2227 0.99219 4.7344 1.7812v6.5938c-1.5312-1.0391-3.0391-1.8008-4.5156-2.2812-1.4805-0.48828-3.0391-0.73438-4.6719-0.73438-2.9375 0-5.2461 0.94531-6.9219 2.8281-1.6797 1.875-2.5156 4.4648-2.5156 7.7656 0 3.293 0.83594 5.8828 2.5156 7.7656 1.6758 1.875 3.9844 2.8125 6.9219 2.8125 1.6328 0 3.1914-0.23828 4.6719-0.71875 1.4766-0.48828 2.9844-1.2539 4.5156-2.2969z"/>
  </symbol>
  <symbol id="j" overflow="visible">
   <path d="m21.453-17.406c-0.67969-0.3125-1.3516-0.53906-2.0156-0.6875-0.65625-0.15625-1.3203-0.23438-1.9844-0.23438-1.9688 0-3.4844 0.63281-4.5469 1.8906-1.0547 1.2617-1.5781 3.0703-1.5781 5.4219v11.016h-7.6562v-23.922h7.6562v3.9219c0.97656-1.5625 2.1016-2.7031 3.375-3.4219 1.2812-0.71875 2.8125-1.0781 4.5938-1.0781 0.25 0 0.52344 0.011719 0.82812 0.03125 0.30078 0.023438 0.73438 0.070312 1.2969 0.14062z"/>
  </symbol>
  <symbol id="b" overflow="visible">
   <path d="m27.562-12.031v2.1875h-17.891c0.1875 1.793 0.83203 3.1367 1.9375 4.0312 1.1133 0.89844 2.6719 1.3438 4.6719 1.3438 1.6016 0 3.25-0.23438 4.9375-0.70312 1.6875-0.47656 3.4219-1.2031 5.2031-2.1719v5.8906c-1.8047 0.6875-3.6094 1.2031-5.4219 1.5469-1.8125 0.35156-3.6211 0.53125-5.4219 0.53125-4.3359 0-7.7031-1.0977-10.109-3.2969-2.3984-2.207-3.5938-5.2969-3.5938-9.2656 0-3.9062 1.1758-6.9727 3.5312-9.2031 2.3633-2.2383 5.6094-3.3594 9.7344-3.3594 3.7578 0 6.7695 1.1367 9.0312 3.4062 2.2578 2.2617 3.3906 5.2812 3.3906 9.0625zm-7.8594-2.5312c0-1.457-0.42969-2.6289-1.2812-3.5156-0.84375-0.89453-1.9492-1.3438-3.3125-1.3438-1.4922 0-2.6992 0.41797-3.625 1.25-0.91797 0.83594-1.4922 2.0391-1.7188 3.6094z"/>
  </symbol>
  <symbol id="a" overflow="visible">
   <path d="m14.391-10.766c-1.5938 0-2.793 0.27344-3.5938 0.8125-0.80469 0.54297-1.2031 1.3398-1.2031 2.3906 0 0.96875 0.32031 1.7305 0.96875 2.2812 0.64453 0.54297 1.5469 0.8125 2.7031 0.8125 1.4375 0 2.6445-0.51562 3.625-1.5469 0.98828-1.0312 1.4844-2.3203 1.4844-3.875v-0.875zm11.688-2.8906v13.656h-7.7031v-3.5469c-1.0312 1.4492-2.1875 2.5078-3.4688 3.1719s-2.8398 1-4.6719 1c-2.4805 0-4.4961-0.72266-6.0469-2.1719-1.543-1.4453-2.3125-3.3203-2.3125-5.625 0-2.8125 0.96094-4.8672 2.8906-6.1719 1.9375-1.3125 4.9688-1.9688 9.0938-1.9688h4.5156v-0.60938c0-1.207-0.48047-2.0938-1.4375-2.6562-0.94922-0.5625-2.4375-0.84375-4.4688-0.84375-1.6367 0-3.1562 0.16797-4.5625 0.5-1.4062 0.32422-2.7188 0.8125-3.9375 1.4688v-5.8281c1.6445-0.40625 3.2891-0.70703 4.9375-0.90625 1.6562-0.20703 3.3047-0.3125 4.9531-0.3125 4.3203 0 7.4375 0.85547 9.3438 2.5625 1.9141 1.6992 2.875 4.4609 2.875 8.2812z"/>
  </symbol>
  <symbol id="i" overflow="visible">
   <path d="m12.031-30.719v6.7969h7.875v5.4688h-7.875v10.141c0 1.1172 0.21875 1.8711 0.65625 2.2656 0.4375 0.38672 1.3125 0.57812 2.625 0.57812h3.9375v5.4688h-6.5625c-3.0234 0-5.1641-0.62891-6.4219-1.8906-1.2617-1.2578-1.8906-3.3984-1.8906-6.4219v-10.141h-3.7969v-5.4688h3.7969v-6.7969z"/>
  </symbol>
  <symbol id="h" overflow="visible">
   <path d="m19.953-20.422v-12.812h7.6875v33.234h-7.6875v-3.4531c-1.0547 1.4062-2.2148 2.4375-3.4844 3.0938-1.2734 0.65625-2.7422 0.98438-4.4062 0.98438-2.9492 0-5.3711-1.1719-7.2656-3.5156-1.8867-2.3438-2.8281-5.3594-2.8281-9.0469s0.94141-6.7031 2.8281-9.0469c1.8945-2.3438 4.3164-3.5156 7.2656-3.5156 1.6562 0 3.1172 0.33594 4.3906 1 1.2812 0.65625 2.4453 1.6836 3.5 3.0781zm-5.0469 15.484c1.6445 0 2.8945-0.59766 3.75-1.7969 0.86328-1.1953 1.2969-2.9297 1.2969-5.2031 0-2.2812-0.43359-4.0195-1.2969-5.2188-0.85547-1.1953-2.1055-1.7969-3.75-1.7969-1.625 0-2.8711 0.60156-3.7344 1.7969-0.85547 1.1992-1.2812 2.9375-1.2812 5.2188 0 2.2734 0.42578 4.0078 1.2812 5.2031 0.86328 1.1992 2.1094 1.7969 3.7344 1.7969z"/>
  </symbol>
  <symbol id="g" overflow="visible">
   <path d="m16.406-4.9375c1.6328 0 2.8828-0.59766 3.75-1.7969 0.86328-1.1953 1.2969-2.9297 1.2969-5.2031 0-2.2812-0.43359-4.0195-1.2969-5.2188-0.86719-1.1953-2.1172-1.7969-3.75-1.7969-1.6367 0-2.8906 0.60547-3.7656 1.8125-0.875 1.1992-1.3125 2.9336-1.3125 5.2031 0 2.2617 0.4375 3.9961 1.3125 5.2031 0.875 1.1992 2.1289 1.7969 3.7656 1.7969zm-5.0781-15.484c1.0508-1.3945 2.2188-2.4219 3.5-3.0781 1.2812-0.66406 2.7539-1 4.4219-1 2.9453 0 5.3672 1.1719 7.2656 3.5156 1.8945 2.3438 2.8438 5.3594 2.8438 9.0469s-0.94922 6.7031-2.8438 9.0469c-1.8984 2.3438-4.3203 3.5156-7.2656 3.5156-1.668 0-3.1406-0.33594-4.4219-1s-2.4492-1.6914-3.5-3.0781v3.4531h-7.6562v-33.234h7.6562z"/>
  </symbol>
  <symbol id="f" overflow="visible">
   <path d="m0.53125-23.922h7.6562l6.4219 16.234 5.4688-16.234h7.6562l-10.062 26.188c-1.0117 2.6641-2.1953 4.5234-3.5469 5.5781-1.3438 1.0625-3.1211 1.5938-5.3281 1.5938h-4.4219v-5.0156h2.3906c1.3008 0 2.2422-0.21094 2.8281-0.625 0.59375-0.40625 1.0547-1.1484 1.3906-2.2188l0.20312-0.65625z"/>
  </symbol>
  <symbol id="e" overflow="visible">
   <path d="m0.21875-31.891h29.391v6.2188h-10.578v25.672h-8.2188v-25.672h-10.594z"/>
  </symbol>
  <symbol id="n" overflow="visible">
   <path d="m3.6719-23.922h7.6562v23.922h-7.6562zm0-9.3125h7.6562v6.2344h-7.6562z"/>
  </symbol>
  <symbol id="d" overflow="visible">
   <path d="m11.328-3.4531v12.547h-7.6562v-33.016h7.6562v3.5c1.0508-1.3945 2.2188-2.4219 3.5-3.0781 1.2812-0.66406 2.7539-1 4.4219-1 2.9453 0 5.3672 1.1719 7.2656 3.5156 1.8945 2.3438 2.8438 5.3594 2.8438 9.0469s-0.94922 6.7031-2.8438 9.0469c-1.8984 2.3438-4.3203 3.5156-7.2656 3.5156-1.668 0-3.1406-0.33594-4.4219-1s-2.4492-1.6914-3.5-3.0781zm5.0781-15.5c-1.6367 0-2.8906 0.60547-3.7656 1.8125-0.875 1.1992-1.3125 2.9336-1.3125 5.2031 0 2.2617 0.4375 3.9961 1.3125 5.2031 0.875 1.1992 2.1289 1.7969 3.7656 1.7969 1.6328 0 2.8828-0.59766 3.75-1.7969 0.86328-1.1953 1.2969-2.9297 1.2969-5.2031 0-2.2812-0.43359-4.0195-1.2969-5.2188-0.86719-1.1953-2.1172-1.7969-3.75-1.7969z"/>
  </symbol>
  <symbol id="m" overflow="visible">
   <path d="m1.5312-23.922h7.4375l4.0156 16.484 4.0469-16.484h6.375l4.0156 16.312 4.0469-16.312h7.4375l-6.3125 23.922h-8.3438l-4.0469-16.453-4.0156 16.453h-8.3438z"/>
  </symbol>
  <symbol id="l" overflow="visible">
   <path d="m27.734-14.562v14.562h-7.7031v-11.156c0-2.0625-0.046875-3.4844-0.14062-4.2656-0.085937-0.78125-0.24219-1.3594-0.46875-1.7344-0.30469-0.5-0.71094-0.88281-1.2188-1.1562-0.51172-0.28125-1.0938-0.42188-1.75-0.42188-1.5938 0-2.8516 0.61719-3.7656 1.8438-0.90625 1.2305-1.3594 2.9375-1.3594 5.125v11.766h-7.6562v-23.922h7.6562v3.5c1.1445-1.3945 2.3633-2.4219 3.6562-3.0781 1.3008-0.66406 2.7383-1 4.3125-1 2.7578 0 4.8516 0.85156 6.2812 2.5469 1.4375 1.6875 2.1562 4.1523 2.1562 7.3906z"/>
  </symbol>
  <symbol id="k" overflow="visible">
   <path d="m26.219-30.891v6.75c-1.7617-0.78125-3.4766-1.3672-5.1406-1.7656-1.668-0.40625-3.2422-0.60938-4.7188-0.60938-1.9609 0-3.4141 0.27344-4.3594 0.8125-0.9375 0.54297-1.4062 1.3867-1.4062 2.5312 0 0.85547 0.31641 1.5234 0.95312 2 0.63281 0.46875 1.7852 0.875 3.4531 1.2188l3.5 0.70312c3.5391 0.71875 6.0625 1.8047 7.5625 3.25 1.5 1.4492 2.25 3.5117 2.25 6.1875 0 3.5234-1.0469 6.1406-3.1406 7.8594-2.0859 1.7188-5.2734 2.5781-9.5625 2.5781-2.0234 0-4.0547-0.19531-6.0938-0.57812-2.0312-0.38281-4.0625-0.95703-6.0938-1.7188v-6.9375c2.0312 1.0859 3.9922 1.9023 5.8906 2.4531 1.9062 0.54297 3.7422 0.8125 5.5156 0.8125 1.7891 0 3.1602-0.29688 4.1094-0.89062 0.95703-0.60156 1.4375-1.457 1.4375-2.5625 0-1-0.32422-1.7695-0.96875-2.3125-0.64844-0.53906-1.9375-1.0234-3.875-1.4531l-3.1875-0.70312c-3.1875-0.6875-5.5234-1.7734-7-3.2656-1.4688-1.5-2.2031-3.5156-2.2031-6.0469 0-3.1758 1.0234-5.6172 3.0781-7.3281 2.0508-1.707 5-2.5625 8.8438-2.5625 1.75 0 3.5508 0.13281 5.4062 0.39062 1.8516 0.26172 3.7695 0.65625 5.75 1.1875z"/>
  </symbol>
  <symbol id="c" overflow="visible">
   <path d="m15.062-19.031c-1.6992 0-2.9961 0.60938-3.8906 1.8281-0.88672 1.2188-1.3281 2.9766-1.3281 5.2656 0 2.293 0.44141 4.0469 1.3281 5.2656 0.89453 1.2188 2.1914 1.8281 3.8906 1.8281 1.6641 0 2.9375-0.60938 3.8125-1.8281 0.88281-1.2188 1.3281-2.9727 1.3281-5.2656 0-2.2891-0.44531-4.0469-1.3281-5.2656-0.875-1.2188-2.1484-1.8281-3.8125-1.8281zm0-5.4688c4.1133 0 7.3281 1.1094 9.6406 3.3281s3.4688 5.2969 3.4688 9.2344c0 3.9297-1.1562 7.0078-3.4688 9.2344-2.3125 2.2188-5.5273 3.3281-9.6406 3.3281-4.1367 0-7.3711-1.1094-9.7031-3.3281-2.3242-2.2266-3.4844-5.3047-3.4844-9.2344 0-3.9375 1.1602-7.0156 3.4844-9.2344 2.332-2.2188 5.5664-3.3281 9.7031-3.3281z"/>
  </symbol>
 </defs>
 <g>
  <path d="m107.09 371.04c0.49609-2.8125 1.168-5.5859 2.0234-8.3125 3.8008-12.211 11.918-22.625 22.836-29.293 10.918-6.6641 23.887-9.1289 36.488-6.9297l31.5 5.5469c-2.6797 4.7227-6.7539 8.5-11.664 10.816-4.9102 2.3125-10.418 3.0547-15.766 2.1133l-7.5703-1.3398v0.003907c-6.2188-1.1797-12.656-0.14453-18.191 2.9258-5.5391 3.0664-9.8281 7.9766-12.129 13.875-2.5938 7.2773-1.8555 15.332 2.0195 22.02 3.8789 6.6875 10.5 11.332 18.105 12.699l34.465 6.0742 0.003907-0.003907c25.137 4.4336 51.004-1.3047 71.91-15.945 20.91-14.637 35.148-36.984 39.582-62.121 0.50781-2.793 1.1758-5.5586 1.9961-8.2773 5.8984 5.625 13.723 8.793 21.875 8.8555 5.1289-0.019531 10.188-1.2422 14.758-3.5703 6.1523-3.0195 11.176-7.9297 14.332-14.008 3.1602-6.082 4.2852-13.016 3.2148-19.785l-3.7891-25.551c34.121-18.27 61.379-47.137 77.664-82.25 1.9766-4.4102 0-9.5898-4.4102-11.566-4.4102-1.9766-9.5898 0-11.566 4.4102-8.3359 18.336-20.23 34.832-35 48.527l-5.7227-38.613c-4.4805-29.859-19.164-57.242-41.555-77.5-3.582-3.2422-9.1172-2.9648-12.359 0.61719-3.2422 3.5859-2.9648 9.1172 0.61719 12.359 19.371 17.539 32.074 41.238 35.953 67.078l7.3047 49.305c-4.375 3.2031-8.9609 6.2031-13.703 9.0742l-2.5469-17.195 0.003906 0.003907c-4.7383-30.875-20.336-59.047-43.984-79.457-23.648-20.406-53.801-31.711-85.035-31.879-17.559 0.015625-34.867 4.125-50.559 12.004 18.176-24.102 46.621-38.27 76.809-38.254 16.918-0.039062 33.625 3.7617 48.859 11.121 4.3047 1.8359 9.2891-0.035156 11.316-4.25 2.0312-4.2148 0.38672-9.2812-3.7305-11.5-17.598-8.5039-36.898-12.906-56.445-12.871-23.848-0.019531-47.098 7.4648-66.453 21.391-19.359 13.93-33.84 33.594-41.398 56.215-0.058594 0.31641-0.10156 0.63672-0.125 0.96094-18.762 19.383-29.988 44.824-31.656 71.75-0.15625 2.4141-0.36719 4.7695-0.36719 7.1836 0 2.3203 0.92188 4.5469 2.5625 6.1875s3.8672 2.5625 6.1875 2.5625c11.055 0.035156 22.098 0.75 33.066 2.1445 2.332 0.34766 4.7031-0.26172 6.582-1.6836 1.875-1.4258 3.0977-3.5469 3.3906-5.8867 0.29297-2.3359-0.37109-4.6953-1.8398-6.5391s-3.6172-3.0156-5.9648-3.25c-8.6992-1.0938-17.266-1.75-25.586-2.0898l0.003906-0.003906c2.7539-16.879 13.578-31.352 28.988-38.766 15.414-7.4141 33.473-6.8398 48.383 1.5391 14.91 8.3828 24.789 23.516 26.465 40.535 0.25781 2.6055 1.668 4.9609 3.8438 6.418 2.1797 1.4531 4.8945 1.8555 7.3984 1.0977 11.906-3.7266 24.758-3.0625 36.215 1.875 11.457 4.9414 20.766 13.824 26.234 25.039 5.4648 11.215 6.7305 24.02 3.5625 36.086-34.117-31.109-75.309-53.422-120.01-64.996-4.6797-1.207-9.4531 1.6094-10.66 6.2891-1.2109 4.6797 1.6055 9.4531 6.2852 10.66 40.18 10.363 77.383 29.969 108.64 57.262-2.3633 5.8594-4.1367 11.938-5.293 18.148-3.6289 20.562-15.277 38.848-32.383 50.824-17.105 11.98-38.27 16.672-58.836 13.051l-34.477-6.125c-2.5508-0.44922-4.7695-2.0039-6.0625-4.2461-1.293-2.2422-1.5273-4.9453-0.64062-7.375 1.875-4.1211 6.3672-6.3789 10.789-5.4258l7.5586 1.3281 0.003906 0.003906c11.426 2.0156 23.188-0.58984 32.695-7.2461 9.5039-6.6562 15.977-16.816 17.992-28.246 0.83594-4.7578-2.3398-9.293-7.0977-10.133l-41.5-7.2695c-16.789-2.9375-34.07 0.33594-48.621 9.207-14.551 8.875-25.371 22.742-30.445 39.012-1.082 3.4414-1.9336 6.9492-2.543 10.5-2.9609 16.828-0.78125 34.152 6.2539 49.719 1.9805 4.4102 7.1602 6.3789 11.566 4.4023 4.4102-1.9805 6.3828-7.1602 4.4023-11.566-5.6016-12.363-7.3516-26.129-5.0234-39.5zm161-159.58c-8.2461-1.7109-16.734-1.9297-25.059-0.63672-4.9102-20.043-18.414-36.895-36.902-46.059-18.488-9.1602-40.074-9.6992-58.996-1.4727 18.223-20.391 44.27-32.047 71.617-32.043 27.051 0.13672 53.164 9.9219 73.648 27.59 20.48 17.672 33.988 42.07 38.09 68.809l9.082 61.25c0.51953 3.1289 0.007813 6.3359-1.4531 9.1523-1.4609 2.8125-3.793 5.0742-6.6484 6.4492-3.9219 2.0039-8.5312 2.1797-12.594 0.47266 7.5273-19.113 6.2109-40.574-3.5938-58.625-9.8047-18.047-27.09-30.836-47.215-34.93z"/>
  <path d="m609.11 152.94c-2.5703-4.5117-7.0195-7.6445-12.137-8.5391l-17.648-3.1133v-0.003906c-4.7578-0.83984-9.3008 2.3359-10.141 7.0977-0.83984 4.7578 2.3359 9.3008 7.0977 10.141l17.648 3.1133-3.1133 8.3281-13.887-2.4414-0.003906 0.003906c-2.3086-0.46094-4.7031 0.027344-6.6484 1.3555-1.9414 1.3281-3.2695 3.3828-3.6797 5.7031-0.41016 2.3164 0.13281 4.7031 1.5039 6.6172 1.3711 1.9141 3.4531 3.1953 5.7812 3.5547l10.703 1.8906-4.375 11.621-0.003906-0.003906c-1.4609 5.0703-4.1289 9.707-7.7773 13.52l-20.938-15.531c-4.3711-3.2461-9.6484-5.0312-15.09-5.1055-5.4414-0.074219-10.766 1.5703-15.223 4.6953-3.957 2.7695-4.9219 8.2266-2.1523 12.188 2.7734 3.9609 8.2305 4.9258 12.191 2.1523 2.9688-2.082 6.9375-2.0312 9.8516 0.13281l15.391 11.375c-5.7734 1.8281-11.898 2.2461-17.867 1.2227l-49.875-8.793-8.6094-1.5234c-4.5703-0.80469-8.6328-3.3906-11.297-7.1914-2.6641-3.8008-3.707-8.5039-2.9062-13.074 0.46094-2.3086-0.027344-4.7031-1.3555-6.6484-1.3281-1.9414-3.3828-3.2695-5.7031-3.6797-2.3164-0.41016-4.7031 0.13281-6.6172 1.5039-1.9141 1.3711-3.1914 3.4531-3.5508 5.7812-1.6133 9.1406 0.47266 18.547 5.793 26.152 5.3242 7.6055 13.449 12.781 22.59 14.395l-4.5664 26.086c-14.488 3.1484-28.215 9.125-40.391 17.586-1.5234 1.0664-3.0469 2.25-4.5859 3.5-4.6133-3.7109-10.352-5.7422-16.273-5.7578-4.832 0-8.75 3.918-8.75 8.75s3.918 8.75 8.75 8.75c2.3203 0 4.5469 0.92188 6.1875 2.5625s2.5625 3.8672 2.5625 6.1875c0 4.4375 3.3242 8.1719 7.7344 8.6875l52.77 6.125h0.003906c6.6406 0.68359 12.512 4.6172 15.668 10.5 0.11719 0.32422 0.25 0.64062 0.40234 0.94531h-85.328c-4.6406 0-9.0938-1.8438-12.375-5.125s-5.125-7.7344-5.125-12.375c0-4.832-3.918-8.75-8.75-8.75s-8.75 3.918-8.75 8.75c0.035156 10.344 4.6758 20.137 12.66 26.715-1.4844 4.5859-2.6719 9.2617-3.5508 14l-7 39.945c-7.8633-6.8516-17.93-10.641-28.359-10.668-4.832 0-8.75 3.918-8.75 8.75s3.918 8.75 8.75 8.75c6.9609 0 13.641 2.7656 18.562 7.6875s7.6875 11.602 7.6875 18.562v78.75c0 2.3203 0.92188 4.5469 2.5625 6.1875s3.8672 2.5625 6.1875 2.5625h8.75c5.4258 0.007812 10.719 1.6914 15.152 4.8242 4.4297 3.1328 7.7852 7.5625 9.6016 12.676h-51.004c-6.9609 0-13.641-2.7656-18.562-7.6875s-7.6875-11.602-7.6875-18.562v-52.5c0-2.3203-0.92188-4.5469-2.5625-6.1875s-3.8672-2.5625-6.1875-2.5625c-6.9609 0-13.641-2.7656-18.562-7.6875s-7.6875-11.602-7.6875-18.562c0-4.832-3.918-8.75-8.75-8.75s-8.75 3.918-8.75 8.75c0.039062 6.0078 1.3242 11.938 3.7812 17.422-44.684-6.3555-90.242 0.99219-130.66 21.078-0.875-0.15625-1.75-0.30469-2.7656-0.55859-10.359-2.3125-20.023-7.0547-28.191-13.836-3.7422-2.918-9.1289-2.3203-12.141 1.3477-3.0117 3.668-2.5508 9.0664 1.0352 12.172 10.219 8.4922 22.305 14.438 35.266 17.352 1.3906 0.35156 2.9141 0.64063 4.3047 0.875l129.37 22.777v8.8711c0.015625 11.598 4.6289 22.719 12.828 30.922 8.2031 8.1992 19.324 12.812 30.922 12.828h96.25c2.3203 0 4.5469-0.92188 6.1875-2.5625s2.5625-3.8672 2.5625-6.1875c-0.015625-11.598-4.6289-22.719-12.828-30.922-8.2031-8.1992-19.324-12.812-30.922-12.828v-70c-0.058594-4.0352-0.68359-8.0391-1.8555-11.898 0.64844-2.0938 1.1758-4.2266 1.5742-6.3789l9.1289-51.723c0.57031-3.1758 1.3047-6.3164 2.2031-9.4141 2.125 0.42187 4.2852 0.64453 6.4492 0.66406h46.191l-3.1484 17.887c-0.50781 2.8867-1.207 5.7148-1.8984 8.5469l-25.473-4.4883c-4.7617-0.83984-9.3008 2.3359-10.141 7.0977-0.84375 4.7578 2.3359 9.2969 7.0938 10.141l23.309 4.1055 0.003906-0.003906c-3.1719 8.2578-7.1133 16.191-11.777 23.703l-10.5-8.6992v0.003907c-1.7734-1.5703-4.1094-2.3516-6.4688-2.168-2.3594 0.17969-4.5469 1.3125-6.0586 3.1328-1.5117 1.8242-2.2227 4.1797-1.9688 6.5312 0.25391 2.3555 1.4531 4.5039 3.3203 5.9609l11.516 9.625c-5.4805 6.8203-11.59 13.113-18.254 18.785-3.6875 3.125-4.1406 8.6484-1.0195 12.336 3.125 3.6836 8.6484 4.1406 12.336 1.0195 27.961-23.711 46.766-56.441 53.164-92.543l3.7266-20.973h29.574c1.9609 1.2617 3.4492 3.1367 4.2383 5.3281 0.91016 2.7188 0.69531 5.6914-0.59766 8.25-1.0391 2.0781-1.207 4.4844-0.47266 6.6836 0.73438 2.2031 2.3164 4.0234 4.3945 5.0625 1.2109 0.60938 2.5508 0.92578 3.9102 0.92578 3.332 0.019531 6.3828-1.8516 7.875-4.8281 2.9336-5.8789 3.7344-12.59 2.2695-18.992-1.4688-6.3984-5.1133-12.094-10.312-16.105l0.30469-0.0625h0.003906c3.6055-0.73438 7.3555-0.26172 10.668 1.3477 3.3086 1.6094 6 4.2617 7.6523 7.5508 2.1602 4.3281 7.418 6.082 11.742 3.9219 4.3281-2.1602 6.082-7.418 3.9219-11.742-3.3867-6.7344-8.8945-12.168-15.676-15.461-6.7812-3.293-14.457-4.2617-21.844-2.7578l-3.332 0.69141c-0.55859-0.8125-1.1445-1.5938-1.75-2.3555h-0.003907c3.0352-4.2383 8.6875-5.6641 13.371-3.375 4.3242 2.1602 9.582 0.40625 11.742-3.9219 2.1602-4.3242 0.40625-9.582-3.918-11.742-5.9297-2.9453-12.703-3.7266-19.145-2.1992-6.4414 1.5273-12.145 5.2617-16.117 10.555-3.2812-1.4531-6.7539-2.4258-10.309-2.8867l10.973-62.211 41.273 7.2695c12.914 2.457 26.281 0.097657 37.574-6.6328 11.293-6.7266 19.73-17.359 23.719-29.891l13.441-35.875c1.8164-4.8906 1.3516-10.34-1.2617-14.855zm-311.68 294.04 14 2.4688c3.8398 2.1797 7.9922 3.7539 12.312 4.6719v20.371c-7.6836 0.4375-15.387 0.24609-23.039-0.57812 0.32422-4.5312-2.8711-8.5547-7.3594-9.2656-4.4844-0.71094-8.7656 2.1289-9.8594 6.5352l-25.855-4.5586c0.83594-4.7617-2.3477-9.2969-7.1055-10.133-4.7617-0.83594-9.2969 2.3438-10.133 7.1055l-46.645-8.2266h-0.003906c33.273-11.645 68.98-14.535 103.69-8.3906zm8.8125 51.766v-6.8945c3.2539 0.20312 6.5 0.42188 9.7734 0.42188 2.5742 0 5.1523-0.24609 7.7266-0.36719v6.8398c0.03125 9.4961 3.1875 18.723 8.9766 26.25h-0.22656c-6.9609 0-13.641-2.7656-18.562-7.6875s-7.6875-11.602-7.6875-18.562zm162.92-224-3.2109 18.254-26.574-3.0977c0.875-0.70703 1.8477-1.4531 2.7461-2.0898v-0.003906c8.2695-5.7461 17.395-10.152 27.039-13.062z"/>
  <path d="m499.37 153.84c-0.61719 3.4844 0.92969 6.9961 3.9141 8.8984 2.9844 1.9023 6.8242 1.8203 9.7227-0.21094 2.8984-2.0312 4.2891-5.6094 3.5234-9.0625-0.76953-3.457-3.543-6.1094-7.0273-6.7227-4.7578-0.83594-9.293 2.3398-10.133 7.0977z"/>
  <path d="m378.73 132.57 25.375 4.4805c14.602 2.5312 27.582 10.797 36.051 22.961 4.6016 6.6523 12.156 10.652 20.246 10.719h0.35937c7.9648 0.039062 15.469-3.7383 20.188-10.16 3.9336-5.3203 5.6172-11.977 4.6758-18.527-0.9375-6.5508-4.418-12.469-9.6914-16.473 12.77-1.9609 25.785 1.4531 35.945 9.4336l7.6484 5.75c8.4883 6.5664 18.441 10.984 29.004 12.879 0.50781 0.085938 1.0195 0.12891 1.5312 0.13281 4.5391 0 8.3281-3.4688 8.7227-7.9922 0.39453-4.5234-2.7344-8.5938-7.207-9.3789-7.8516-1.4219-15.238-4.7266-21.535-9.625l-7.6641-5.7578c-9.207-7.1055-20.156-11.609-31.699-13.039-11.543-1.4336-23.262 0.26172-33.926 4.9023-16.633-8.3281-35.805-10.051-53.656-4.8203l-25.297 7.5234c-3.8867 1.1602-6.4648 4.8359-6.2344 8.8867 0.23047 4.0469 3.2148 7.4062 7.207 8.1133zm78.516 0.91797 8.043 5.9688h-0.003906c3.3867 2.5156 4.0938 7.2969 1.582 10.684-1.4414 1.9961-3.7734 3.1523-6.2383 3.0898-2.4453-0.03125-4.7305-1.2422-6.125-3.2539-8.7812-12.629-21.34-22.152-35.875-27.195 13.75-1.293 27.496 2.5195 38.613 10.707z"/>
  <use x="70" y="691.25" xlink:href="#o"/>
  <use x="102.109375" y="691.25" xlink:href="#j"/>
  <use x="123.683594" y="691.25" xlink:href="#b"/>
  <use x="153.355469" y="691.25" xlink:href="#a"/>
  <use x="182.878906" y="691.25" xlink:href="#i"/>
  <use x="203.792969" y="691.25" xlink:href="#b"/>
  <use x="233.464844" y="691.25" xlink:href="#h"/>
  <use x="280.011719" y="691.25" xlink:href="#g"/>
  <use x="311.328125" y="691.25" xlink:href="#f"/>
  <use x="355.078125" y="691.25" xlink:href="#e"/>
  <use x="384.921875" y="691.25" xlink:href="#n"/>
  <use x="399.917969" y="691.25" xlink:href="#d"/>
  <use x="431.238281" y="691.25" xlink:href="#d"/>
  <use x="462.554688" y="691.25" xlink:href="#a"/>
  <use x="492.078125" y="691.25" xlink:href="#m"/>
  <use x="532.492188" y="691.25" xlink:href="#a"/>
  <use x="562.015625" y="691.25" xlink:href="#l"/>
  <use x="608.394531" y="691.25" xlink:href="#k"/>
  <use x="639.902344" y="691.25" xlink:href="#c"/>
  <use x="669.960937" y="691.25" xlink:href="#c"/>
 </g>
</svg>
