<?xml version="1.0" encoding="UTF-8"?>
<svg width="700pt" height="700pt" version="1.1" viewBox="0 0 700 700" xmlns="http://www.w3.org/2000/svg">
 <path d="m276.55 291.83-24.746-24.762c-3.4141-3.4141-8.9609-3.4141-12.371 0l-24.762 24.762c-3.4141 3.4141-3.4141 8.9609 0 12.371l37.137 37.117-12.301 12.285-24.746 24.762-33.215 33.215c-8.207 0.50781-16.273 3.9023-22.559 10.168-13.648 13.668-13.648 35.84 0 49.508 13.668 13.648 35.84 13.648 49.508 0 6.2656-6.2812 9.6602-14.352 10.168-22.559l20.684-20.668 24.746-24.762 24.832-24.832 37.117 37.137c3.4297 3.4141 8.9609 3.4141 12.391 0l24.746-24.746c3.4141-3.4297 3.4141-8.9609 0-12.391l-24.746-24.746 198.14-198.14c1.2266-1.2266 2.0664-2.8008 2.3984-4.5156l12.129-62.109c0.55859-2.8867-0.35156-5.8438-2.4336-7.8906-2.082-2.0664-5.0586-2.957-7.9102-2.3633l-61.637 12.617c-1.6797 0.35156-3.2188 1.1719-4.4258 2.3984zm-80.43 142.29c6.8242 6.8438 6.8242 17.922 0 24.762-6.8242 6.8242-17.922 6.8242-24.746 0-6.8438-6.8438-6.8438-17.922 0-24.762 6.8242-6.8242 17.922-6.8242 24.746 0zm17.781-5.4062 9.3281-9.3281-6.1758-18.551-15.523 15.504c2.4844 1.4688 4.8281 3.2734 6.9648 5.4062 2.1367 2.1367 3.9375 4.4805 5.4062 6.9648zm16.977-41.719 6.1953 18.566 10.902-10.922-6.1758-18.566zm113.73-2.3633-12.371 12.371-98.996-98.996 12.371-12.371zm-88.988-22.383 6.1953 18.551 14.734-14.734-12.371-12.371-8.5586 8.5586zm70.422-20.93 196.26-196.25 9.1016-46.621s-46.199 9.4688-46.199 9.4688l-196.28 196.28 12.371 12.371 86.625-86.625c3.4141-3.4141 8.9609-3.4141 12.371 0 3.4141 3.4141 3.4141 8.9609 0 12.371l-86.625 86.625 12.371 12.371z" fill-rule="evenodd"/>
</svg>
