<?xml version="1.0" encoding="UTF-8"?>
<svg width="1200pt" height="1200pt" version="1.1" viewBox="0 0 1200 1200" xmlns="http://www.w3.org/2000/svg">
 <g>
  <path d="m1040.6 541.23c-30.488-38.672-76.219-60.848-125.47-60.848h-8.7188c-0.0625 0-0.11719-0.019531-0.17969-0.019531h-51.672c-0.050781 0-0.097657 0.019531-0.14844 0.019531h-19.59c-14.961 0-29.781 3.8086-42.875 11.031l-1.5664 0.85938c-21.461 11.82-46.992 11.672-68.324-0.38281-13.301-7.5273-28.426-11.508-43.734-11.508h-20.629c-0.050781 0-0.097656-0.019531-0.14844-0.019531h-51.672c-0.0625 0-0.11719 0.019531-0.17969 0.019531h-8.7266c-32.18 0-62.238 17.258-78.453 45.043l-112.24 192.21c-1.5117 2.582-3.9531 4.332-6.8945 4.918-2.9023 0.57812-5.8516-0.089844-8.2383-1.9062l-91.52-69.426 1.6953-29.074c0.98828-16.754-4.9375-32.98-15.984-45.234l62.934-59.23c0.57031-0.53516 1.0195-1.1445 1.5039-1.7344 35.207-2.4883 59.641-14.445 72.465-35.715 22.594-37.508-0.53906-88.688-1.5391-90.848-1.3359-2.9023-4.0742-4.918-7.2422-5.3555-3.1602-0.42188-6.3438 0.77734-8.4141 3.2148-0.25781 0.29297-25.469 29.48-57.203 32.969-16.004 1.7578-27.73 8.0938-34.863 18.84-12.094 18.246-5.2109 41.977-4.9062 42.977 0.074219 0.25391 0.26172 0.42969 0.35938 0.67188l-68.617 72.906c-2.625-0.91406-5.3398-1.5938-8.1602-1.875-10.227-1.043-20.445 2.4531-27.934 9.5391l-56.148 53.117c-7.2422 6.8555-11.289 16.496-11.105 26.469 0.11328 6.1328 1.9922 12 5.0391 17.207l-28.992 30.805c-6.5664 6.9766-6.4102 17.902 0.34766 24.688 6.7773 6.8086 17.742 6.9844 24.738 0.40234l23.168-21.805 47.383 43.738s0.003906 0.003907 0.007812 0.003907l128.84 120.05c20.5 19.098 47.004 28.758 73.562 28.758 23.906 0 47.844-7.8203 67.492-23.613l66.668-53.598c7.0273 47.633 18.777 143.77 10.723 210.37-1.3359 11.051 7.5078 20.703 18.637 20.703h363.97c11.133 0 19.973-9.6484 18.637-20.703-4.3281-35.797-2.9258-80.129 0.37891-120.89 4.8555-0.60156 18.008-2.543 29.719-7.1172 0.125-0.046875 0.20313-0.15234 0.32031-0.20703 19.754-6.6445 38.012-17.465 53.438-32.25 28.023-26.879 44.102-64.562 44.102-103.4v-87.828c-0.003907-45.844-15.641-90.922-44.031-126.94zm-712.01-91.816c3.9102-5.8867 11.07-9.4492 21.285-10.566 25.352-2.7812 46.418-17.844 58.484-28.535 4.5977 15.344 9.3555 41.117-2.2344 60.289-9.1016 15.062-27.387 23.855-54.18 26.359-0.83594-1.6953-1.875-3.3203-3.2852-4.7344l-12.383-12.414c-2.9922-3-6.7891-4.625-10.691-5.0352-0.95703-4.5078-2.793-16.629 3.0039-25.363zm458.18 434.24-5.8438 0.44531c-21.031 1.5742-41.105-8.5586-52.23-26.551-7.9922-12.91-19.555-22.988-33.453-29.148l-5.082-2.2539c-4.918-2.1797-8.0742-7.0586-8.0547-12.422 0.027344-7.3164 5.9961-13.359 13.312-13.477l65.477-1.082c0.63672-0.011718 1.2344-0.16016 1.8594-0.21094 14.215-1.1719 25.414-12.691 25.801-27.164l0.55859-21.523c4.918 1.9766 9.1445 5.5312 11.91 10.191l15.316 25.887c-0.1875 0.73828-0.38281 1.4766-0.38281 2.2656v92.824zm-73.949-375.44c13.66 7.7344 28.691 11.602 43.727 11.602 14.711 0 29.426-3.6992 42.883-11.113l1.5664-0.85938c9.4375-5.207 20.031-8.0352 30.793-8.5039l-44.664 66.137c-14.871 22.016-47.285 22.016-62.152 0l-44.707-66.203c11.398 0.3125 22.617 3.3281 32.555 8.9414zm-557.62 134.3c-0.089844-4.7773 1.7656-9.2109 5.2461-12.496l56.148-53.117c1.9375-1.8359 4.2734-3.0859 6.7695-3.8242 1.5391-0.45703 3.1211-0.76172 4.75-0.76172 0.55859 0 1.1094 0.027344 1.668 0.082031 4.8516 0.47656 9.2383 3.0391 12.047 7.0234v0.007813c3.3867 4.793 5.0742 10.383 5.1172 15.98 0.042968 5.5781-1.5938 11.145-4.8594 15.965-0.15625 0.23047-0.26953 0.48437-0.43359 0.71094l-5.0312 6.9688-4.2891 5.9414c-3.8008 5.2539-9.3398 9.0625-15.602 10.723l-53.734 14.246-5.125 1.3594c-1.2266-1.875-1.8906-4.0117-2.2734-6.2383-0.14453-0.85938-0.38281-1.6875-0.39844-2.5703zm41.359 17.945 24.969-6.6172c10.445-2.7656 19.684-9.1094 26-17.879l9.3203-12.91c4.5703-6.3281 7.3164-13.523 8.3516-20.91l7.8516-10.883c6.7031 8.3125 10.18 18.914 9.5391 29.801l-1.7812 30.508-66.566 66.449-39.801-36.742zm343.51 120.01s0.49219 2.7656 1.2969 7.6445l-75.09 60.371c-34.25 27.547-84.348 25.734-116.52-4.25l-121.76-113.45 62.805-62.695 88.988 67.512c6.6211 5.0273 15.086 6.957 23.246 5.3477 8.1484-1.6211 15.227-6.6758 19.41-13.852l112.24-192.21c11.199-19.18 30.719-32.02 52.422-35.035v38.969c0 4.0195-1.1758 7.8945-3.4336 11.219-14.965 22.062-72.488 116.73-43.609 230.43zm236.21 181.58c-29.414 20.172-119.87 7.2344-181.87-118.92s60.762-190.14 60.762-190.14 59.25-33.422 101.61 28.352c12.484 18.207 13.895 36.012 13.895 54.238 0 2.7266-0.082031 5.1953-0.13281 7.7461l-0.17969 6.8281c-0.41797 10.168-1.2656 18.801-2.375 26.188-1.668 2.375-4.2773 4.0273-7.3984 4.0781l-65.477 1.082c-17.441 0.28516-31.688 14.703-31.75 32.164-0.035156 12.816 7.5 24.445 19.207 29.625l5.082 2.2539c10.43 4.625 19.105 12.188 25.105 21.883 13.805 22.312 37.875 35.594 63.812 35.594 1.9219 0 3.8555-0.074219 5.7969-0.21875l11.836-0.90234c5.668 22.785 0.125 47.777-17.922 60.152zm289.6-206.05c0 33.754-13.973 66.504-38.332 89.867-12.77 12.238-27.777 21.336-44.004 27.18l-0.011719 0.71094c-1.1914-0.023437-2.4062 0.16797-3.5898 0.62891-7.4648 2.9219-16.02 4.5898-21.18 5.4258-2.8789 0.46484-4.7344 0.67969-4.6719 0.69141h-119.38v-84.551l3.2422-0.79688 147.69-36.383 2.4219-0.59766c5.0273-1.2344 8.1016-6.3164 6.8555-11.344-1.2344-5.0273-6.3359-8.1484-11.344-6.8555l-6.5898 1.6211c6.0195-96.598-36.883-172.52-48.93-191.71-1.9883-3.1719-3.0781-6.8242-3.0781-10.57v-39.621c39.668 2.7305 76.047 21.625 100.9 53.152 25.789 32.723 40 73.68 40 115.33z"/>
  <path d="m721.88 712.5c0 10.355-8.3945 18.75-18.75 18.75s-18.75-8.3945-18.75-18.75 8.3945-18.75 18.75-18.75 18.75 8.3945 18.75 18.75"/>
  <path d="m665.62 759.38c0 15.531-12.594 28.125-28.125 28.125s-28.125-12.594-28.125-28.125 12.594-28.125 28.125-28.125 28.125 12.594 28.125 28.125"/>
  <path d="m703.12 890.62c0 10.355-8.3945 18.75-18.75 18.75s-18.75-8.3945-18.75-18.75 8.3945-18.75 18.75-18.75 18.75 8.3945 18.75 18.75"/>
  <path d="m565.44 391.55c-1.5586 3.8984-2.4727 8.1328-2.4727 12.59 0 18.781 15.227 34.012 34.012 34.012 14.266 0 26.438-8.8047 31.488-21.258 30.703 31.91 73.754 51.855 121.54 51.855 61.164 0 114.57-32.648 144.16-81.363 3.0391 0.89062 6.1875 1.5156 9.5117 1.5156 18.785 0 34.012-15.227 34.012-34.012 0-10.227-4.6055-19.289-11.75-25.523 12.891-4.8359 22.109-17.172 22.109-31.754 0-12.77-7.1211-23.762-17.531-29.578 10.41-5.8164 17.531-16.809 17.531-29.578 0-16.961-12.453-30.906-28.695-33.473 0.71484-2.7461 1.2148-5.5781 1.2148-8.5469 0-18.785-15.227-34.012-34.012-34.012-9.9492 0-18.812 4.3477-25.031 11.156-29.75-26.266-68.715-42.332-111.52-42.332-84.824 0-154.83 62.652-166.76 144.16-2.418-0.54687-4.9102-0.89062-7.4961-0.89062-18.781 0-34.012 15.227-34.012 34.012 0 10.148 4.5312 19.152 11.578 25.383-7.0469 6.2305-11.578 15.238-11.578 25.383 0 15.168 9.9961 27.863 23.703 32.25zm184.56 58.449c-62.352 0-115.9-38.258-138.5-92.516 60.965-2.6641 77.465-30.266 81.719-47.695 2.0273-8.3086 9.2656-14.086 17.789-14.824 53.387-4.6211 72.691-31.566 79.617-48.754 3.2109-7.9727 11.305-12.973 19.855-12.098 29.055 2.9805 46.242-2.9336 56.398-10.027 3.3398-2.332 6-4.7773 7.9648-7.0977 2.4531 3.6758 4.7695 7.4453 6.8945 11.336 0.30859 0.5625 0.55859 1.1523 0.85938 1.7188 6.1562 11.625 10.797 24.148 13.734 37.32 0.089844 0.39844 0.21875 0.77734 0.30078 1.1758 2.168 10.16 3.3711 20.668 3.3711 31.461 0 7.293-0.69922 14.41-1.7109 21.426-0.27344 1.9062-0.52734 3.8164-0.87109 5.6953-3.3203 18.09-9.9258 34.996-19.129 50.203-26.301 43.465-73.887 72.676-128.29 72.676z"/>
 </g>
</svg>
