<?xml version="1.0" encoding="UTF-8"?>
<svg width="700pt" height="700pt" version="1.1" viewBox="0 0 700 700" xmlns="http://www.w3.org/2000/svg" xmlns:xlink="http://www.w3.org/1999/xlink">
 <defs>
  <symbol id="m" overflow="visible">
   <path d="m29.312-1.75c-1.5117 0.78125-3.0898 1.3711-4.7344 1.7656-1.6367 0.40625-3.3398 0.60938-5.1094 0.60938-5.3125 0-9.5273-1.4844-12.641-4.4531-3.1055-2.9688-4.6562-7-4.6562-12.094s1.5508-9.125 4.6562-12.094c3.1133-2.9688 7.3281-4.4531 12.641-4.4531 1.7695 0 3.4727 0.19922 5.1094 0.59375 1.6445 0.39844 3.2227 0.99219 4.7344 1.7812v6.5938c-1.5312-1.0391-3.0391-1.8008-4.5156-2.2812-1.4805-0.48828-3.0391-0.73438-4.6719-0.73438-2.9375 0-5.2461 0.94531-6.9219 2.8281-1.6797 1.875-2.5156 4.4648-2.5156 7.7656 0 3.293 0.83594 5.8828 2.5156 7.7656 1.6758 1.875 3.9844 2.8125 6.9219 2.8125 1.6328 0 3.1914-0.23828 4.6719-0.71875 1.4766-0.48828 2.9844-1.2539 4.5156-2.2969z"/>
  </symbol>
  <symbol id="h" overflow="visible">
   <path d="m21.453-17.406c-0.67969-0.3125-1.3516-0.53906-2.0156-0.6875-0.65625-0.15625-1.3203-0.23438-1.9844-0.23438-1.9688 0-3.4844 0.63281-4.5469 1.8906-1.0547 1.2617-1.5781 3.0703-1.5781 5.4219v11.016h-7.6562v-23.922h7.6562v3.9219c0.97656-1.5625 2.1016-2.7031 3.375-3.4219 1.2812-0.71875 2.8125-1.0781 4.5938-1.0781 0.25 0 0.52344 0.011719 0.82812 0.03125 0.30078 0.023438 0.73438 0.070312 1.2969 0.14062z"/>
  </symbol>
  <symbol id="d" overflow="visible">
   <path d="m27.562-12.031v2.1875h-17.891c0.1875 1.793 0.83203 3.1367 1.9375 4.0312 1.1133 0.89844 2.6719 1.3438 4.6719 1.3438 1.6016 0 3.25-0.23438 4.9375-0.70312 1.6875-0.47656 3.4219-1.2031 5.2031-2.1719v5.8906c-1.8047 0.6875-3.6094 1.2031-5.4219 1.5469-1.8125 0.35156-3.6211 0.53125-5.4219 0.53125-4.3359 0-7.7031-1.0977-10.109-3.2969-2.3984-2.207-3.5938-5.2969-3.5938-9.2656 0-3.9062 1.1758-6.9727 3.5312-9.2031 2.3633-2.2383 5.6094-3.3594 9.7344-3.3594 3.7578 0 6.7695 1.1367 9.0312 3.4062 2.2578 2.2617 3.3906 5.2812 3.3906 9.0625zm-7.8594-2.5312c0-1.457-0.42969-2.6289-1.2812-3.5156-0.84375-0.89453-1.9492-1.3438-3.3125-1.3438-1.4922 0-2.6992 0.41797-3.625 1.25-0.91797 0.83594-1.4922 2.0391-1.7188 3.6094z"/>
  </symbol>
  <symbol id="b" overflow="visible">
   <path d="m14.391-10.766c-1.5938 0-2.793 0.27344-3.5938 0.8125-0.80469 0.54297-1.2031 1.3398-1.2031 2.3906 0 0.96875 0.32031 1.7305 0.96875 2.2812 0.64453 0.54297 1.5469 0.8125 2.7031 0.8125 1.4375 0 2.6445-0.51562 3.625-1.5469 0.98828-1.0312 1.4844-2.3203 1.4844-3.875v-0.875zm11.688-2.8906v13.656h-7.7031v-3.5469c-1.0312 1.4492-2.1875 2.5078-3.4688 3.1719s-2.8398 1-4.6719 1c-2.4805 0-4.4961-0.72266-6.0469-2.1719-1.543-1.4453-2.3125-3.3203-2.3125-5.625 0-2.8125 0.96094-4.8672 2.8906-6.1719 1.9375-1.3125 4.9688-1.9688 9.0938-1.9688h4.5156v-0.60938c0-1.207-0.48047-2.0938-1.4375-2.6562-0.94922-0.5625-2.4375-0.84375-4.4688-0.84375-1.6367 0-3.1562 0.16797-4.5625 0.5-1.4062 0.32422-2.7188 0.8125-3.9375 1.4688v-5.8281c1.6445-0.40625 3.2891-0.70703 4.9375-0.90625 1.6562-0.20703 3.3047-0.3125 4.9531-0.3125 4.3203 0 7.4375 0.85547 9.3438 2.5625 1.9141 1.6992 2.875 4.4609 2.875 8.2812z"/>
  </symbol>
  <symbol id="g" overflow="visible">
   <path d="m12.031-30.719v6.7969h7.875v5.4688h-7.875v10.141c0 1.1172 0.21875 1.8711 0.65625 2.2656 0.4375 0.38672 1.3125 0.57812 2.625 0.57812h3.9375v5.4688h-6.5625c-3.0234 0-5.1641-0.62891-6.4219-1.8906-1.2617-1.2578-1.8906-3.3984-1.8906-6.4219v-10.141h-3.7969v-5.4688h3.7969v-6.7969z"/>
  </symbol>
  <symbol id="a" overflow="visible">
   <path d="m19.953-20.422v-12.812h7.6875v33.234h-7.6875v-3.4531c-1.0547 1.4062-2.2148 2.4375-3.4844 3.0938-1.2734 0.65625-2.7422 0.98438-4.4062 0.98438-2.9492 0-5.3711-1.1719-7.2656-3.5156-1.8867-2.3438-2.8281-5.3594-2.8281-9.0469s0.94141-6.7031 2.8281-9.0469c1.8945-2.3438 4.3164-3.5156 7.2656-3.5156 1.6562 0 3.1172 0.33594 4.3906 1 1.2812 0.65625 2.4453 1.6836 3.5 3.0781zm-5.0469 15.484c1.6445 0 2.8945-0.59766 3.75-1.7969 0.86328-1.1953 1.2969-2.9297 1.2969-5.2031 0-2.2812-0.43359-4.0195-1.2969-5.2188-0.85547-1.1953-2.1055-1.7969-3.75-1.7969-1.625 0-2.8711 0.60156-3.7344 1.7969-0.85547 1.1992-1.2812 2.9375-1.2812 5.2188 0 2.2734 0.42578 4.0078 1.2812 5.2031 0.86328 1.1992 2.1094 1.7969 3.7344 1.7969z"/>
  </symbol>
  <symbol id="c" overflow="visible">
   <path d="m16.406-4.9375c1.6328 0 2.8828-0.59766 3.75-1.7969 0.86328-1.1953 1.2969-2.9297 1.2969-5.2031 0-2.2812-0.43359-4.0195-1.2969-5.2188-0.86719-1.1953-2.1172-1.7969-3.75-1.7969-1.6367 0-2.8906 0.60547-3.7656 1.8125-0.875 1.1992-1.3125 2.9336-1.3125 5.2031 0 2.2617 0.4375 3.9961 1.3125 5.2031 0.875 1.1992 2.1289 1.7969 3.7656 1.7969zm-5.0781-15.484c1.0508-1.3945 2.2188-2.4219 3.5-3.0781 1.2812-0.66406 2.7539-1 4.4219-1 2.9453 0 5.3672 1.1719 7.2656 3.5156 1.8945 2.3438 2.8438 5.3594 2.8438 9.0469s-0.94922 6.7031-2.8438 9.0469c-1.8984 2.3438-4.3203 3.5156-7.2656 3.5156-1.668 0-3.1406-0.33594-4.4219-1s-2.4492-1.6914-3.5-3.0781v3.4531h-7.6562v-33.234h7.6562z"/>
  </symbol>
  <symbol id="f" overflow="visible">
   <path d="m0.53125-23.922h7.6562l6.4219 16.234 5.4688-16.234h7.6562l-10.062 26.188c-1.0117 2.6641-2.1953 4.5234-3.5469 5.5781-1.3438 1.0625-3.1211 1.5938-5.3281 1.5938h-4.4219v-5.0156h2.3906c1.3008 0 2.2422-0.21094 2.8281-0.625 0.59375-0.40625 1.0547-1.1484 1.3906-2.2188l0.20312-0.65625z"/>
  </symbol>
  <symbol id="e" overflow="visible">
   <path d="m26.219-30.891v6.75c-1.7617-0.78125-3.4766-1.3672-5.1406-1.7656-1.668-0.40625-3.2422-0.60938-4.7188-0.60938-1.9609 0-3.4141 0.27344-4.3594 0.8125-0.9375 0.54297-1.4062 1.3867-1.4062 2.5312 0 0.85547 0.31641 1.5234 0.95312 2 0.63281 0.46875 1.7852 0.875 3.4531 1.2188l3.5 0.70312c3.5391 0.71875 6.0625 1.8047 7.5625 3.25 1.5 1.4492 2.25 3.5117 2.25 6.1875 0 3.5234-1.0469 6.1406-3.1406 7.8594-2.0859 1.7188-5.2734 2.5781-9.5625 2.5781-2.0234 0-4.0547-0.19531-6.0938-0.57812-2.0312-0.38281-4.0625-0.95703-6.0938-1.7188v-6.9375c2.0312 1.0859 3.9922 1.9023 5.8906 2.4531 1.9062 0.54297 3.7422 0.8125 5.5156 0.8125 1.7891 0 3.1602-0.29688 4.1094-0.89062 0.95703-0.60156 1.4375-1.457 1.4375-2.5625 0-1-0.32422-1.7695-0.96875-2.3125-0.64844-0.53906-1.9375-1.0234-3.875-1.4531l-3.1875-0.70312c-3.1875-0.6875-5.5234-1.7734-7-3.2656-1.4688-1.5-2.2031-3.5156-2.2031-6.0469 0-3.1758 1.0234-5.6172 3.0781-7.3281 2.0508-1.707 5-2.5625 8.8438-2.5625 1.75 0 3.5508 0.13281 5.4062 0.39062 1.8516 0.26172 3.7695 0.65625 5.75 1.1875z"/>
  </symbol>
  <symbol id="l" overflow="visible">
   <path d="m27.734-14.562v14.562h-7.7031v-11.109c0-2.0938-0.046875-3.5312-0.14062-4.3125-0.085937-0.78125-0.24219-1.3594-0.46875-1.7344-0.30469-0.5-0.71094-0.88281-1.2188-1.1562-0.51172-0.28125-1.0938-0.42188-1.75-0.42188-1.5938 0-2.8516 0.61719-3.7656 1.8438-0.90625 1.2305-1.3594 2.9375-1.3594 5.125v11.766h-7.6562v-33.234h7.6562v12.812c1.1445-1.3945 2.3633-2.4219 3.6562-3.0781 1.3008-0.66406 2.7383-1 4.3125-1 2.7578 0 4.8516 0.85156 6.2812 2.5469 1.4375 1.6875 2.1562 4.1523 2.1562 7.3906z"/>
  </symbol>
  <symbol id="k" overflow="visible">
   <path d="m4.0156-31.891h8.2188v19.109c0 2.6367 0.42969 4.5234 1.2969 5.6562 0.86328 1.1367 2.2695 1.7031 4.2188 1.7031 1.9688 0 3.3789-0.56641 4.2344-1.7031 0.86328-1.1328 1.2969-3.0195 1.2969-5.6562v-19.109h8.2344v19.109c0 4.5234-1.1367 7.8867-3.4062 10.094-2.2617 2.2109-5.7148 3.3125-10.359 3.3125-4.625 0-8.0742-1.1016-10.344-3.3125-2.2617-2.207-3.3906-5.5703-3.3906-10.094z"/>
  </symbol>
  <symbol id="j" overflow="visible">
   <path d="m3.6719-23.922h7.6562v23.922h-7.6562zm0-9.3125h7.6562v6.2344h-7.6562z"/>
  </symbol>
  <symbol id="i" overflow="visible">
   <path d="m27.734-14.562v14.562h-7.7031v-11.156c0-2.0625-0.046875-3.4844-0.14062-4.2656-0.085937-0.78125-0.24219-1.3594-0.46875-1.7344-0.30469-0.5-0.71094-0.88281-1.2188-1.1562-0.51172-0.28125-1.0938-0.42188-1.75-0.42188-1.5938 0-2.8516 0.61719-3.7656 1.8438-0.90625 1.2305-1.3594 2.9375-1.3594 5.125v11.766h-7.6562v-23.922h7.6562v3.5c1.1445-1.3945 2.3633-2.4219 3.6562-3.0781 1.3008-0.66406 2.7383-1 4.3125-1 2.7578 0 4.8516 0.85156 6.2812 2.5469 1.4375 1.6875 2.1562 4.1523 2.1562 7.3906z"/>
  </symbol>
 </defs>
 <g>
  <path d="m615.21 509.43h-12.688v-342.3l15.227-45.586c0.30078-1.2969 0.30078-2.6445 0-3.9375v-20.738c0.58984-2.5977-0.03125-5.3203-1.6914-7.4023-1.6602-2.082-4.1758-3.293-6.8398-3.293s-5.1797 1.2109-6.8398 3.293c-1.6602 2.082-2.2812 4.8047-1.6914 7.4023v13.477l-15.312-0.003906v-13.473c0.58984-2.5977-0.03125-5.3203-1.6914-7.4023-1.6602-2.082-4.1758-3.293-6.8398-3.293s-5.1797 1.2109-6.8398 3.293c-1.6602 2.082-2.2812 4.8047-1.6914 7.4023v13.477l-17.062-0.003906v-13.473c0.58984-2.5977-0.03125-5.3203-1.6914-7.4023-1.6602-2.082-4.1758-3.293-6.8398-3.293s-5.1797 1.2109-6.8398 3.293c-1.6602 2.082-2.2812 4.8047-1.6914 7.4023v13.477h-17.5v-13.477c0-4.832-3.918-8.75-8.75-8.75s-8.75 3.918-8.75 8.75v20.301c-0.30078 1.293-0.30078 2.6406 0 3.9375l15.227 45.586v117.69h-47.25v-25.199c0-2.3203-0.92187-4.5469-2.5625-6.1875-1.6445-1.6406-3.8672-2.5625-6.1875-2.5625h-26.25l15.223-66.676c0.085937-1.0781 0.085937-2.1602 0-3.2383v-18.988c0.59375-2.5938-0.03125-5.3164-1.6914-7.3984-1.6602-2.082-4.1758-3.293-6.8398-3.293-2.6602 0-5.1797 1.2109-6.8398 3.293s-2.2812 4.8047-1.6914 7.3984v11.898l-27.824 0.003906v-10.676c0-4.832-3.918-8.75-8.75-8.75s-8.75 3.918-8.75 8.75v10.676h-27.125v-75.949h53.375c2.3203 0 4.5469-0.92187 6.1875-2.5625 1.6406-1.6445 2.5625-3.8672 2.5625-6.1875-0.03125-2.3516-1.0117-4.5938-2.7109-6.2148-14.352-19.254-35.684-32.105-59.414-35.785v-4.7266c-1.1797-3.5898-4.5312-6.0195-8.3125-6.0195s-7.1328 2.4297-8.3125 6.0195v131.25h-26.25v-10.5c-0.90625-3.9805-4.4492-6.8047-8.5312-6.8047s-7.625 2.8242-8.5312 6.8047v10.676h-28.438v-10.676c-0.90625-3.9805-4.4492-6.8047-8.5312-6.8047s-7.625 2.8242-8.5312 6.8047v18.727c0.15625 2.9609 0.65625 5.8984 1.4883 8.75 1.0508 5.25 2.1875 10.586 3.2383 15.836l7.6133 36.574c0.52344 2.8008 1.1367 5.6016 1.6641 8.75h-26.254c-4.832 0-8.75 3.918-8.75 8.75v24.238h-50.75v-117.25l15.227-45.586c0.48047-3.0742 0.48047-6.2031 0-9.2773v-15.398c0.58984-2.5977-0.03125-5.3203-1.6914-7.4023-1.6602-2.082-4.1797-3.293-6.8398-3.293-2.6641 0-5.1797 1.2109-6.8398 3.293-1.6641 2.082-2.2852 4.8047-1.6914 7.4023v13.477h-15.75v-13.477c0.58984-2.5977-0.03125-5.3203-1.6914-7.4023-1.6602-2.082-4.1797-3.293-6.8398-3.293-2.6641 0-5.1797 1.2109-6.8398 3.293-1.6641 2.082-2.2852 4.8047-1.6914 7.4023v13.477h-17.5v-13.477c0.58984-2.5977-0.03125-5.3203-1.6914-7.4023-1.6602-2.082-4.1797-3.293-6.8398-3.293-2.6641 0-5.1797 1.2109-6.8398 3.293-1.6641 2.082-2.2852 4.8047-1.6914 7.4023v13.477h-17.5v-13.477c0.58984-2.5977-0.03125-5.3203-1.6914-7.4023-1.6602-2.082-4.1797-3.293-6.8398-3.293-2.6641 0-5.1797 1.2109-6.8398 3.293-1.6641 2.082-2.2852 4.8047-1.6914 7.4023v20.301c-0.30078 1.293-0.30078 2.6406 0 3.9375l16.797 46.023v342.3h-8.75c-4.832 0-8.75 3.918-8.75 8.75s3.918 8.75 8.75 8.75h530.25c4.8359 0 8.75-3.918 8.75-8.75s-3.9141-8.75-8.75-8.75zm-99.75-162.93v28h-47.25v-28zm0 73.062h-16.711v-28h17.062zm-34.211-28v28.438h-13.039v-28zm34.039 45.062v28h-47.25v-28zm-34.039 45.062v27.738h-13.039v-27.738zm16.977 0h17.062v27.738h-16.539zm34.125 27.738v-335.12h52.5v335.12zm65.273-382.02-9.8008 30.098h-57.66l-9.9766-29.836zm-82.164 202.04h-16.711v-28h17.062zm-34.211-28v28h-13.039v-28zm-89.25-221.02h-34.125v-16.453c12.59 2.4922 24.336 8.1562 34.125 16.453zm-120.75 110.07h157.5l-12.602 60.113h-31.148v-10.414c0-12.504-6.6719-24.059-17.5-30.312-10.828-6.25-24.172-6.25-35 0-10.828 6.2539-17.5 17.809-17.5 30.312v10.414h-31.148zm60.637 60.113v-10.414c0-6.4727 3.4531-12.449 9.0586-15.688 5.6016-3.2344 12.508-3.2344 18.109 0 5.6055 3.2383 9.0586 9.2148 9.0586 15.688v10.414zm-55.211 17.062h174.47v241.76h-39.898v-97.039c1.8555-17.281-3.7188-34.539-15.336-47.473-11.617-12.93-28.18-20.316-45.562-20.316-17.383 0-33.949 7.3867-45.566 20.316-11.617 12.934-17.191 30.191-15.336 47.473v97.039h-40.25v-241.76zm-44.887 78.75v28h-51.102v-27.914zm0 118.12h-51.102v-27.914h51.102zm-51.102-73.062h17.062v28.523h-17.062zm51.102 28.523h-16.977v-28h16.977zm-51.102 62.125h17.062v27.738h-17.062zm34.125 0h16.977v27.738h-16.977zm178.94-69.738v97.039h-35v-141.93c10.23 2.0781 19.379 7.7422 25.797 15.973 6.418 8.2344 9.6836 18.488 9.2031 28.914zm-52.5 97.039h-35v-97.039c-0.48047-10.426 2.7852-20.68 9.2031-28.914 6.418-8.2305 15.566-13.895 25.797-15.973zm-109.46-179.99h-16.977v-28h16.977zm-34.039-28v28h-17.062v-28zm-21.789-174.04-9.7109 30.102h-57.926l-9.9727-30.102zm-65.273 46.902h52.5v335.12h-52.5z"/>
  <path d="m342.65 309.57h13.301c4.832 0 8.75-3.918 8.75-8.75s-3.918-8.75-8.75-8.75h-13.301c-4.832 0-8.75 3.918-8.75 8.75s3.918 8.75 8.75 8.75z"/>
  <path d="m278.6 309.57h13.387c4.832 0 8.75-3.918 8.75-8.75s-3.918-8.75-8.75-8.75h-13.387c-4.8359 0-8.75 3.918-8.75 8.75s3.9141 8.75 8.75 8.75z"/>
  <path d="m408.01 309.57h13.387c4.8359 0 8.75-3.918 8.75-8.75s-3.9141-8.75-8.75-8.75h-13.387c-4.832 0-8.75 3.918-8.75 8.75s3.918 8.75 8.75 8.75z"/>
  <use x="70" y="691.25" xlink:href="#m"/>
  <use x="102.109375" y="691.25" xlink:href="#h"/>
  <use x="123.683594" y="691.25" xlink:href="#d"/>
  <use x="153.355469" y="691.25" xlink:href="#b"/>
  <use x="182.878906" y="691.25" xlink:href="#g"/>
  <use x="203.792969" y="691.25" xlink:href="#d"/>
  <use x="233.464844" y="691.25" xlink:href="#a"/>
  <use x="280.011719" y="691.25" xlink:href="#c"/>
  <use x="311.328125" y="691.25" xlink:href="#f"/>
  <use x="355.078125" y="691.25" xlink:href="#e"/>
  <use x="386.589844" y="691.25" xlink:href="#b"/>
  <use x="416.113281" y="691.25" xlink:href="#l"/>
  <use x="447.257812" y="691.25" xlink:href="#b"/>
  <use x="476.78125" y="691.25" xlink:href="#c"/>
  <use x="523.328125" y="691.25" xlink:href="#k"/>
  <use x="558.855469" y="691.25" xlink:href="#a"/>
  <use x="590.171875" y="691.25" xlink:href="#a"/>
  <use x="621.488281" y="691.25" xlink:href="#j"/>
  <use x="636.484375" y="691.25" xlink:href="#i"/>
 </g>
</svg>
