<?xml version="1.0" encoding="UTF-8"?>
<svg width="700pt" height="700pt" version="1.1" viewBox="0 0 700 700" xmlns="http://www.w3.org/2000/svg" xmlns:xlink="http://www.w3.org/1999/xlink">
 <defs>
  <symbol id="t" overflow="visible">
   <path d="m11.719-0.70312c-0.60547 0.3125-1.2344 0.54688-1.8906 0.70312-0.64844 0.16406-1.3281 0.25-2.0469 0.25-2.125 0-3.8086-0.59375-5.0469-1.7812-1.2422-1.1875-1.8594-2.7969-1.8594-4.8281 0-2.0391 0.61719-3.6562 1.8594-4.8438 1.2383-1.1875 2.9219-1.7812 5.0469-1.7812 0.71875 0 1.3984 0.078125 2.0469 0.23438 0.65625 0.15625 1.2852 0.39062 1.8906 0.70312v2.6406c-0.60547-0.40625-1.2031-0.70703-1.7969-0.90625-0.59375-0.19531-1.2188-0.29688-1.875-0.29688-1.168 0-2.0898 0.38281-2.7656 1.1406-0.67969 0.75-1.0156 1.7891-1.0156 3.1094 0 1.3125 0.33594 2.3438 1.0156 3.0938 0.67578 0.75 1.5977 1.125 2.7656 1.125 0.65625 0 1.2812-0.09375 1.875-0.28125 0.59375-0.19531 1.1914-0.50391 1.7969-0.92188z"/>
  </symbol>
  <symbol id="b" overflow="visible">
   <path d="m8.5781-6.9688c-0.27344-0.125-0.53906-0.21094-0.79688-0.26562-0.26172-0.0625-0.52734-0.09375-0.79688-0.09375-0.79297 0-1.4023 0.25781-1.8281 0.76562-0.41797 0.5-0.625 1.2188-0.625 2.1562v4.4062h-3.0625v-9.5781h3.0625v1.5781c0.39453-0.625 0.84375-1.0781 1.3438-1.3594 0.50781-0.28906 1.125-0.4375 1.8438-0.4375 0.10156 0 0.21094 0.007813 0.32812 0.015625 0.125 0 0.30078 0.015625 0.53125 0.046875z"/>
  </symbol>
  <symbol id="a" overflow="visible">
   <path d="m11.016-4.8125v0.875h-7.1406c0.070312 0.71875 0.32812 1.2617 0.76562 1.625 0.44531 0.35547 1.0703 0.53125 1.875 0.53125 0.64453 0 1.3008-0.09375 1.9688-0.28125 0.67578-0.19531 1.3672-0.48828 2.0781-0.875v2.3594c-0.71875 0.27344-1.4453 0.47656-2.1719 0.60938-0.71875 0.14453-1.4375 0.21875-2.1562 0.21875-1.7422 0-3.0898-0.4375-4.0469-1.3125-0.96094-0.88281-1.4375-2.125-1.4375-3.7188 0-1.5625 0.46875-2.7852 1.4062-3.6719 0.94531-0.89453 2.25-1.3438 3.9062-1.3438 1.5 0 2.6953 0.45312 3.5938 1.3594 0.90625 0.90625 1.3594 2.1172 1.3594 3.625zm-3.1406-1.0156c0-0.58203-0.17188-1.0508-0.51562-1.4062-0.33594-0.35156-0.77344-0.53125-1.3125-0.53125-0.59375 0-1.0781 0.16797-1.4531 0.5-0.36719 0.33594-0.59375 0.8125-0.6875 1.4375z"/>
  </symbol>
  <symbol id="e" overflow="visible">
   <path d="m5.7656-4.3125c-0.64844 0-1.1328 0.10938-1.4531 0.32812-0.3125 0.21875-0.46875 0.53906-0.46875 0.95312 0 0.39844 0.125 0.70312 0.375 0.92188 0.25781 0.21875 0.625 0.32812 1.0938 0.32812 0.57031 0 1.0508-0.20703 1.4375-0.625 0.39453-0.41406 0.59375-0.92969 0.59375-1.5469v-0.35938zm4.6719-1.1406v5.4531h-3.0938v-1.4219c-0.40625 0.58594-0.86719 1.0117-1.375 1.2812-0.51172 0.25781-1.1367 0.39062-1.875 0.39062-0.99219 0-1.7969-0.28516-2.4219-0.85938-0.61719-0.58203-0.92188-1.3359-0.92188-2.2656 0-1.1133 0.38281-1.9297 1.1562-2.4531 0.76953-0.53125 1.9844-0.79688 3.6406-0.79688h1.7969v-0.23438c0-0.48828-0.19531-0.84375-0.57812-1.0625-0.375-0.22656-0.96875-0.34375-1.7812-0.34375-0.65625 0-1.2656 0.070313-1.8281 0.20312-0.5625 0.125-1.0859 0.32031-1.5625 0.57812v-2.3281c0.65625-0.15625 1.3125-0.27344 1.9688-0.35938 0.65625-0.082031 1.3164-0.125 1.9844-0.125 1.7266 0 2.9727 0.33984 3.7344 1.0156 0.76953 0.67969 1.1562 1.7891 1.1562 3.3281z"/>
  </symbol>
  <symbol id="d" overflow="visible">
   <path d="m4.8125-12.281v2.7031h3.1562v2.1875h-3.1562v4.0625c0 0.44922 0.085938 0.75 0.26562 0.90625 0.17578 0.15625 0.52344 0.23438 1.0469 0.23438h1.5781v2.1875h-2.625c-1.2109 0-2.0703-0.25-2.5781-0.75-0.5-0.50781-0.75-1.3672-0.75-2.5781v-4.0625h-1.5156v-2.1875h1.5156v-2.7031z"/>
  </symbol>
  <symbol id="j" overflow="visible">
   <path d="m7.9844-8.1719v-5.125h3.0781v13.297h-3.0781v-1.3906c-0.42969 0.57422-0.89844 0.99219-1.4062 1.25-0.5 0.25781-1.0859 0.39062-1.75 0.39062-1.1797 0-2.1484-0.46875-2.9062-1.4062-0.76172-0.9375-1.1406-2.1445-1.1406-3.625 0-1.4688 0.37891-2.6719 1.1406-3.6094 0.75781-0.9375 1.7266-1.4062 2.9062-1.4062 0.65625 0 1.2383 0.13672 1.75 0.40625 0.50781 0.26172 0.97656 0.66797 1.4062 1.2188zm-2.0156 6.2031c0.65625 0 1.1562-0.23828 1.5-0.71875 0.34375-0.47656 0.51562-1.1758 0.51562-2.0938 0-0.90625-0.17188-1.5977-0.51562-2.0781-0.34375-0.47656-0.84375-0.71875-1.5-0.71875s-1.1562 0.24219-1.5 0.71875c-0.34375 0.48047-0.51562 1.1719-0.51562 2.0781 0 0.91797 0.17188 1.6172 0.51562 2.0938 0.34375 0.48047 0.84375 0.71875 1.5 0.71875z"/>
  </symbol>
  <symbol id="i" overflow="visible">
   <path d="m6.5625-1.9688c0.65625 0 1.1562-0.23828 1.5-0.71875 0.34375-0.47656 0.51562-1.1758 0.51562-2.0938 0-0.90625-0.17188-1.5977-0.51562-2.0781-0.34375-0.47656-0.84375-0.71875-1.5-0.71875s-1.1641 0.24219-1.5156 0.71875c-0.34375 0.48047-0.51562 1.1719-0.51562 2.0781s0.17188 1.6055 0.51562 2.0938c0.35156 0.48047 0.85938 0.71875 1.5156 0.71875zm-2.0312-6.2031c0.41406-0.55078 0.87891-0.95703 1.3906-1.2188 0.51953-0.26953 1.1133-0.40625 1.7812-0.40625 1.1758 0 2.1406 0.46875 2.8906 1.4062 0.75781 0.9375 1.1406 2.1406 1.1406 3.6094 0 1.4805-0.38281 2.6875-1.1406 3.625-0.75 0.9375-1.7148 1.4062-2.8906 1.4062-0.66797 0-1.2617-0.13281-1.7812-0.39062-0.51172-0.26953-0.97656-0.6875-1.3906-1.25v1.3906h-3.0625v-13.297h3.0625z"/>
  </symbol>
  <symbol id="h" overflow="visible">
   <path d="m0.21875-9.5781h3.0469l2.5781 6.5 2.1875-6.5h3.0625l-4.0312 10.484c-0.40625 1.0625-0.88281 1.8047-1.4219 2.2344-0.53125 0.42578-1.2422 0.64062-2.125 0.64062h-1.7656v-2.0156h0.95312c0.51953 0 0.89844-0.085937 1.1406-0.25 0.23828-0.16797 0.42188-0.46484 0.54688-0.89062l0.09375-0.25z"/>
  </symbol>
  <symbol id="g" overflow="visible">
   <path d="m1.4688-13.297h3.0625v7.2344l3.5156-3.5156h3.5625l-4.6719 4.4062 5.0312 5.1719h-3.7031l-3.7344-3.9844v3.9844h-3.0625z"/>
  </symbol>
  <symbol id="f" overflow="visible">
   <path d="m10.344-7.9844c0.38281-0.59375 0.84375-1.0391 1.375-1.3438 0.53125-0.3125 1.1133-0.46875 1.75-0.46875 1.1016 0 1.9414 0.33984 2.5156 1.0156 0.57031 0.67969 0.85938 1.6641 0.85938 2.9531v5.8281h-3.0625v-4.9844-0.23438c0.007812-0.082031 0.015625-0.19531 0.015625-0.34375 0-0.67578-0.10547-1.1641-0.3125-1.4688-0.19922-0.3125-0.51562-0.46875-0.95312-0.46875-0.58594 0-1.0391 0.24219-1.3594 0.71875-0.3125 0.48047-0.47656 1.1719-0.48438 2.0781v4.7031h-3.0781v-4.9844c0-1.0625-0.09375-1.7422-0.28125-2.0469-0.17969-0.3125-0.5-0.46875-0.96875-0.46875-0.58594 0-1.0391 0.24609-1.3594 0.73438-0.3125 0.48047-0.46875 1.168-0.46875 2.0625v4.7031h-3.0781v-9.5781h3.0781v1.4062c0.375-0.53906 0.80078-0.94531 1.2812-1.2188 0.48828-0.26953 1.0312-0.40625 1.625-0.40625 0.65625 0 1.2383 0.16406 1.75 0.48438 0.50781 0.3125 0.89453 0.75781 1.1562 1.3281z"/>
  </symbol>
  <symbol id="c" overflow="visible">
   <path d="m6.0312-7.6094c-0.6875 0-1.2109 0.24609-1.5625 0.73438-0.35547 0.48047-0.53125 1.1797-0.53125 2.0938 0 0.91797 0.17578 1.6211 0.53125 2.1094 0.35156 0.49219 0.875 0.73438 1.5625 0.73438 0.66406 0 1.1719-0.24219 1.5156-0.73438 0.35156-0.48828 0.53125-1.1914 0.53125-2.1094 0-0.91406-0.17969-1.6133-0.53125-2.0938-0.34375-0.48828-0.85156-0.73438-1.5156-0.73438zm0-2.1875c1.6445 0 2.9258 0.44531 3.8438 1.3281 0.92578 0.88672 1.3906 2.1172 1.3906 3.6875 0 1.5742-0.46484 2.8086-1.3906 3.7031-0.91797 0.88672-2.1992 1.3281-3.8438 1.3281-1.6562 0-2.9531-0.44141-3.8906-1.3281-0.92969-0.89453-1.3906-2.1289-1.3906-3.7031 0-1.5703 0.46094-2.8008 1.3906-3.6875 0.9375-0.88281 2.2344-1.3281 3.8906-1.3281z"/>
  </symbol>
  <symbol id="s" overflow="visible">
   <path d="m0.26562-9.5781h3.0625l2.375 6.625 2.375-6.625h3.0781l-3.7656 9.5781h-3.3594z"/>
  </symbol>
  <symbol id="r" overflow="visible">
   <path d="m7.7656-13.297v2.0156h-1.6875c-0.4375 0-0.74609 0.078125-0.92188 0.23438-0.16797 0.15625-0.25 0.42969-0.25 0.8125v0.65625h2.625v2.1875h-2.625v7.3906h-3.0469v-7.3906h-1.5312v-2.1875h1.5312v-0.65625c0-1.0391 0.28516-1.8125 0.85938-2.3125 0.58203-0.5 1.4844-0.75 2.7031-0.75z"/>
  </symbol>
  <symbol id="q" overflow="visible">
   <path d="m11.094-5.8281v5.8281h-3.0781v-4.4375c0-0.84375-0.023437-1.4219-0.0625-1.7344-0.03125-0.3125-0.09375-0.53906-0.1875-0.6875-0.11719-0.19531-0.27734-0.35156-0.48438-0.46875-0.21094-0.11328-0.44531-0.17188-0.70312-0.17188-0.63672 0-1.1367 0.25-1.5 0.75-0.36719 0.49219-0.54688 1.1719-0.54688 2.0469v4.7031h-3.0625v-13.297h3.0625v5.125c0.45703-0.55078 0.94531-0.95703 1.4688-1.2188 0.51953-0.26953 1.0938-0.40625 1.7188-0.40625 1.1016 0 1.9414 0.33984 2.5156 1.0156 0.57031 0.67969 0.85938 1.6641 0.85938 2.9531z"/>
  </symbol>
  <symbol id="p" overflow="visible">
   <path d="m1.6094-12.75h3.6719l4.6406 8.75v-8.75h3.125v12.75h-3.6875l-4.6406-8.75v8.75h-3.1094z"/>
  </symbol>
  <symbol id="o" overflow="visible">
   <path d="m1.375-3.7188v-5.8594h3.0625v0.96875c0 0.52344-0.007812 1.1719-0.015625 1.9531v1.5625c0 0.77344 0.019531 1.3281 0.0625 1.6719 0.039063 0.33594 0.10938 0.57812 0.20312 0.73438 0.125 0.19922 0.28516 0.35547 0.48438 0.46875 0.20703 0.10547 0.44141 0.15625 0.70312 0.15625 0.64453 0 1.1484-0.24219 1.5156-0.73438 0.36328-0.48828 0.54688-1.1719 0.54688-2.0469v-4.7344h3.0469v9.5781h-3.0469v-1.3906c-0.46875 0.5625-0.96484 0.98047-1.4844 1.25-0.51172 0.25781-1.0742 0.39062-1.6875 0.39062-1.1055 0-1.9492-0.33594-2.5312-1.0156-0.57422-0.67578-0.85938-1.6602-0.85938-2.9531z"/>
  </symbol>
  <symbol id="n" overflow="visible">
   <path d="m11.094-5.8281v5.8281h-3.0781v-4.4531c0-0.83203-0.023437-1.4062-0.0625-1.7188-0.03125-0.3125-0.09375-0.53906-0.1875-0.6875-0.11719-0.19531-0.27734-0.35156-0.48438-0.46875-0.21094-0.11328-0.44531-0.17188-0.70312-0.17188-0.63672 0-1.1367 0.25-1.5 0.75-0.36719 0.49219-0.54688 1.1719-0.54688 2.0469v4.7031h-3.0625v-9.5781h3.0625v1.4062c0.45703-0.55078 0.94531-0.95703 1.4688-1.2188 0.51953-0.26953 1.0938-0.40625 1.7188-0.40625 1.1016 0 1.9414 0.33984 2.5156 1.0156 0.57031 0.67969 0.85938 1.6641 0.85938 2.9531z"/>
  </symbol>
  <symbol id="m" overflow="visible">
   <path d="m1.6094-12.75h5.4531c1.625 0 2.8672 0.35938 3.7344 1.0781 0.875 0.71875 1.3125 1.7461 1.3125 3.0781 0 1.3359-0.4375 2.3672-1.3125 3.0938-0.86719 0.71875-2.1094 1.0781-3.7344 1.0781h-2.1719v4.4219h-3.2812zm3.2812 2.375v3.5625h1.8281c0.63281 0 1.125-0.14844 1.4688-0.45312 0.35156-0.3125 0.53125-0.75391 0.53125-1.3281 0-0.57031-0.17969-1.0078-0.53125-1.3125-0.34375-0.3125-0.83594-0.46875-1.4688-0.46875z"/>
  </symbol>
  <symbol id="l" overflow="visible">
   <path d="m1.4688-9.5781h3.0625v9.4062c0 1.2812-0.30859 2.2578-0.92188 2.9375-0.61719 0.67578-1.5078 1.0156-2.6719 1.0156h-1.5156v-2.0156h0.53125c0.58203 0 0.97656-0.13281 1.1875-0.39062 0.21875-0.26172 0.32812-0.77734 0.32812-1.5469zm0-3.7188h3.0625v2.5h-3.0625z"/>
  </symbol>
  <symbol id="k" overflow="visible">
   <path d="m9.2031-9.2656v2.4844c-0.41797-0.28125-0.83594-0.48828-1.25-0.625-0.41797-0.13281-0.85547-0.20312-1.3125-0.20312-0.85547 0-1.5234 0.25-2 0.75-0.46875 0.49219-0.70312 1.1836-0.70312 2.0781 0 0.89844 0.23438 1.5938 0.70312 2.0938 0.47656 0.5 1.1445 0.75 2 0.75 0.47656 0 0.92969-0.066406 1.3594-0.20312 0.4375-0.14453 0.83594-0.35938 1.2031-0.64062v2.5c-0.48047 0.17969-0.96875 0.30469-1.4688 0.39062-0.49219 0.09375-0.98047 0.14062-1.4688 0.14062-1.7305 0-3.0859-0.44141-4.0625-1.3281-0.96875-0.88281-1.4531-2.1172-1.4531-3.7031 0-1.5703 0.48438-2.8008 1.4531-3.6875 0.97656-0.88281 2.332-1.3281 4.0625-1.3281 0.5 0 0.99219 0.046875 1.4844 0.14062 0.48828 0.085938 0.97266 0.21484 1.4531 0.39062z"/>
  </symbol>
 </defs>
 <g>
  <path d="m411.25 66.5c24.5 17.5-28 35-35 10.5-7-14 28-17.5 35-10.5z"/>
  <path d="m502.25 126c-21 28-31.5 38.5-63 31.5 52.5-35 45.5-80.5 10.5-101.5-21-10.5-24.5-35-70-21 7-42 49-35 87.5-10.5 7 3.5 77 28 35 101.5z"/>
  <path d="m351.75 105c-17.5-24.5 7-35 14-31.5 17.5 49 77-10.5 70 21-14 28-59.5 38.5-84 10.5z"/>
  <path d="m428.75 45.5c14 3.5 14 31.5-3.5 28 7-31.5-80.5-7-84 7-3.5 3.5-3.5 7-3.5 10.5-10.5 7-28-14-10.5-28 28-28 84-35 101.5-17.5z"/>
  <path d="m337.75 98c52.5 63 115.5 3.5 101.5-14 0-14 7-17.5 3.5-28 28 17.5 31.5 38.5 21 59.5-14 38.5-70 42-101.5 31.5-24.5-7-49-35-24.5-49z"/>
  <path d="m442.75 252c-7-24.5 66.5-21 84-80.5 45.5 49-66.5 108.5-84 80.5z"/>
  <path d="m365.75 31.5c-24.5 3.5-66.5 28-45.5 56-21 49 52.5 91 108.5 66.5 21 21-94.5 56-140-10.5-38.5-66.5 35-147 80.5-115.5 0 0 0 3.5-3.5 3.5z"/>
  <path d="m530.25 154c-28 52.5-56 73.5-122.5 70-17.5 0-98-7-98-52.5 7 10.5 63 35 122.5-3.5 49 7 80.5-35 84-59.5 35 7 24.5 21 14 45.5z"/>
  <path d="m369.25 21c-77-31.5-140 91-66.5 143.5-7 17.5-101.5-7-73.5-84 31.5-101.5 143.5-87.5 140-59.5z"/>
  <path d="m432.25 231c10.5 0-3.5 24.5-38.5 31.5-77 17.5-154-45.5-150.5-101.5 17.5 10.5 35 17.5 52.5 17.5 10.5 28 42 42 70 49 35 7 45.5 3.5 66.5 3.5z"/>
  <path d="m509.25 336c0-3.5 0-3.5 3.5-7-14-7-52.5 3.5-59.5 10.5 0-7-3.5-7 0-14-14 0-42 21-49 24.5 0-3.5-3.5-3.5-3.5-7l-17.5 17.5c-17.5 21-24.5 59.5-21 63 3.5 0 7 0 10.5-3.5 3.5-17.5 10.5-35 24.5-52.5-3.5 7-21 35-17.5 52.5 3.5 0 10.5-7 24.5-10.5 10.5-24.5 14-42 35-63-14 21-24.5 31.5-28 59.5 17.5 0 49-10.5 59.5-28v-3.5c7-7 17.5-14 24.5-21-17.5 21-28 31.5-24.5 35 0 3.5 17.5 3.5 45.5 0 7-10.5 14-14 24.5-21-7 3.5-17.5 14-17.5 21 14-3.5 45.5 10.5 59.5 7-10.5 7-49-7-56 0 7 7 17.5 14 31.5 21-14-7-24.5-14-38.5-21h-24.5c7 17.5 17.5 24.5 31.5 28-35-3.5-17.5-35-66.5-24.5-7 3.5-14 3.5-17.5 7 7 17.5 28 35 45.5 38.5-17.5 7-45.5-28-52.5-38.5-17.5 3.5-31.5 7-35 14 10.5 10.5 31.5 21 49 31.5-21-7-38.5-14-56-28-7 3.5-17.5 3.5-24.5 10.5 10.5 17.5 42 28 56 35-3.5-7 0-7 0-10.5 14 10.5 42 14 59.5 14 0-3.5-3.5-7-3.5-10.5 10.5 3.5 24.5 0 35 0-3.5-3.5-3.5-7-3.5-10.5 14 3.5 21 0 38.5-7-3.5-7-3.5-10.5-7-14 10.5 3.5 28-3.5 38.5-7-3.5-7 0-7-3.5-10.5 7 0 14-3.5 21-17.5-10.5-10.5-21-14-24.5-14 0-3.5 3.5-3.5 7-10.5-17.5-17.5-35-3.5-28-21-14-10.5-17.5-14-45.5-14z"/>
  <path d="m369.25 273c0 122.5-112 238-206.5 287 101.5-14 224-168 227.5-287z"/>
  <path d="m225.75 252c0-3.5 3.5-3.5 3.5-7 17.5 3.5 45.5 35 49 49 0-7 3.5-7 7-14 14 7 24.5 49 28 56 3.5-3.5 7 0 10.5-7 0 7 3.5 14 3.5 31.5 0 28-17.5 73.5-24.5 70-3.5 0-7-3.5-7-7 10.5-21 14-42 14-66.5-3.5 10.5-3.5 45.5-21 59.5-3.5-3.5-7-14-14-24.5 3.5-31.5 14-49 7-84 0 28 3.5 49-14 73.5-14-14-38.5-45.5-31.5-66.5-3.5-14-7-24.5-10.5-38.5 3.5 31.5 7 45.5 0 49-3.5 3.5-17.5-10.5-42-31.5 0-10.5-3.5-21-7-35 0 7 3.5 24.5 0 31.5-10.5-14-49-24.5-59.5-31.5 7 10.5 49 21 56 35-14 0-28 0-49-3.5l52.5 10.5c7 0 14 10.5 21 14-17.5 10.5-31.5 10.5-45.5 7 31.5 17.5 35-21 77 21 3.5 3.5 10.5 10.5 10.5 17.5-17.5 10.5-49 14-66.5 7 10.5 14 59.5 3.5 73.5 0 10.5 14 24.5 28 24.5 35-17.5 3.5-49 0-66.5-3.5 21 3.5 45.5 14 70 14 3.5 7 10.5 14 14 24.5-21 10.5-56 0-77-7 7-3.5 7-7 10.5-10.5-21 3.5-49-14-66.5-24.5 3.5-3.5 7-3.5 10.5-7-14-7-21-17.5-31.5-28 3.5 0 7-3.5 7-3.5-10.5-7-17.5-17.5-28-35 10.5-3.5 7-7 14-7-10.5-7-24.5-21-28-35 7 0 3.5-3.5 10.5-3.5-7-7-10.5-14-10.5-31.5 17.5-3.5 31.5 0 35 0s-3.5-3.5 0-10.5c28-3.5 35 17.5 38.5-3.5 21 3.5 24.5 0 52.5 21z"/>
  <use x="99.75" y="612.5" xlink:href="#t"/>
  <use x="112.59375" y="612.5" xlink:href="#b"/>
  <use x="121.222656" y="612.5" xlink:href="#a"/>
  <use x="133.09375" y="612.5" xlink:href="#e"/>
  <use x="144.902344" y="612.5" xlink:href="#d"/>
  <use x="153.265625" y="612.5" xlink:href="#a"/>
  <use x="165.136719" y="612.5" xlink:href="#j"/>
  <use x="183.753906" y="612.5" xlink:href="#i"/>
  <use x="196.28125" y="612.5" xlink:href="#h"/>
  <use x="213.78125" y="612.5" xlink:href="#g"/>
  <use x="225.421875" y="612.5" xlink:href="#e"/>
  <use x="237.230469" y="612.5" xlink:href="#b"/>
  <use x="245.859375" y="612.5" xlink:href="#a"/>
  <use x="257.726562" y="612.5" xlink:href="#a"/>
  <use x="269.597656" y="612.5" xlink:href="#f"/>
  <use x="287.832031" y="612.5" xlink:href="#c"/>
  <use x="299.855469" y="612.5" xlink:href="#s"/>
  <use x="99.75" y="630" xlink:href="#r"/>
  <use x="107.363281" y="630" xlink:href="#b"/>
  <use x="115.992188" y="630" xlink:href="#c"/>
  <use x="128.015625" y="630" xlink:href="#f"/>
  <use x="152.34375" y="630" xlink:href="#d"/>
  <use x="160.710937" y="630" xlink:href="#q"/>
  <use x="173.167969" y="630" xlink:href="#a"/>
  <use x="191.128906" y="630" xlink:href="#p"/>
  <use x="205.773437" y="630" xlink:href="#c"/>
  <use x="217.796875" y="630" xlink:href="#o"/>
  <use x="230.257812" y="630" xlink:href="#n"/>
  <use x="248.808594" y="630" xlink:href="#m"/>
  <use x="261.632812" y="630" xlink:href="#b"/>
  <use x="270.265625" y="630" xlink:href="#c"/>
  <use x="282.285156" y="630" xlink:href="#l"/>
  <use x="288.285156" y="630" xlink:href="#a"/>
  <use x="300.152344" y="630" xlink:href="#k"/>
  <use x="310.527344" y="630" xlink:href="#d"/>
 </g>
</svg>
