<?xml version="1.0" encoding="UTF-8"?>
<svg width="700pt" height="700pt" version="1.1" viewBox="0 0 700 700" xmlns="http://www.w3.org/2000/svg" xmlns:xlink="http://www.w3.org/1999/xlink">
 <defs>
  <symbol id="u" overflow="visible">
   <path d="m18.766-1.125c-0.96875 0.5-1.9805 0.875-3.0312 1.125-1.043 0.25781-2.1367 0.39062-3.2812 0.39062-3.3984 0-6.0898-0.94531-8.0781-2.8438-1.9922-1.9062-2.9844-4.4844-2.9844-7.7344 0-3.2578 0.99219-5.8359 2.9844-7.7344 1.9883-1.9062 4.6797-2.8594 8.0781-2.8594 1.1445 0 2.2383 0.13281 3.2812 0.39062 1.0508 0.25 2.0625 0.625 3.0312 1.125v4.2188c-0.98047-0.65625-1.9453-1.1406-2.8906-1.4531-0.94922-0.3125-1.9492-0.46875-3-0.46875-1.875 0-3.3516 0.60547-4.4219 1.8125-1.0742 1.1992-1.6094 2.8555-1.6094 4.9688 0 2.1055 0.53516 3.7617 1.6094 4.9688 1.0703 1.1992 2.5469 1.7969 4.4219 1.7969 1.0508 0 2.0508-0.14844 3-0.45312 0.94531-0.3125 1.9102-0.80078 2.8906-1.4688z"/>
  </symbol>
  <symbol id="c" overflow="visible">
   <path d="m13.734-11.141c-0.4375-0.19531-0.87109-0.34375-1.2969-0.4375-0.41797-0.10156-0.83984-0.15625-1.2656-0.15625-1.2617 0-2.2305 0.40625-2.9062 1.2188-0.67969 0.80469-1.0156 1.9531-1.0156 3.4531v7.0625h-4.8906v-15.312h4.8906v2.5156c0.625-1 1.3438-1.7266 2.1562-2.1875 0.82031-0.46875 1.8008-0.70312 2.9375-0.70312 0.16406 0 0.34375 0.011719 0.53125 0.03125 0.19531 0.011719 0.47656 0.039062 0.84375 0.078125z"/>
  </symbol>
  <symbol id="a" overflow="visible">
   <path d="m17.641-7.7031v1.4062h-11.453c0.125 1.1484 0.53906 2.0078 1.25 2.5781 0.70703 0.57422 1.7031 0.85938 2.9844 0.85938 1.0312 0 2.082-0.14844 3.1562-0.45312 1.082-0.3125 2.1914-0.77344 3.3281-1.3906v3.7656c-1.1562 0.4375-2.3125 0.76562-3.4688 0.98438-1.1562 0.22656-2.3125 0.34375-3.4688 0.34375-2.7734 0-4.9297-0.70312-6.4688-2.1094-1.5312-1.4062-2.2969-3.3789-2.2969-5.9219 0-2.5 0.75391-4.4609 2.2656-5.8906 1.5078-1.4375 3.582-2.1562 6.2188-2.1562 2.4062 0 4.332 0.73047 5.7812 2.1875 1.4453 1.4492 2.1719 3.3828 2.1719 5.7969zm-5.0312-1.625c0-0.92578-0.27344-1.6719-0.8125-2.2344-0.54297-0.57031-1.25-0.85938-2.125-0.85938-0.94922 0-1.7188 0.26562-2.3125 0.79688s-0.96484 1.2969-1.1094 2.2969z"/>
  </symbol>
  <symbol id="e" overflow="visible">
   <path d="m9.2188-6.8906c-1.0234 0-1.793 0.17188-2.3125 0.51562-0.51172 0.34375-0.76562 0.85547-0.76562 1.5312 0 0.625 0.20703 1.1172 0.625 1.4688 0.41406 0.34375 0.98828 0.51562 1.7188 0.51562 0.92578 0 1.7031-0.32812 2.3281-0.98438 0.63281-0.66406 0.95312-1.4922 0.95312-2.4844v-0.5625zm7.4688-1.8438v8.7344h-4.9219v-2.2656c-0.65625 0.92969-1.3984 1.6055-2.2188 2.0312-0.82422 0.41406-1.8242 0.625-3 0.625-1.5859 0-2.8711-0.45703-3.8594-1.375-0.99219-0.92578-1.4844-2.1289-1.4844-3.6094 0-1.7891 0.61328-3.1016 1.8438-3.9375 1.2383-0.84375 3.1797-1.2656 5.8281-1.2656h2.8906v-0.39062c0-0.76953-0.30859-1.332-0.92188-1.6875-0.61719-0.36328-1.5703-0.54688-2.8594-0.54688-1.0547 0-2.0312 0.10547-2.9375 0.3125-0.89844 0.21094-1.7305 0.52344-2.5 0.9375v-3.7344c1.0391-0.25 2.0859-0.44141 3.1406-0.57812 1.0625-0.13281 2.125-0.20312 3.1875-0.20312 2.7578 0 4.75 0.54688 5.9688 1.6406 1.2266 1.0859 1.8438 2.8555 1.8438 5.3125z"/>
  </symbol>
  <symbol id="b" overflow="visible">
   <path d="m7.7031-19.656v4.3438h5.0469v3.5h-5.0469v6.5c0 0.71094 0.14062 1.1875 0.42188 1.4375s0.83594 0.375 1.6719 0.375h2.5156v3.5h-4.1875c-1.9375 0-3.3125-0.39844-4.125-1.2031-0.80469-0.8125-1.2031-2.1797-1.2031-4.1094v-6.5h-2.4219v-3.5h2.4219v-4.3438z"/>
  </symbol>
  <symbol id="k" overflow="visible">
   <path d="m12.766-13.078v-8.2031h4.9219v21.281h-4.9219v-2.2188c-0.66797 0.90625-1.4062 1.5703-2.2188 1.9844s-1.7578 0.625-2.8281 0.625c-1.8867 0-3.4336-0.75-4.6406-2.25-1.2109-1.5-1.8125-3.4258-1.8125-5.7812 0-2.3633 0.60156-4.2969 1.8125-5.7969 1.207-1.5 2.7539-2.25 4.6406-2.25 1.0625 0 2 0.21484 2.8125 0.64062 0.82031 0.42969 1.5664 1.0859 2.2344 1.9688zm-3.2188 9.9219c1.0391 0 1.8359-0.37891 2.3906-1.1406 0.55078-0.76953 0.82812-1.8828 0.82812-3.3438 0-1.457-0.27734-2.5664-0.82812-3.3281-0.55469-0.76953-1.3516-1.1562-2.3906-1.1562-1.043 0-1.8398 0.38672-2.3906 1.1562-0.55469 0.76172-0.82812 1.8711-0.82812 3.3281 0 1.4609 0.27344 2.5742 0.82812 3.3438 0.55078 0.76172 1.3477 1.1406 2.3906 1.1406z"/>
  </symbol>
  <symbol id="j" overflow="visible">
   <path d="m10.5-3.1562c1.0508 0 1.8516-0.37891 2.4062-1.1406 0.55078-0.76953 0.82812-1.8828 0.82812-3.3438 0-1.457-0.27734-2.5664-0.82812-3.3281-0.55469-0.76953-1.3555-1.1562-2.4062-1.1562-1.0547 0-1.8594 0.38672-2.4219 1.1562-0.55469 0.77344-0.82812 1.8828-0.82812 3.3281 0 1.4492 0.27344 2.5586 0.82812 3.3281 0.5625 0.77344 1.3672 1.1562 2.4219 1.1562zm-3.25-9.9219c0.67578-0.88281 1.4219-1.5391 2.2344-1.9688 0.82031-0.42578 1.7656-0.64062 2.8281-0.64062 1.8945 0 3.4453 0.75 4.6562 2.25 1.207 1.5 1.8125 3.4336 1.8125 5.7969 0 2.3555-0.60547 4.2812-1.8125 5.7812-1.2109 1.5-2.7617 2.25-4.6562 2.25-1.0625 0-2.0078-0.21094-2.8281-0.625-0.8125-0.42578-1.5586-1.0859-2.2344-1.9844v2.2188h-4.8906v-21.281h4.8906z"/>
  </symbol>
  <symbol id="i" overflow="visible">
   <path d="m0.34375-15.312h4.8906l4.125 10.391 3.5-10.391h4.8906l-6.4375 16.766c-0.64844 1.6953-1.4023 2.8828-2.2656 3.5625-0.86719 0.6875-2 1.0312-3.4062 1.0312h-2.8438v-3.2188h1.5312c0.83203 0 1.4375-0.13672 1.8125-0.40625 0.38281-0.26172 0.67969-0.73047 0.89062-1.4062l0.14062-0.42188z"/>
  </symbol>
  <symbol id="f" overflow="visible">
   <path d="m14.953-3.7188h-8.2188l-1.3125 3.7188h-5.2812l7.5625-20.406h6.2656l7.5625 20.406h-5.2812zm-6.9062-3.7812h5.5781l-2.7812-8.125z"/>
  </symbol>
  <symbol id="t" overflow="visible">
   <path d="m2.3594-21.281h4.8906v21.281h-4.8906z"/>
  </symbol>
  <symbol id="h" overflow="visible">
   <path d="m17.75-9.3281v9.3281h-4.9219v-7.1406c0-1.3203-0.03125-2.2344-0.09375-2.7344s-0.16797-0.86719-0.3125-1.1094c-0.1875-0.3125-0.44922-0.55469-0.78125-0.73438-0.32422-0.17578-0.69531-0.26562-1.1094-0.26562-1.0234 0-1.8242 0.39844-2.4062 1.1875-0.58594 0.78125-0.875 1.8711-0.875 3.2656v7.5312h-4.8906v-15.312h4.8906v2.2344c0.73828-0.88281 1.5195-1.5391 2.3438-1.9688 0.83203-0.42578 1.75-0.64062 2.75-0.64062 1.7695 0 3.1133 0.54688 4.0312 1.6406 0.91406 1.0859 1.375 2.6562 1.375 4.7188z"/>
  </symbol>
  <symbol id="g" overflow="visible">
   <path d="m16.547-12.766c0.61328-0.94531 1.3477-1.6719 2.2031-2.1719 0.85156-0.5 1.7891-0.75 2.8125-0.75 1.7578 0 3.0977 0.54688 4.0156 1.6406 0.92578 1.0859 1.3906 2.6562 1.3906 4.7188v9.3281h-4.9219v-7.9844-0.35938c0.007813-0.13281 0.015625-0.32031 0.015625-0.5625 0-1.082-0.16406-1.8633-0.48438-2.3438-0.3125-0.48828-0.82422-0.73438-1.5312-0.73438-0.92969 0-1.6484 0.38672-2.1562 1.1562-0.51172 0.76172-0.77344 1.8672-0.78125 3.3125v7.5156h-4.9219v-7.9844c0-1.6953-0.14844-2.7852-0.4375-3.2656-0.29297-0.48828-0.8125-0.73438-1.5625-0.73438-0.9375 0-1.6641 0.38672-2.1719 1.1562-0.51172 0.76172-0.76562 1.8594-0.76562 3.2969v7.5312h-4.9219v-15.312h4.9219v2.2344c0.60156-0.86328 1.2891-1.5156 2.0625-1.9531 0.78125-0.4375 1.6406-0.65625 2.5781-0.65625 1.0625 0 2 0.25781 2.8125 0.76562 0.8125 0.51172 1.4258 1.2305 1.8438 2.1562z"/>
  </symbol>
  <symbol id="d" overflow="visible">
   <path d="m9.6406-12.188c-1.0859 0-1.9141 0.39062-2.4844 1.1719-0.57422 0.78125-0.85938 1.9062-0.85938 3.375s0.28516 2.5938 0.85938 3.375c0.57031 0.77344 1.3984 1.1562 2.4844 1.1562 1.0625 0 1.875-0.38281 2.4375-1.1562 0.57031-0.78125 0.85938-1.9062 0.85938-3.375s-0.28906-2.5938-0.85938-3.375c-0.5625-0.78125-1.375-1.1719-2.4375-1.1719zm0-3.5c2.6328 0 4.6914 0.71484 6.1719 2.1406 1.4766 1.418 2.2188 3.3867 2.2188 5.9062 0 2.5117-0.74219 4.4805-2.2188 5.9062-1.4805 1.418-3.5391 2.125-6.1719 2.125-2.6484 0-4.7148-0.70703-6.2031-2.125-1.4922-1.4258-2.2344-3.3945-2.2344-5.9062 0-2.5195 0.74219-4.4883 2.2344-5.9062 1.4883-1.4258 3.5547-2.1406 6.2031-2.1406z"/>
  </symbol>
  <symbol id="s" overflow="visible">
   <path d="m0.42188-15.312h4.8906l3.8281 10.578 3.7969-10.578h4.9062l-6.0312 15.312h-5.375z"/>
  </symbol>
  <symbol id="r" overflow="visible">
   <path d="m12.422-21.281v3.2188h-2.7031c-0.6875 0-1.1719 0.125-1.4531 0.375-0.27344 0.25-0.40625 0.6875-0.40625 1.3125v1.0625h4.1875v3.5h-4.1875v11.812h-4.8906v-11.812h-2.4375v-3.5h2.4375v-1.0625c0-1.6641 0.46094-2.8984 1.3906-3.7031 0.92578-0.80078 2.3672-1.2031 4.3281-1.2031z"/>
  </symbol>
  <symbol id="q" overflow="visible">
   <path d="m17.75-9.3281v9.3281h-4.9219v-7.1094c0-1.3438-0.03125-2.2656-0.09375-2.7656s-0.16797-0.86719-0.3125-1.1094c-0.1875-0.3125-0.44922-0.55469-0.78125-0.73438-0.32422-0.17578-0.69531-0.26562-1.1094-0.26562-1.0234 0-1.8242 0.39844-2.4062 1.1875-0.58594 0.78125-0.875 1.8711-0.875 3.2656v7.5312h-4.8906v-21.281h4.8906v8.2031c0.73828-0.88281 1.5195-1.5391 2.3438-1.9688 0.83203-0.42578 1.75-0.64062 2.75-0.64062 1.7695 0 3.1133 0.54688 4.0312 1.6406 0.91406 1.0859 1.375 2.6562 1.375 4.7188z"/>
  </symbol>
  <symbol id="p" overflow="visible">
   <path d="m2.5781-20.406h5.875l7.4219 14v-14h4.9844v20.406h-5.875l-7.4219-14v14h-4.9844z"/>
  </symbol>
  <symbol id="o" overflow="visible">
   <path d="m2.1875-5.9688v-9.3438h4.9219v1.5312c0 0.83594-0.007813 1.875-0.015625 3.125-0.011719 1.25-0.015625 2.0859-0.015625 2.5 0 1.2422 0.03125 2.1328 0.09375 2.6719 0.070313 0.54297 0.17969 0.93359 0.32812 1.1719 0.20703 0.32422 0.47266 0.57422 0.79688 0.75 0.32031 0.16797 0.69141 0.25 1.1094 0.25 1.0195 0 1.8203-0.39062 2.4062-1.1719 0.58203-0.78125 0.875-1.8672 0.875-3.2656v-7.5625h4.8906v15.312h-4.8906v-2.2188c-0.74219 0.89844-1.5234 1.5586-2.3438 1.9844-0.82422 0.41406-1.7344 0.625-2.7344 0.625-1.7617 0-3.1055-0.53906-4.0312-1.625-0.92969-1.082-1.3906-2.6602-1.3906-4.7344z"/>
  </symbol>
  <symbol id="n" overflow="visible">
   <path d="m2.5781-20.406h8.7344c2.5938 0 4.582 0.57812 5.9688 1.7344 1.3945 1.1484 2.0938 2.7891 2.0938 4.9219 0 2.1367-0.69922 3.7812-2.0938 4.9375-1.3867 1.1562-3.375 1.7344-5.9688 1.7344h-3.4844v7.0781h-5.25zm5.25 3.8125v5.7031h2.9219c1.0195 0 1.8047-0.25 2.3594-0.75 0.5625-0.5 0.84375-1.2031 0.84375-2.1094 0-0.91406-0.28125-1.6172-0.84375-2.1094-0.55469-0.48828-1.3398-0.73438-2.3594-0.73438z"/>
  </symbol>
  <symbol id="m" overflow="visible">
   <path d="m2.3594-15.312h4.8906v15.031c0 2.0508-0.49609 3.6172-1.4844 4.7031-0.98047 1.082-2.4062 1.625-4.2812 1.625h-2.4219v-3.2188h0.85938c0.92578 0 1.5625-0.21094 1.9062-0.625 0.35156-0.41797 0.53125-1.2461 0.53125-2.4844zm0-5.9688h4.8906v4h-4.8906z"/>
  </symbol>
  <symbol id="l" overflow="visible">
   <path d="m14.719-14.828v3.9844c-0.65625-0.45703-1.3242-0.79688-2-1.0156-0.66797-0.21875-1.3594-0.32812-2.0781-0.32812-1.3672 0-2.4336 0.40234-3.2031 1.2031-0.76172 0.79297-1.1406 1.9062-1.1406 3.3438 0 1.4297 0.37891 2.543 1.1406 3.3438 0.76953 0.79297 1.8359 1.1875 3.2031 1.1875 0.75781 0 1.4844-0.10938 2.1719-0.32812 0.6875-0.22656 1.3203-0.56641 1.9062-1.0156v4c-0.76172 0.28125-1.5391 0.48828-2.3281 0.625-0.78125 0.14453-1.5742 0.21875-2.375 0.21875-2.7617 0-4.9219-0.70703-6.4844-2.125-1.5547-1.4141-2.3281-3.3828-2.3281-5.9062 0-2.5312 0.77344-4.5039 2.3281-5.9219 1.5625-1.4141 3.7227-2.125 6.4844-2.125 0.80078 0 1.5938 0.074219 2.375 0.21875 0.78125 0.13672 1.5547 0.35156 2.3281 0.64062z"/>
  </symbol>
 </defs>
 <g>
  <path d="m465.1 134.28c-3.832-8.5078-8.6758-19.219-17.668-23.527-1.9492-0.93359-3.7461-1.2617-5.4883-1.3281 4.2109-11.418 5.2812-24.668-2.2383-34.906-4.3633-5.9375-10.367-8.6289-16.598-12.152-13.402-7.5781-16.762-18.355-16.172-31.555l0.17578-2.8125-3.1758 1.8477c-9.6719 5.1914-19.711 6.7461-31.812 5.5703-9.043-0.87891-17.938-3.1484-26.617 0.97266-12.098 5.7461-18.641 20.234-20.082 33.051h-0.027344c-0.023437-0.089844-0.035156-0.17188-0.085937-0.26953-8.1523-15.023-19.828-24.793-38.02-23.16-10.605 0.95312-21.785 4.5469-31.504 8.8047-5.4727 2.3906-9.8242 5.8867-14.297 9.2734l-2.793 2.0664 0.71875 2.0547c4.3398 13.836-0.17969 28.57-1.9141 44.695-1.0703 9.9219 1.8711 19.699 9.8516 25.445-7.6719 2.0312-14.336 6.2266-21.297 9.7422l-2.25 1.1016 0.74609 4.6641c0.64453 4.1484 1.3438 8.2812 2.6992 12.324 3.625 10.824 7.8008 21.555 11.465 32.418 4.7695 14.141 10.672 30.195 22.023 40.414 1.2656 1.1367 2.5859 2.1719 3.9375 3.1406-4.5859 1.2656-7.2852 7.0664-8.1992 11.324-1.25 5.8125-1.2305 10.922-4.6641 16.152-1.1875 1.8086-2.5352 3.4062-3.9922 4.8594l-4.9883 4.1211 6.7695 0.11719c11.84-0.50391 25.156-4.1992 32.207-6.1055 9.8125-2.6484 21.812-7.3125 30.25-14.785-2.5703 6.8594-4.7539 13.906-7.2969 20.602-4.9844 13.145-8.8555 26.797-8.4609 40.98 0.30859 11.207 2.8438 22.871 9.0938 32.336 7.4609 11.285 19.309 18.762 27.301 29.754 18.738 25.766 25.277 54.746 17.227 85.895-0.63672 2.4805-1.5 4.8711-2.4766 7.2188 1.3047-5.6914 2.4062-10.988 2.0273-17.109-0.64453-10.23-2.7109-22.109-9.1406-30.391-3.3281-4.2852-7.3008-6.457-11.738-9.375-7.6953-5.0625-13.066-11.898-20.016-17.781-8.4297-7.1289-19.395-10.074-28.191-16.27l-2.0156-1.5117 0.035156 3.1016c0.12891 6.7656 0.52734 13.535 0.25391 20.324-0.33594 8.1641-1.1133 16.418 0.0625 24.555 2.1406 14.816 9.793 31.113 18.262 43.328 7.332 10.574 17.516 16.637 30.508 16.766 3.3164 0.035156 7.0156-0.10156 10.785-0.41016-10.953 13.461-27.367 23.246-44.312 27.828l-3.5391 0.875 0.59766 4.6758c0.41406 1.6406 0.96875 3.1992 1.5781 4.5312l2.875 4.2383 6.8203-0.75c9.6328-1.3984 18.922-4.3438 27.098-10.18 11.098-7.918 23.961-15.98 31.82-27.578 13.367-19.734 14.746-51.516 8.707-74.137-3.668-13.746-11.133-26.125-19.41-37.391-9.3867-12.777-24.039-21.207-31.949-34.945-17.164-29.82-2.582-68.188 8.418-99.254 2.2695 4.0586 4.3359 8.2383 7.1836 11.957 3.8633 5.0508 8.8477 9.3281 13.887 13.16 3.7109 2.8164 9 6.4531 14.477 8.5742-0.011719 0.16797 0.003906 0.33594-0.011719 0.5l4.2891 0.79688-0.042969-4.7148c-0.20703-2.418-0.64844-4.9766-1.332-7.8789-1.1367-4.8398-1.9023-10.758-4.5586-15.277 0.45312-0.023437 0.90234-0.042968 1.3555-0.066406 24.457-1.1484 47.77-1.8711 70.758-7.875l3.8906-1.0547 0.042969-3.3672c0.078125-11.34-0.61719-23.23-4.2266-33.594 13.793 2.2773 28.449-4.6094 39.508-14.812l4.0039-4.0195 0.003906-6.7539c-0.4375-16.957-4.3555-34.066-11.109-49.059zm-141.5 351.21c-16.789-2.0312-24.574-15.379-31.242-29.309-9.918-20.715-10.809-42.594-11.672-64.914 2.0781 3.7539 4.8438 7.1797 6.9258 10.914 4.1289 7.4102 8.8125 14.578 11.977 22.473 0.32031 0.80078 1.5977 0.50391 1.332-0.37109-2.0273-6.7383-5.1172-12.836-8.3711-19.047-2.7812-5.3086-6.9141-10.672-9.4531-16.211 3.3594 2.3594 7.0156 4.418 10.961 6.5469 11.652 6.3008 18.473 16.699 29.164 23.941 7.8047 5.293 14.504 8.9922 18.043 18.453 2.1172 5.6602 3.0195 11.91 3.5781 17.898 0.77734 8.3281-0.51562 17.477-2.3477 26.461-3.3594-8.0469-7.293-15.836-12.492-22.895-5.7734-7.8281-16.535-13.719-19.746-23.039-0.30078-0.87891-1.6758-0.52734-1.4102 0.38672 2.25 7.8242 9.0156 12.375 13.906 18.52 7.0742 8.8828 12.207 19.602 16.418 30.16-5.3594 0.62891-10.727 0.61719-15.57 0.03125zm19.426-441.7c10.254-8.1641 21.773-4.0039 33.48-3.4492 10.852 0.51562 19.273-1.6914 26.879-6.8555-1.1328 10.809 2.0234 21.336 11.496 28.52 6.3555 4.8164 14.164 6.9258 19.75 12.891 9.6445 10.293 6.5352 22.523 4.0039 34.766-4.5312 0.91406-8.6797 3.7578-13.266 5.8398-4.2266-2-8.9336-1.9883-13.703-1.1367 1.457-8.7578-1.6367-19.234-7.5977-25.977-3.7578-5.3047-8.9922-9.7266-14.375-12.188-12.66-5.7891-30.703-3.6406-44.312-4.9688-5.207-0.50781-10.488-1.3945-15.566-1.7031 1.25-9.4883 5.6602-19.73 13.211-25.738zm88.613 117.26c-0.86719 0.58984-1.1523 1.8359-0.59766 2.7227-1.7266 6.8672-4.4961 13.383-8.3555 19.285-2.5078 0.64453-5.0781 1.2109-7.7109 1.8438-7.0859 1.7031-13.836 4.8203-20.957 6.3047-15.832 3.3047-36.539 0.63281-52.246-2.1797-0.29688-0.054688-0.5 0.074219-0.63672 0.24219-7.8516-3.7109-14.762-8.7188-20.391-15.844 9.7109 2.4805 19.234 5.5 29.605 6.2031 14.332 0.97266 29.562-0.55859 42.336-7.668 20.172-11.227 18-32.781 9.0156-50.422 8.6523-2.4688 19.207-6.0977 25.598 0.28516 5.2695 5.2656 5.5664 14.934 5.8203 21.816 0.21484 5.9375-0.30469 11.777-1.4805 17.41zm-109.45 46.363c-16.078-1.3945-28.773-7.2188-40.355-15.422-0.66016-1.1367-1.3594-2.2227-1.9648-3.4336-7.2617-14.449-2.8125-25.098-0.97266-39.52 1.668-13.098-8.6016-27.43 10.977-32.414 3.7461-0.95312 9.1016-1.6562 14.547-2.043 2.3086 3.0625 4.1953 6.332 4.5312 11.324 0.35156 5.2656-2.4453 11.305-2.8789 16.711-0.89453 11.172 3.1211 20.688 9.0508 30 10.219 16.055 29.477 26.398 48.66 26.531-1.4062 0.24219-2.832 0.53125-4.2969 0.92578-8.3594 2.2383-14.941 2.7422-23.625 2.582-2.7812-0.050781-5.2305-0.44141-7.9258 0.58984-2.4766 0.94141-4.3359 2.3945-5.7461 4.168zm4.5859-134.01c0.30078 0.054688 0.60547 0.054688 0.91797-0.003906 3.6172 0.09375 7.2734 0.54297 10.836 0.86328 18.672 1.6523 50.676-0.23438 64.043 15.883 4.4453 7.2812 6.5703 17.219 4.9219 25.117-2.7383 0.68359-5.4492 1.4766-8.0469 2.1719l-3.9688 0.94531 0.28516 0.44922c-0.93359 0.71094-1.8203 1.4844-2.6953 2.2734 1.6953-6.2031 1.0469-13.719-2.9219-18.809-5.7695-7.4023-22.023-3.8633-30.039-4.082-10.988-0.30078-26.438-4.0977-35.945 3.6016-7.9297 6.4219-5.293 15.613-4.1719 24.297-2.3984 0.51562-4.75 1.125-6.9844 1.625 0.44922-1.9023 0.79688-3.7852 0.69531-5.4375-0.21094-3.4375-1.3828-5.8789-3.0078-8.0078l-2.9023-3.207-5.6211 0.64453c-0.57812 0.050781-1.1523 0.10156-1.7344 0.13281 1.7734-3.7188 1.3555-10.82 2.0625-14.207 1.3672-6.5586 3.125-15.629 8.8594-19.914 4.6992-3.5352 10.004-4.3789 15.418-4.3359zm-13.574 87.445c-3.9805-8.8984-3.5938-16.52-1.9609-25.859 0.21094-1.2266 0.57031-2.5977 0.94531-4 10.289 7.8672 21.98 12.645 34.914 14.094 5.1953 0.58203 11.969 1.0117 18.301 0.16797 0.19141 0.074219 0.37891 0.15625 0.64453 0.10547 0.41016-0.085937 0.71875-0.26953 1.1016-0.375 2.9688-0.52734 5.7695-1.3828 8.2266-2.6875-1.6914 2.0703-3.4258 4.0938-5.3086 5.9453-12.059 11.871-31.148 24.383-48.641 22.113-0.25781-0.035156-0.4375 0.089844-0.56641 0.25781-0.80078-0.14063-1.6055-0.24609-2.4141-0.35938-1.9219-2.8281-3.6914-5.9297-5.2422-9.4023zm8.1016-40.98c0.40234-6.9648 6.4023-17.039 13.367-18.977 6.1836-1.7188 14.113 0.30859 20.332 0.60937 6.7578 0.33203 13.625 0.58203 20.391 0.58984 11.711 0.003906 16.672 9.9961 15.539 21.039-4.5859 4.6211-8.4844 10.031-12.5 15.289-0.96484 0.39844-1.9375 0.73438-2.9102 1.0586 4.5703-5.875 5.5156-14.902 4.9453-23.043l-0.27344-3.0625-2.4648-0.39844c-15.07-1.9883-31.406 3.0781-39.723 16.66-1.2227-1.4766-2.5469-2.7227-4.5469-3.4844-3.7539-1.4219-7.8906-1.125-11.977-0.35156-0.078125-1.9883-0.28906-3.9922-0.17969-5.9297zm40.516 22.105c4.5117-2.7383 7.3125-7.7773 2.3203-12.023-5.293-4.4961-16.555-5.332-22.977-1.3164 4.6797-4.7109 10.121-8.2305 16.469-10.695 6.8711-2.6641 13.215-2.9688 19.977-1.9883-0.33203 9.5195-0.41016 19.66-8.1719 25.133-2.5273 0.48438-5.0664 0.79297-7.6172 0.89062zm-12.633-0.83203c-3.4883-3.0195-6.7812-5.6953-9.5859-9.4648-0.003906-0.003906-0.011718-0.015625-0.015624-0.023438 5.0234-1.9336 11.027-2.4062 16.258-1.3047 2.8945 0.60938 8.1133 2.168 6.5117 6.0469-1.1094 2.6953-5.5117 4.1094-8.043 4.2656-0.63672 0.039062-1.0547 0.48047-1.3203 0.99609-1.2734-0.12891-2.5391-0.31641-3.8047-0.51562zm-13.527-9.0352c2.4922 2.7539 4.582 5.2539 6.9609 7.668-9.8711-2.4375-19.48-6.5352-28.309-10.695 7.1992-0.078126 16.352-2.4922 21.348 3.0273zm26.324 27.258c14.207-10.684 21.5-27.559 35.023-38.566l1.082 1.707c3.9297 6.6641 6.6016 13.77 6.5117 22.215-0.18359 17.086-15.074 25.258-29.773 28.676-13.363 3.1094-27.48 1.8047-40.891-0.28516-1.1406-0.17969-2.2852-0.39063-3.4219-0.61719 11.516-0.49219 21.73-5.8047 31.469-13.129zm-116.48-75.594c0.3125-7.1328-0.62891-12.652-2.9297-17.543 1.1484-0.75 2.3086-1.5195 3.5117-2.2852 7.8516-5.0117 16.688-8.0352 25.586-10.629 10.246-2.9844 21.027-5.3555 31.32-1.3164 9.2305 3.6172 13.68 9.7344 18.25 17.793-5.5508 0.80469-10.617 3.1602-14.758 8.6133-4.3789 5.7734-5.7383 11.379-6.9766 18.426-0.30859 1.7539-0.24219 7.0039-0.48047 11.078-2.4023-6.2422-6.0195-11.445-10.164-17.121-4.2773-5.8633-8.6289-11.004-15.43-13.914-0.62891-0.26953-1.0859 0.50391-0.53125 0.91406 5.9062 4.4023 9.8906 10.527 13.742 16.684 3.6055 5.7617 7.6992 11.199 10.293 17.527-5.1797 0.14453-10.586 0.23047-15.277 2.5312-6.0469 2.957-8.3164 8.2812-8.3477 14.777-0.023437 3.6914 0.47656 7.0781 0.91406 10.473-6.6758-1.457-12.945-3.0508-20.02-2.5703-0.0625-0.035156-0.089844-0.078125-0.15234-0.11328-21.094-9.5898-9.3164-35.797-8.5508-53.324zm5.4219 134.77c-10.297-20.922-15.703-44.105-23.352-66.148 4.9727-2.5547 9.7734-5.5547 15.082-7.9531 10.879-4.918 20.988-4.2891 31.77-3.0859 0.46094 3.9492 0.6875 7.9648-0.24219 12.527-1.3672 6.7148-2.5664 11.973-1.8086 18.934 0.71875 6.5977 3.0781 11.781 5.9453 16.672-7.1797-5.4766-14.004-11.82-21.023-18.602-0.49219-0.47656-1.2109 0.25391-0.74609 0.74609 10 10.73 17.875 21.133 30.598 28.918 9.9219 6.0703 21.672 9.4375 33.332 9.5664-3.7969 7.9414-1.25 19.926 1.7539 27.754-9.5859 6.8672-21.559 9.4883-33.684 8.2891-17.766-1.7617-29.914-11.949-37.625-27.617zm29.805 50.258c-6.3945 1.7031-16.992 4.5742-27.086 5.4531 1.0938-1.457 2.0781-2.9844 2.9023-4.6211 4.1602-8.25 0.66016-21.488 9.5078-26.539 15.707 10.434 36.211 10.02 52.164 0.98438-0.37109 0.66797-0.73438 1.332-1.0859 2.0117-8.3516 12.195-21.949 18.871-36.402 22.711zm33.941 8.1211c-4.5625 13.727-7.9922 27.938-7.1523 42.566 0.66797 11.559 3.5742 23.527 10.121 33.098 7.8125 11.418 19.898 18.77 28.234 29.871 19.551 26.023 27.008 55.738 19.953 88.137-6.7383 30.953-38.824 53.055-68.645 56.762-0.039062-0.050781-0.085938-0.085937-0.11719-0.13281-0.81641-1.125-1.7148-2.8906-2.3477-4.793 6.0273-1.4883 11.828-3.7695 17.199-7.2461 11.336-7.332 24.445-14.75 32.66-25.742 13.973-18.699 16.328-49.414 10.992-71.488-3.2422-13.418-10.32-25.613-18.246-36.77-8.9883-12.652-23.375-21.242-30.852-34.77-15.988-28.914-0.95703-64.934 10.922-94.414 2.1992-3.0508 3.7969-6.4609 4.5938-10.258 0.375-0.25781 0.73828-0.51953 1.1094-0.78516-0.11328 0.17187-0.16797 0.375-0.015624 0.57812 0.8125 1.0977 1.5234 2.25 2.2305 3.4102-4.4375 10.23-7.1523 21.488-10.641 31.977zm46.668-7.4102c0.36328 2.3984 0.81641 4.8008 1.0703 7.2109-7.1719-2.6758-13.859-7.6094-19.227-12.234-4.7031-4.0547-8.1523-8.8633-11.586-13.719 7.125 4.8281 16.488 4.7109 26.512 4.2344 1.8945 4.5742 2.4883 9.6328 3.2305 14.508zm53.281-54.469c5.7461 1.7188 8.668 9.2383 11.121 14.168 2.2734 4.5742 4.4531 9.5977 7.2031 13.938 0 0.11328 0.003906 0.22266 0.003906 0.33984-13.848 3.3711-27.637 5.0742-42.633 6.125-10.73 0.75781-21.461 1.3594-32.199 1.8711-0.125-0.10547-0.21094-0.24219-0.33984-0.34766-0.45312-0.37891-1.1133-0.066406-1.1602 0.42969-8.457 0.42188-18.211 1.4609-24.859-4.5117-5.0195-4.5117-7.4492-12.09-8.6758-18.594-0.69922-3.6953-1.2812-8.7266-0.37891-12.48 2.2344-9.2852 6.7578-9.2852 15.844-9.2188 7.0859 0.050781 11.258-0.4375 18.285-2.3203 13.473-3.6172 23.91-2.6211 37.57 0.40234 1.0195 0.22266 1.4336-1.25 0.42969-1.5664-8.4727-2.7148-16.031-4.7812-24.086-4.7148 0.10547-0.21094 0.11328-0.44922-0.19141-0.50391-6.2617-1.2148-12.273-2.5938-17.953-4.3555 12.371 2.8633 26.23 3.5156 37.957 2.1719 8.6758-0.99609 16.773-4.7031 25.223-6.7695 13.316 12.602 16.285 29.137 16.969 46.301-2.1445-3.8359-4.5039-7.5977-6.6875-11.285-2.6055-4.4023-5.8359-9.3359-11.316-9.9961-0.53906-0.070312-0.61328 0.76953-0.125 0.91797zm17.398-8c-2.8438-7.2695-7.2617-13.691-14.066-18.48 0.28125-0.066406 0.57031-0.13281 0.85156-0.20312l5.9141-1.4844 3.6953-5.543c2.8555-4.9492 4.9453-10.355 6.3555-15.988 8.1992 2.1914 16.387 3.125 24.238 6.9492 0.63281 0.30859 1.1523-0.55859 0.55469-0.94531-7.1133-4.5586-15.629-8.0039-23.961-9.9805 1.6016-8.3945 1.8086-17.148 0.73828-25.559-0.875-6.875-2.75-14.996-8.8477-19.168 7.9141-2.6094 14.527-7.0547 23.477 0.91406 7.332 6.5312 11.504 18.898 14.531 27.699 4.4453 12.906 6.957 27.68 6.9062 42.09-10.82 10.613-24.297 16.945-40.387 19.699z"/>
  <path d="m403.8 328.04c-0.65625-3.8125-0.73828-7.7109-1.4453-11.52-2.6133-14.145-14.262-23.398-21.477-34.91l-2.5859-4.6992-1.2109 3.9297c-7.0117 19.5-27.273 34.664-33.762 54.82-3.9258 12.188-0.71875 23.004 3.5938 34.66 2.582 6.9844 5.293 14.723 10.27 20.371l4.0273 3.5938 1.8867-0.32422c7.2734-1.4492 14.398-3.9414 20.004-6.9883 11.082-6.0273 17.258-18.664 22.07-29.836 2.1016-4.8828 3.8008-9.7031 2.8555-15.082-0.83984-4.7695-3.3789-9.1133-4.2266-14.016zm-3.2188 31.238c-2.5859 5.2578-5.4141 10.863-9.043 15.457-5.7617 7.3008-16.902 12.539-28.055 14.906 2.4805-7.7773 6.5859-14.605 10.246-21.672 0.027344-0.003906 0.050781 0.003906 0.078125 0 7.6484-1.8945 14.234-8.6016 18.781-14.672 0.33203-0.4375-0.36328-0.91406-0.73438-0.56641-4.3633 4.0547-10.258 9.3242-16.297 11.492 1.832-3.8594 3.4336-7.8438 4.4023-12.191 2.7734-12.398 2.25-28.773 0.28516-41.281-0.11719-0.74609-1.3789-0.57812-1.3164 0.17969 1.1016 14.113 1.0625 32.465-3.5117 45.809-1.4727 4.2852-3.4258 8.0703-5.4648 11.73-3.4141-4.9844-6.7969-9.7539-9.0312-15.5-0.15625-0.40234-0.78516-0.25781-0.66797 0.18359 1.6797 6.3047 4.5586 12.309 8.4453 17.566-3.4766 6.1211-6.9492 12.113-8.668 19.582-0.0625 0.011719-0.125 0.027344-0.19141 0.039063-7.1836-9.25-11.098-22.91-13.562-33.641-3.375-14.723 3.0117-28.855 11.406-40.777 7.3594-10.449 16.535-19.672 21.711-30.805 2.2344 3.7031 4.8906 7.2344 7.5312 10.875 5.875 8.0938 10.176 14.672 11.723 24.84 0.62109 4.0781 1.1484 7.8125 2.2305 11.84 1.0352 3.8398 1.9141 5.5234 2.7383 10.109 1.3086 7.1836 0.089844 10.152-3.0352 16.496z"/>
  <path d="m365.45 324.06c-0.39062 4.6133 1.1641 9.5547 3.6289 13.418 0.48828 0.76172 1.8477 0.29297 1.5234-0.64453-1.5-4.3125-3.2383-8.4062-4.0703-12.918-0.125-0.65234-1.0312-0.43359-1.082 0.14453z"/>
  <use x="70" y="644" xlink:href="#u"/>
  <use x="90.550781" y="644" xlink:href="#c"/>
  <use x="104.359375" y="644" xlink:href="#a"/>
  <use x="123.347656" y="644" xlink:href="#e"/>
  <use x="142.242188" y="644" xlink:href="#b"/>
  <use x="155.628906" y="644" xlink:href="#a"/>
  <use x="174.617188" y="644" xlink:href="#k"/>
  <use x="204.410156" y="644" xlink:href="#j"/>
  <use x="224.453125" y="644" xlink:href="#i"/>
  <use x="252.453125" y="644" xlink:href="#f"/>
  <use x="274.121094" y="644" xlink:href="#t"/>
  <use x="283.71875" y="644" xlink:href="#a"/>
  <use x="302.710938" y="644" xlink:href="#h"/>
  <use x="322.640625" y="644" xlink:href="#e"/>
  <use x="351.285156" y="644" xlink:href="#f"/>
  <use x="372.953125" y="644" xlink:href="#c"/>
  <use x="386.765625" y="644" xlink:href="#b"/>
  <use x="400.148438" y="644" xlink:href="#a"/>
  <use x="419.140625" y="644" xlink:href="#g"/>
  <use x="448.3125" y="644" xlink:href="#d"/>
  <use x="467.550781" y="644" xlink:href="#s"/>
  <use x="485.804687" y="644" xlink:href="#e"/>
  <use x="70" y="672" xlink:href="#r"/>
  <use x="82.183594" y="672" xlink:href="#c"/>
  <use x="95.992188" y="672" xlink:href="#d"/>
  <use x="115.226562" y="672" xlink:href="#g"/>
  <use x="154.152344" y="672" xlink:href="#b"/>
  <use x="167.535156" y="672" xlink:href="#q"/>
  <use x="187.46875" y="672" xlink:href="#a"/>
  <use x="216.207031" y="672" xlink:href="#p"/>
  <use x="239.640625" y="672" xlink:href="#d"/>
  <use x="258.878906" y="672" xlink:href="#o"/>
  <use x="278.8125" y="672" xlink:href="#h"/>
  <use x="308.492188" y="672" xlink:href="#n"/>
  <use x="329.015625" y="672" xlink:href="#c"/>
  <use x="342.820312" y="672" xlink:href="#d"/>
  <use x="362.058594" y="672" xlink:href="#m"/>
  <use x="371.65625" y="672" xlink:href="#a"/>
  <use x="390.648438" y="672" xlink:href="#l"/>
  <use x="407.242188" y="672" xlink:href="#b"/>
 </g>
</svg>
