<?xml version="1.0" encoding="UTF-8"?>
<svg width="700pt" height="700pt" version="1.1" viewBox="0 0 700 700" xmlns="http://www.w3.org/2000/svg" xmlns:xlink="http://www.w3.org/1999/xlink">
 <defs>
  <symbol id="v" overflow="visible">
   <path d="m0.28125-0.015625c-0.023438 0.011719-0.042969 0.015625-0.0625 0.015625h-0.046875c-0.042969 0-0.078125-0.0078125-0.10938-0.03125-0.03125-0.03125-0.046875-0.066406-0.046875-0.10938 0-0.050781 0.015625-0.09375 0.046875-0.125s0.066406-0.046875 0.10938-0.046875c0.019531 0 0.035156 0.007812 0.046875 0.015625 0.019531 0 0.039062 0.007813 0.0625 0.015625v0.0625c-0.023438-0.007812-0.039062-0.015625-0.046875-0.015625-0.011719-0.007813-0.027344-0.015625-0.046875-0.015625-0.03125 0-0.054688 0.011719-0.0625 0.03125-0.011719 0.011719-0.015625 0.039062-0.015625 0.078125 0 0.023437 0.003906 0.042969 0.015625 0.0625 0.007812 0.023438 0.03125 0.03125 0.0625 0.03125h0.046875c0.007813-0.0078125 0.023437-0.019531 0.046875-0.03125z"/>
  </symbol>
  <symbol id="c" overflow="visible">
   <path d="m0.20312-0.15625c-0.011719-0.007812-0.023437-0.015625-0.03125-0.015625-0.023437 0-0.039063 0.007813-0.046875 0.015625-0.011719 0.011719-0.015625 0.027344-0.015625 0.046875v0.10938h-0.078125v-0.21875h0.078125v0.03125c0.007813-0.019531 0.019531-0.03125 0.03125-0.03125 0.007813-0.007812 0.019531-0.015625 0.03125-0.015625h0.015625 0.015625z"/>
  </symbol>
  <symbol id="a" overflow="visible">
   <path d="m0.25-0.10938v0.015625h-0.15625c0 0.023438 0.0039062 0.039062 0.015625 0.046875h0.046875 0.03125c0.019531-0.0078125 0.039062-0.019531 0.0625-0.03125v0.0625c-0.023438 0.011719-0.042969 0.015625-0.0625 0.015625h-0.046875c-0.042969 0-0.074219-0.0078125-0.09375-0.03125-0.023438-0.019531-0.03125-0.046875-0.03125-0.078125 0-0.039063 0.0078125-0.070313 0.03125-0.09375 0.019531-0.019531 0.050781-0.03125 0.09375-0.03125 0.03125 0 0.054687 0.011719 0.078125 0.03125 0.019531 0.023437 0.03125 0.054687 0.03125 0.09375zm-0.0625-0.03125c0-0.007813-0.007812-0.015625-0.015625-0.015625-0.011719-0.007812-0.023437-0.015625-0.03125-0.015625-0.011719 0-0.023437 0.007813-0.03125 0.015625-0.011719 0-0.015625 0.007812-0.015625 0.015625z"/>
  </symbol>
  <symbol id="j" overflow="visible">
   <path d="m0.14062-0.10938c-0.023437 0-0.039063 0.007813-0.046875 0.015625v0.015625 0.03125h0.03125c0.007812 0 0.019531-0.0039062 0.03125-0.015625 0.007812-0.0078125 0.015625-0.019531 0.015625-0.03125v-0.015625zm0.10938-0.015625v0.125h-0.078125v-0.03125c-0.011719 0.011719-0.023437 0.023438-0.03125 0.03125h-0.046875c-0.023438 0-0.042969-0.0039062-0.0625-0.015625-0.011719-0.0078125-0.015625-0.03125-0.015625-0.0625 0-0.019531 0.0078125-0.035156 0.03125-0.046875 0.019531-0.007812 0.046875-0.015625 0.078125-0.015625h0.046875c0-0.019531-0.007813-0.03125-0.015625-0.03125h-0.046875-0.046875-0.03125v-0.046875h0.046875c0.019531-0.007812 0.035156-0.015625 0.046875-0.015625 0.039062 0 0.070312 0.011719 0.09375 0.03125 0.019531 0.023437 0.03125 0.046875 0.03125 0.078125z"/>
  </symbol>
  <symbol id="b" overflow="visible">
   <path d="m0.10938-0.28125v0.0625h0.078125v0.046875h-0.078125v0.09375 0.03125h0.03125 0.03125v0.046875h-0.046875c-0.03125 0-0.058594-0.0039062-0.078125-0.015625-0.011719-0.0078125-0.015625-0.03125-0.015625-0.0625v-0.09375h-0.03125v-0.046875h0.03125v-0.0625z"/>
  </symbol>
  <symbol id="i" overflow="visible">
   <path d="m0.1875-0.1875v-0.125h0.0625v0.3125h-0.0625v-0.03125c-0.011719 0.011719-0.023438 0.023438-0.03125 0.03125h-0.046875c-0.023438 0-0.042969-0.0078125-0.0625-0.03125-0.023438-0.019531-0.03125-0.046875-0.03125-0.078125 0-0.039063 0.0078125-0.070313 0.03125-0.09375 0.019531-0.019531 0.039062-0.03125 0.0625-0.03125 0.019531 0 0.035156 0.007813 0.046875 0.015625 0.007812 0 0.019531 0.011719 0.03125 0.03125zm-0.046875 0.14062c0.007813 0 0.019531-0.0039062 0.03125-0.015625 0.007813-0.0078125 0.015625-0.023438 0.015625-0.046875 0-0.019531-0.007812-0.035156-0.015625-0.046875-0.011719-0.007812-0.023437-0.015625-0.03125-0.015625-0.023437 0-0.039063 0.007813-0.046875 0.015625v0.046875 0.046875c0.007812 0.011719 0.023438 0.015625 0.046875 0.015625z"/>
  </symbol>
  <symbol id="h" overflow="visible">
   <path d="m0.15625-0.046875c0.007812 0 0.019531-0.0039062 0.03125-0.015625 0.007812-0.0078125 0.015625-0.023438 0.015625-0.046875 0-0.019531-0.007813-0.035156-0.015625-0.046875-0.011719-0.007812-0.023438-0.015625-0.03125-0.015625-0.023438 0-0.039062 0.007813-0.046875 0.015625v0.046875 0.046875c0.007813 0.011719 0.023437 0.015625 0.046875 0.015625zm-0.046875-0.14062c0.007813-0.019531 0.019531-0.03125 0.03125-0.03125 0.007813-0.007812 0.019531-0.015625 0.03125-0.015625 0.03125 0 0.054687 0.011719 0.078125 0.03125 0.019531 0.023437 0.03125 0.054687 0.03125 0.09375 0 0.03125-0.011719 0.058594-0.03125 0.078125-0.023438 0.023438-0.046875 0.03125-0.078125 0.03125h-0.03125c-0.011719-0.0078125-0.023437-0.019531-0.03125-0.03125v0.03125h-0.078125v-0.3125h0.078125z"/>
  </symbol>
  <symbol id="g" overflow="visible">
   <path d="m0-0.21875h0.078125l0.0625 0.14062 0.046875-0.14062h0.078125l-0.09375 0.23438c-0.011719 0.03125-0.027344 0.050781-0.046875 0.0625-0.011719 0.0078125-0.027344 0.015625-0.046875 0.015625h-0.046875v-0.0625h0.03125 0.015625c0.0078125 0 0.019531-0.0078125 0.03125-0.015625v-0.015625z"/>
  </symbol>
  <symbol id="e" overflow="visible">
   <path d="m0.03125-0.29688h0.078125v0.29688h-0.078125z"/>
  </symbol>
  <symbol id="u" overflow="visible">
   <path d="m0-0.29688h0.078125l0.0625 0.10938 0.078125-0.10938h0.078125l-0.10938 0.17188v0.125h-0.078125v-0.125z"/>
  </symbol>
  <symbol id="t" overflow="visible">
   <path d="m0.03125-0.29688h0.078125v0.10938l0.10938-0.10938h0.09375l-0.14062 0.14062 0.15625 0.15625h-0.09375l-0.125-0.10938v0.10938h-0.078125z"/>
  </symbol>
  <symbol id="s" overflow="visible">
   <path d="m0.17188-0.25c-0.023437 0-0.039063 0.011719-0.046875 0.03125-0.011719 0.011719-0.015625 0.039062-0.015625 0.078125 0 0.023437 0.003906 0.042969 0.015625 0.0625 0.007812 0.023438 0.023438 0.03125 0.046875 0.03125 0.03125 0 0.050781-0.0078125 0.0625-0.03125 0.007813-0.019531 0.015625-0.039063 0.015625-0.0625 0-0.039063-0.007812-0.066406-0.015625-0.078125-0.011719-0.019531-0.03125-0.03125-0.0625-0.03125zm0-0.0625c0.050781 0 0.085937 0.015625 0.10938 0.046875 0.03125 0.03125 0.046875 0.074219 0.046875 0.125 0 0.042969-0.015625 0.078125-0.046875 0.10938-0.023438 0.023438-0.058594 0.03125-0.10938 0.03125-0.042969 0-0.078125-0.0078125-0.10938-0.03125-0.03125-0.03125-0.046875-0.066406-0.046875-0.10938 0-0.050781 0.015625-0.09375 0.046875-0.125s0.066406-0.046875 0.10938-0.046875z"/>
  </symbol>
  <symbol id="f" overflow="visible">
   <path d="m0.03125-0.29688h0.09375l0.10938 0.20312v-0.20312h0.078125v0.29688h-0.09375l-0.10938-0.20312v0.20312h-0.078125z"/>
  </symbol>
  <symbol id="r" overflow="visible">
   <path d="m0.17188-0.3125v0.046875h-0.03125c-0.011719 0-0.023437 0.007813-0.03125 0.015625v0.015625 0.015625h0.0625v0.046875h-0.0625v0.17188h-0.0625v-0.17188h-0.046875v-0.046875h0.046875v-0.015625c0-0.03125 0.0039062-0.050781 0.015625-0.0625 0.0078125-0.007813 0.03125-0.015625 0.0625-0.015625z"/>
  </symbol>
  <symbol id="d" overflow="visible">
   <path d="m0.14062-0.17188c-0.023437 0-0.039063 0.007813-0.046875 0.015625v0.046875 0.046875c0.007812 0.011719 0.023438 0.015625 0.046875 0.015625 0.019531 0 0.03125-0.0039062 0.03125-0.015625 0.007813-0.0078125 0.015625-0.023438 0.015625-0.046875 0-0.019531-0.007812-0.035156-0.015625-0.046875 0-0.007812-0.011719-0.015625-0.03125-0.015625zm0-0.0625c0.039063 0 0.070313 0.011719 0.09375 0.03125 0.019531 0.023437 0.03125 0.054687 0.03125 0.09375 0 0.03125-0.011719 0.058594-0.03125 0.078125-0.023437 0.023438-0.054687 0.03125-0.09375 0.03125-0.042969 0-0.074219-0.0078125-0.09375-0.03125-0.023438-0.019531-0.03125-0.046875-0.03125-0.078125 0-0.039063 0.0078125-0.070313 0.03125-0.09375 0.019531-0.019531 0.050781-0.03125 0.09375-0.03125z"/>
  </symbol>
  <symbol id="q" overflow="visible">
   <path d="m0.25-0.1875c0-0.007812 0.003906-0.019531 0.015625-0.03125 0.019531-0.007812 0.035156-0.015625 0.046875-0.015625 0.03125 0 0.050781 0.011719 0.0625 0.03125 0.007812 0.023437 0.015625 0.042969 0.015625 0.0625v0.14062h-0.0625v-0.10938-0.015625c0-0.019531-0.007813-0.03125-0.015625-0.03125 0-0.007812-0.007812-0.015625-0.015625-0.015625-0.011719 0-0.023437 0.007813-0.03125 0.015625-0.011719 0.011719-0.015625 0.027344-0.015625 0.046875v0.10938h-0.078125v-0.10938-0.046875c0-0.007812-0.011719-0.015625-0.03125-0.015625-0.011719 0-0.023437 0.007813-0.03125 0.015625v0.046875 0.10938h-0.078125v-0.21875h0.078125v0.03125c0.007813-0.019531 0.019531-0.03125 0.03125-0.03125 0.007813-0.007812 0.019531-0.015625 0.03125-0.015625 0.019531 0 0.035156 0.007813 0.046875 0.015625 0.007812 0.011719 0.019531 0.023438 0.03125 0.03125z"/>
  </symbol>
  <symbol id="p" overflow="visible">
   <path d="m0.26562-0.14062v0.14062h-0.078125v-0.10938-0.03125c0-0.007813-0.007812-0.015625-0.015625-0.015625v-0.015625h-0.015625c-0.011719 0-0.023438 0.007813-0.03125 0.015625-0.011719 0.011719-0.015625 0.027344-0.015625 0.046875v0.10938h-0.078125v-0.3125h0.078125v0.125c0.007813-0.019531 0.019531-0.03125 0.03125-0.03125 0.007813-0.007812 0.019531-0.015625 0.03125-0.015625 0.03125 0 0.050781 0.011719 0.0625 0.03125 0.019531 0.023437 0.03125 0.042969 0.03125 0.0625z"/>
  </symbol>
  <symbol id="o" overflow="visible">
   <path d="m0.03125-0.09375v-0.125h0.078125v0.015625 0.046875 0.03125 0.046875 0.015625 0.015625h0.03125c0.007813 0 0.019531-0.0039062 0.03125-0.015625 0.007813-0.0078125 0.015625-0.023438 0.015625-0.046875v-0.10938h0.0625v0.21875h-0.0625v-0.03125c-0.011719 0.011719-0.023438 0.023438-0.03125 0.03125h-0.046875c-0.023438 0-0.042969-0.0039062-0.0625-0.015625-0.011719-0.019531-0.015625-0.046875-0.015625-0.078125z"/>
  </symbol>
  <symbol id="n" overflow="visible">
   <path d="m0.26562-0.14062v0.14062h-0.078125v-0.10938-0.03125c0-0.007813-0.007812-0.015625-0.015625-0.015625v-0.015625h-0.015625c-0.011719 0-0.023438 0.007813-0.03125 0.015625-0.011719 0.011719-0.015625 0.027344-0.015625 0.046875v0.10938h-0.078125v-0.21875h0.078125v0.03125c0.007813-0.019531 0.019531-0.03125 0.03125-0.03125 0.007813-0.007812 0.019531-0.015625 0.03125-0.015625 0.03125 0 0.050781 0.011719 0.0625 0.03125 0.019531 0.023437 0.03125 0.042969 0.03125 0.0625z"/>
  </symbol>
  <symbol id="m" overflow="visible">
   <path d="m0.03125-0.29688h0.14062c0.03125 0 0.054687 0.011719 0.078125 0.03125 0.019531 0.011719 0.03125 0.03125 0.03125 0.0625s-0.011719 0.058594-0.03125 0.078125c-0.023438 0.011719-0.046875 0.015625-0.078125 0.015625h-0.0625v0.10938h-0.078125zm0.078125 0.046875v0.09375h0.046875 0.03125c0.007812-0.007812 0.015625-0.023438 0.015625-0.046875 0-0.007813-0.007813-0.019531-0.015625-0.03125-0.011719-0.007813-0.023438-0.015625-0.03125-0.015625z"/>
  </symbol>
  <symbol id="l" overflow="visible">
   <path d="m0.03125-0.21875h0.078125v0.21875c0 0.019531-0.011719 0.039062-0.03125 0.0625-0.011719 0.019531-0.03125 0.03125-0.0625 0.03125h-0.03125v-0.0625h0.015625 0.015625c0.0078125 0 0.015625-0.011719 0.015625-0.03125zm0-0.09375h0.078125v0.0625h-0.078125z"/>
  </symbol>
  <symbol id="k" overflow="visible">
   <path d="m0.21875-0.21875v0.0625c-0.011719-0.007812-0.023438-0.015625-0.03125-0.015625h-0.03125c-0.023438 0-0.039062 0.007813-0.046875 0.015625-0.011719 0.011719-0.015625 0.027344-0.015625 0.046875 0 0.023438 0.0039062 0.039062 0.015625 0.046875 0.007813 0.011719 0.023437 0.015625 0.046875 0.015625h0.03125c0.007812-0.0078125 0.019531-0.015625 0.03125-0.015625v0.0625h-0.03125-0.046875c-0.042969 0-0.074219-0.0078125-0.09375-0.03125-0.023438-0.019531-0.03125-0.046875-0.03125-0.078125 0-0.039063 0.0078125-0.070313 0.03125-0.09375 0.019531-0.019531 0.050781-0.03125 0.09375-0.03125 0.019531 0 0.035156 0.007813 0.046875 0.015625h0.03125z"/>
  </symbol>
 </defs>
 <g>
  <path d="m523.2 120.17-220.41 220.41v-0.73828c0-7.0547-5.7422-12.879-12.797-12.879h-0.73828l11.32-11.402 209-209z" fill-rule="evenodd"/>
  <path d="m266.05 322.04 34.699-0.082031h0.57422c3.5273 0 6.3984 2.8711 6.3984 6.3984l-0.082031 34.699c0.16406 1.8047-0.49219 3.6914-1.8867 5.0859l-54.301 54.301c-0.82031 0.90234-1.9688 1.4766-3.1992 1.8047-3.4453 0.73828-6.8906-1.3945-7.7109-4.8398l-5.5781-24.855-24.363-5.4961c-1.3125-0.16406-2.625-0.82031-3.6094-1.8047-2.543-2.543-2.543-6.5625 0-9.1055l54.383-54.383c1.1484-1.1484 2.7891-1.8867 4.5938-1.8867z"/>
  <path d="m491.38 86.129 60.207-16.16c1.1484-0.41016 2.3789-0.41016 3.6094-0.082031 3.4453 0.90234 5.4961 4.4297 4.5117 7.875l-16.16 60.207c-0.24609 1.1484-0.82031 2.2969-1.7227 3.1992-2.543 2.543-6.5625 2.543-9.1055 0l-44.211-44.211c-0.82031-0.82031-1.4766-1.8047-1.8047-2.9531-0.90234-3.4453 1.1484-6.9727 4.5117-7.875z"/>
  <path d="m213.79 131.98 283.9 283.9-13.617 13.617-283.9-283.9z" fill-rule="evenodd"/>
  <path d="m479.89 398.16 1.4766-3.4453c0.32812-0.65625 0.65625-1.3125 1.0664-1.9688 20.016-33.633 26.742-71.691 19.359-110.16-7.2188-37.734-27.316-72.676-54.383-99.746-27.07-27.07-62.012-47.164-99.746-54.383-38.473-7.3828-76.531-0.65625-110.16 19.359-0.65625 0.41016-1.3125 0.73828-1.9688 1.0664l-3.3633 1.4766c-10.008 4.2656-20.344 8.0391-30.844 10.582-16.98 4.0195-38.309 5.4961-51.43-8.2852-5.5781-5.8242-8.5312-13.371-9.4336-21.246-0.41016-3.6094-0.49219-7.6289 0.082031-11.238 1.2305-8.7773 9.3516-14.848 18.129-13.699 8.6133 1.2305 14.602 9.1055 13.781 17.719-0.082031 0.82031 0.24609 2.2148 0.41016 2.9531 0.41016 1.7227 1.2305 3.3633 2.707 4.4297 5.4961 3.9375 18.047 0.32813 23.871-1.6406 7.793-2.625 15.34-6.2344 22.559-10.09h0.082031c27.48-14.684 57.172-24.035 88.344-25.43 28.547-1.3125 56.68 3.9375 83.012 14.93 28.629 11.895 53.316 30.926 75.137 52.66 21.738 21.738 40.766 46.508 52.66 75.137 10.992 26.332 16.16 54.547 14.93 83.012-1.3945 31.172-10.828 60.863-25.43 88.344v0.082031c-3.8555 7.2188-7.4648 14.848-10.09 22.559-1.9688 5.7422-5.5781 18.293-1.6406 23.871 1.0664 1.4766 2.707 2.2969 4.4297 2.707 0.73828 0.16406 2.2148 0.49219 2.9531 0.41016 8.6133-0.82031 16.57 5.0859 17.719 13.781 1.2305 8.7773-4.9219 16.816-13.699 18.129-3.6094 0.49219-7.6289 0.49219-11.238 0.082031-7.957-0.90234-15.422-3.9375-21.246-9.4336-2.2148-2.1328-4.1016-4.5117-5.6602-7.1367-12.305-21-1.2305-53.809 7.875-75.137z" fill-rule="evenodd"/>
  <use x="70" y="561.230469" xlink:href="#v"/>
  <use x="70.300781" y="561.230469" xlink:href="#c"/>
  <use x="70.503906" y="561.230469" xlink:href="#a"/>
  <use x="70.78125" y="561.230469" xlink:href="#j"/>
  <use x="71.058594" y="561.230469" xlink:href="#b"/>
  <use x="71.253906" y="561.230469" xlink:href="#a"/>
  <use x="71.53125" y="561.230469" xlink:href="#i"/>
  <use x="71.96875" y="561.230469" xlink:href="#h"/>
  <use x="72.261719" y="561.230469" xlink:href="#g"/>
  <use x="72.671875" y="561.230469" xlink:href="#e"/>
  <use x="72.824219" y="561.230469" xlink:href="#u"/>
  <use x="73.121094" y="561.230469" xlink:href="#e"/>
  <use x="73.273438" y="561.230469" xlink:href="#t"/>
  <use x="73.59375" y="561.230469" xlink:href="#s"/>
  <use x="73.941406" y="561.230469" xlink:href="#f"/>
  <use x="70" y="561.640625" xlink:href="#r"/>
  <use x="70.179688" y="561.640625" xlink:href="#c"/>
  <use x="70.378906" y="561.640625" xlink:href="#d"/>
  <use x="70.664062" y="561.640625" xlink:href="#q"/>
  <use x="71.234375" y="561.640625" xlink:href="#b"/>
  <use x="71.429688" y="561.640625" xlink:href="#p"/>
  <use x="71.71875" y="561.640625" xlink:href="#a"/>
  <use x="72.140625" y="561.640625" xlink:href="#f"/>
  <use x="72.484375" y="561.640625" xlink:href="#d"/>
  <use x="72.765625" y="561.640625" xlink:href="#o"/>
  <use x="73.058594" y="561.640625" xlink:href="#n"/>
  <use x="73.492188" y="561.640625" xlink:href="#m"/>
  <use x="73.792969" y="561.640625" xlink:href="#c"/>
  <use x="73.996094" y="561.640625" xlink:href="#d"/>
  <use x="74.277344" y="561.640625" xlink:href="#l"/>
  <use x="74.417969" y="561.640625" xlink:href="#a"/>
  <use x="74.695312" y="561.640625" xlink:href="#k"/>
  <use x="74.941406" y="561.640625" xlink:href="#b"/>
 </g>
</svg>
