<?xml version="1.0" encoding="UTF-8" standalone="no"?>
<svg
   width="421.28055pt"
   height="531.98895pt"
   version="1.1"
   viewBox="0 0 421.28055 531.98895"
   id="svg149"
   sodipodi:docname="noun-shield-5256384.svg"
   xmlns:inkscape="http://www.inkscape.org/namespaces/inkscape"
   xmlns:sodipodi="http://sodipodi.sourceforge.net/DTD/sodipodi-0.dtd"
   xmlns="http://www.w3.org/2000/svg"
   xmlns:svg="http://www.w3.org/2000/svg">
  <sodipodi:namedview
     id="namedview151"
     pagecolor="#ffffff"
     bordercolor="#111111"
     borderopacity="1"
     inkscape:showpageshadow="0"
     inkscape:pageopacity="0"
     inkscape:pagecheckerboard="1"
     inkscape:deskcolor="#d1d1d1"
     inkscape:document-units="pt"
     showgrid="false" />
  <defs
     id="defs65" />
  <g
     id="g147"
     transform="translate(-139.361,-14.0006)">
    <path
       d="m 549.32,80.438 c -63.852,0 -128.8,-21.715 -193.04,-64.539 -3.8008,-2.5312 -8.7539,-2.5312 -12.559,0 -64.234,42.824 -129.18,64.539 -193.04,64.539 -6.25,0 -11.32,5.0664 -11.32,11.32 v 156.35 c 0,7.3906 0.39844,15.203 1.2539,24.605 0.18359,1.9883 0.41797,3.9688 0.65625,5.957 l 0.11719,0.97656 c 0.73047,6.2461 1.707,12.613 2.8945,18.914 l 0.36719,2.0469 c 0.24609,1.3945 0.49219,2.7812 0.78906,4.1797 1.75,8.2422 3.5781,15.52 5.5938,22.25 0.12109,0.40234 0.28906,0.82813 0.47656,1.2539 14.211,46.703 39.434,86.918 72.938,116.3 4.8477,4.3008 9.6875,8.3789 14.531,12.457 2.5195,2.1211 5.0391,4.2383 7.5586,6.3945 0.53125,0.74609 1.1484,1.4219 1.8438,2.0156 6.3984,5.4883 12.793,10.789 19.191,16.094 l 13.766,11.484 c 3.3867,2.8516 6.7773,5.7031 10.168,8.4961 16.051,13.203 32.082,26.242 48.078,39.258 l 3.2734,2.6641 c 2.082,1.6914 4.6133,2.5352 7.1445,2.5352 2.5312,0 5.0625,-0.84375 7.1445,-2.5352 l 3.2734,-2.6641 c 15.996,-13.016 32.027,-26.055 48.082,-39.262 3.3867,-2.7852 6.7773,-5.6367 10.164,-8.4883 l 13.766,-11.484 c 6.3945,-5.3047 12.789,-10.605 19.191,-16.094 0.69531,-0.59766 1.3125,-1.2695 1.8438,-2.0156 2.5195,-2.1562 5.0391,-4.2734 7.5586,-6.3945 4.8438,-4.0781 9.6836,-8.1562 14.484,-12.414 33.52,-29.402 58.727,-69.566 72.945,-116.21 0.20312,-0.45312 0.375,-0.91797 0.51953,-1.3945 2.0156,-6.7305 3.8438,-14.012 5.5977,-22.262 0.29297,-1.3867 0.53906,-2.7734 0.78516,-4.168 l 0.36328,-2.0352 c 1.1875,-6.3047 2.1641,-12.672 2.8945,-18.918 l 0.11719,-0.98438 c 0.23828,-1.9883 0.46875,-3.9688 0.65625,-5.9688 0.85547,-9.3906 1.2539,-17.207 1.2539,-24.594 l -0.008,-156.35 c 0,-6.2539 -5.0703,-11.32 -11.32,-11.32 z M 538,248.108 c 0,6.6875 -0.36719,13.852 -1.1602,22.527 -0.16406,1.7891 -0.37891,3.5742 -0.58984,5.3594 l -0.11719,1.0078 v 0.004 c -0.67188,5.7305 -1.5664,11.578 -2.6602,17.387 l -0.41016,2.2773 c -0.20312,1.1484 -0.40234,2.2891 -0.63672,3.4141 -1.5234,7.1758 -3.0977,13.52 -4.8047,19.352 -0.19531,0.42969 -0.35938,0.87891 -0.49609,1.3359 -12.93,43.062 -35.938,80.008 -66.586,106.89 -4.6992,4.168 -9.3945,8.1172 -14.09,12.078 -2.9219,2.4648 -5.8516,4.9258 -8.7812,7.4375 -0.6875,0.59766 -1.3047,1.2695 -1.8359,2.0078 -5.9531,5.0898 -11.898,10.02 -17.848,14.949 l -13.883,11.59 c -3.3281,2.7969 -6.6523,5.5938 -9.9766,8.3281 -14.73,12.117 -29.441,24.094 -44.121,36.039 -14.68,-11.945 -29.391,-23.922 -44.113,-36.031 -3.3281,-2.7422 -6.6523,-5.5391 -9.9805,-8.3359 l -13.883,-11.59 c -5.9453,-4.9297 -11.895,-9.8594 -17.848,-14.949 -0.53125,-0.73438 -1.1484,-1.4102 -1.8359,-2.0078 -2.9297,-2.5156 -5.8555,-4.9727 -8.7812,-7.4375 -4.6953,-3.957 -9.3906,-7.9102 -14.137,-12.121 -30.598,-26.832 -53.605,-63.781 -66.535,-106.84 -0.11719,-0.39062 -0.27734,-0.80078 -0.45703,-1.2148 -1.7227,-5.8633 -3.3125,-12.242 -4.8398,-19.461 -0.24219,-1.1367 -0.44141,-2.2773 -0.64062,-3.4258 l -0.41406,-2.2891 c -1.0898,-5.7969 -1.9883,-11.645 -2.6602,-17.383 l -0.11719,-1.0078 c -0.21484,-1.7852 -0.42969,-3.5703 -0.58984,-5.3516 -0.79297,-8.6875 -1.1602,-15.852 -1.1602,-22.539 l -0.004,-145.24 c 62.598,-2.3125 125.75,-23.812004 188,-64.004004 62.242,40.191 125.4,61.691004 188,64.008004 z"
       id="path67"
       style="fill:#ffffff" />
  </g>
</svg>
