<?xml version="1.0" encoding="UTF-8" standalone="no"?>
<svg
   width="306.03699pt"
   height="405.44101pt"
   version="1.1"
   viewBox="0 0 306.03699 405.44101"
   id="svg772"
   sodipodi:docname="noun-sparkle-4730820.svg"
   xmlns:inkscape="http://www.inkscape.org/namespaces/inkscape"
   xmlns:sodipodi="http://sodipodi.sourceforge.net/DTD/sodipodi-0.dtd"
   xmlns="http://www.w3.org/2000/svg"
   xmlns:svg="http://www.w3.org/2000/svg">
  <sodipodi:namedview
     id="namedview774"
     pagecolor="#ffffff"
     bordercolor="#111111"
     borderopacity="1"
     inkscape:showpageshadow="0"
     inkscape:pageopacity="0"
     inkscape:pagecheckerboard="1"
     inkscape:deskcolor="#d1d1d1"
     inkscape:document-units="pt"
     showgrid="false" />
  <defs
     id="defs696" />
  <g
     id="g770"
     transform="translate(-197.007,-77.284)">
    <path
       d="m 251.44,188.78 c 24.527,-2.3516 41.887,-14.953 56.281,-32.199 18.816,-22.512 28.785,-48.887 32.258,-77.84 0,-0.44922 0.22266,-0.89453 0.33594,-1.457 2.4648,29.176 12.711,55.273 30.91,77.953 14.449,17.977 32.258,31.023 57.457,33.543 -6.3828,1.5117 -11.703,2.3516 -16.688,4.0898 -20.383,7.1133 -35.281,21.168 -47.152,38.695 -14.113,20.945 -22.512,44.016 -24.641,69.328 -2.1289,-21.391 -8.5117,-41.441 -19.152,-60.031 -12.266,-21.391 -28.336,-38.863 -52.023,-47.711 -5.2656,-1.9609 -10.922,-2.8008 -17.586,-4.4258 z"
       id="path698"
       style="fill:#ffffff" />
    <path
       d="m 337.46,369.6 c 38.414,-8.9023 55.16,-37.016 64.512,-71.793 0.61719,-2.2969 0.83984,-4.7031 1.2891,-7.0547 0.39063,-2.3516 0.78516,-4.7031 0.89453,-6.7773 7.2812,40.375 22.734,74.258 66.023,85.566 -20.16,2.6875 -35.113,15.23 -46.703,32.426 -10.863,16.07 -17.414,33.77 -18.93,53.48 -5.4883,-49.504 -37.129,-83.719 -66.977,-85.848 z"
       id="path700"
       style="fill:#ffffff" />
    <path
       d="m 294.28,339.25 c -30.801,9.7422 -42.449,34.105 -48.328,62.945 -5.7695,-29.008 -17.586,-53.031 -48.945,-63.168 14.953,-3.0781 25.48,-11.762 33.711,-23.465 8.1758,-11.703 13.328,-24.586 15.062,-38.977 6.2148,28.672 17.586,53.199 48.551,62.664 z"
       id="path702"
       style="fill:#ffffff" />
    <path
       d="m 502.99,242.54 c -20.832,6.6094 -28.727,23.07 -32.703,42.559 -3.9219,-19.656 -11.871,-35.84 -33.098,-42.727 10.137,-2.0703 17.246,-7.9531 22.793,-15.902 5.543,-7.8945 9.0156,-16.633 10.191,-26.32 4.1992,19.375 11.871,36.008 32.871,42.391 z"
       id="path704"
       style="fill:#ffffff" />
    <path
       d="m 337.34,447.78 c -17.078,5.4336 -23.574,18.93 -26.824,34.945 -3.1914,-16.129 -9.7422,-29.398 -27.16,-35.055 8.2891,-1.7344 14.168,-6.5508 18.703,-13.047 4.535,-6.4962 7.3906,-13.664 8.3438,-21.617 3.4141,15.902 9.7422,29.566 26.938,34.777 z"
       id="path706"
       style="fill:#ffffff" />
  </g>
</svg>
